<svg width="1424" height="947" viewBox="0 0 1424 947" fill="none" xmlns="http://www.w3.org/2000/svg">
<mask id="mask0_519_7634" style="mask-type:alpha" maskUnits="userSpaceOnUse" x="436" y="226" width="296" height="288">
<rect x="436.81" y="226" width="295" height="288" fill="#C4C4C4"/>
</mask>
<g mask="url(#mask0_519_7634)">
<circle cx="516.81" cy="441" r="215" fill="#FABD03" fill-opacity="0.5"/>
<circle cx="513.81" cy="445" r="85" fill="white"/>
</g>
<path d="M392.81 671.5C444.44 675.353 519.749 627.16 550.31 574C575.31 519.5 564.813 468.809 564.814 453.004C564.815 427.871 575.81 353.01 672.31 347.001C699.452 345.311 733.81 349.001 775.818 353.011" stroke="black" stroke-width="2" stroke-dasharray="5 5"/>
<line x1="774.719" y1="367.083" x2="772.893" y2="388.09" stroke="black" stroke-width="2" stroke-linecap="round"/>
<path d="M769.31 361L750.31 379" stroke="black" stroke-width="2" stroke-linecap="round"/>
<path d="M765.31 357.5L739.81 357.5" stroke="black" stroke-width="2" stroke-linecap="round"/>
<path d="M861.81 242.5C793.81 164.5 717.31 124 661.504 91.393" stroke="black" stroke-width="2" stroke-linecap="round" stroke-dasharray="5 5"/>
<path d="M533.111 2L644.31 48.0547" stroke="black" stroke-width="2" stroke-linecap="round"/>
<line x1="532.937" y1="1.70043" x2="668.956" y2="20.4276" stroke="black" stroke-width="2" stroke-linecap="round"/>
<path d="M644.31 48.5544L671.307 27.0534" stroke="black" stroke-width="2" stroke-linecap="round"/>
<path d="M629.81 60.5547L644.31 80.5L621.31 67.5547L629.81 60.5547Z" fill="#222222"/>
<path d="M669.31 20.5536C672.31 21.0547 674.786 24.0533 671.286 27.0533" stroke="black" stroke-width="2" stroke-linecap="round"/>
<path d="M533.189 2.87012L584.81 86.5547M584.309 85.5563C587.809 91.0563 589.81 92.0547 592.31 90.0546M591.81 90.5545L628.663 61.5532M533.18 2.20508L629.31 61.0547" stroke="black" stroke-width="2" stroke-linecap="round"/>
<path d="M644.31 48.5547L644.31 79.5539" stroke="black" stroke-width="2" stroke-linecap="round"/>
<path d="M457.809 77.9981L576.667 77.9997" stroke="black" stroke-width="2"/>
<path d="M609.804 77.9931L1056.31 77.9941" stroke="black" stroke-width="2"/>
<path d="M453.799 514.994L775.301 514.996M897 514.996L1009 514.996" stroke="black" stroke-width="2"/>
<path d="M434.81 99.5L434.81 253" stroke="black" stroke-width="2"/>
<path d="M435.1 350L435.1 430.5" stroke="black" stroke-width="2"/>
<path d="M1076.31 98.5H1086.31V223.745L1076.31 231.018V98.5Z" fill="black" stroke="black"/>
<path d="M1076.31 409.035V313.878L1086.31 309.748V412.844C1084.01 410.841 1081.41 409.917 1076.31 409.035Z" fill="black" stroke="black"/>
<path d="M1076.31 496.857V478.754C1077.3 473.203 1078.54 469.341 1080.25 466.071C1081.8 463.116 1083.75 460.623 1086.31 457.789V496.857H1086.29H1086.27H1086.24H1086.22H1086.19H1086.16H1086.14H1086.11H1086.09H1086.06H1086.04H1086.01H1085.99H1085.96H1085.94H1085.91H1085.89H1085.86H1085.84H1085.81H1085.79H1085.77H1085.74H1085.72H1085.69H1085.67H1085.64H1085.62H1085.59H1085.57H1085.55H1085.52H1085.5H1085.47H1085.45H1085.42H1085.4H1085.38H1085.35H1085.33H1085.3H1085.28H1085.26H1085.23H1085.21H1085.19H1085.16H1085.14H1085.11H1085.09H1085.07H1085.04H1085.02H1085H1084.97H1084.95H1084.93H1084.9H1084.88H1084.86H1084.83H1084.81H1084.79H1084.76H1084.74H1084.72H1084.69H1084.67H1084.65H1084.63H1084.6H1084.58H1084.56H1084.53H1084.51H1084.49H1084.47H1084.44H1084.42H1084.4H1084.38H1084.35H1084.33H1084.31H1084.29H1084.26H1084.24H1084.22H1084.2H1084.17H1084.15H1084.13H1084.11H1084.08H1084.06H1084.04H1084.02H1084H1083.97H1083.95H1083.93H1083.91H1083.89H1083.86H1083.84H1083.82H1083.8H1083.78H1083.76H1083.73H1083.71H1083.69H1083.67H1083.65H1083.62H1083.6H1083.58H1083.56H1083.54H1083.52H1083.5H1083.47H1083.45H1083.43H1083.41H1083.39H1083.37H1083.35H1083.32H1083.3H1083.28H1083.26H1083.24H1083.22H1083.2H1083.18H1083.15H1083.13H1083.11H1083.09H1083.07H1083.05H1083.03H1083.01H1082.99H1082.97H1082.94H1082.92H1082.9H1082.88H1082.86H1082.84H1082.82H1082.8H1082.78H1082.76H1082.74H1082.72H1082.69H1082.67H1082.65H1082.63H1082.61H1082.59H1082.57H1082.55H1082.53H1082.51H1082.49H1082.47H1082.45H1082.43H1082.41H1082.39H1082.37H1082.35H1082.32H1082.3H1082.28H1082.26H1082.24H1082.22H1082.2H1082.18H1082.16H1082.14H1082.12H1082.1H1082.08H1082.06H1082.04H1082.02H1082H1081.98H1081.96H1081.94H1081.92H1081.9H1081.88H1081.86H1081.84H1081.82H1081.8H1081.78H1081.76H1081.74H1081.72H1081.7H1081.68H1081.66H1081.64H1081.62H1081.6H1081.58H1081.56H1081.54H1081.52H1081.5H1081.48H1081.46H1081.44H1081.42H1081.4H1081.38H1081.36H1081.34H1081.32H1081.3H1081.28H1081.26H1081.24H1081.22H1081.2H1081.18H1081.16H1081.14H1081.12H1081.1H1081.08H1081.06H1081.04H1081.02H1081H1080.98H1080.96H1080.94H1080.92H1080.91H1080.89H1080.87H1080.85H1080.83H1080.81H1080.79H1080.77H1080.75H1080.73H1080.71H1080.69H1080.67H1080.65H1080.63H1080.61H1080.59H1080.57H1080.55H1080.53H1080.51H1080.49H1080.47H1080.45H1080.43H1080.41H1080.39H1080.37H1080.35H1080.33H1080.31H1080.29H1080.28H1080.26H1080.24H1080.22H1080.2H1080.18H1080.16H1080.14H1080.12H1080.1H1080.08H1080.06H1080.04H1080.02H1080H1079.98H1079.96H1079.94H1079.92H1079.9H1079.88H1079.86H1079.84H1079.82H1079.8H1079.78H1079.76H1079.74H1079.72H1079.7H1079.68H1079.66H1079.64H1079.62H1079.6H1079.58H1079.57H1079.55H1079.53H1079.51H1079.49H1079.47H1079.45H1079.43H1079.41H1079.39H1079.37H1079.35H1079.33H1079.31H1079.29H1079.27H1079.25H1079.23H1079.21H1079.19H1079.17H1079.15H1079.13H1079.11H1079.09H1079.07H1079.05H1079.03H1079.01H1078.99H1078.97H1078.95H1078.93H1078.91H1078.89H1078.87H1078.85H1078.83H1078.81H1078.79H1078.77H1078.75H1078.73H1078.7H1078.68H1078.66H1078.64H1078.62H1078.6H1078.58H1078.56H1078.54H1078.52H1078.5H1078.48H1078.46H1078.44H1078.42H1078.4H1078.38H1078.36H1078.34H1078.32H1078.3H1078.28H1078.26H1078.24H1078.21H1078.19H1078.17H1078.15H1078.13H1078.11H1078.09H1078.07H1078.05H1078.03H1078.01H1077.99H1077.97H1077.95H1077.92H1077.9H1077.88H1077.86H1077.84H1077.82H1077.8H1077.78H1077.76H1077.74H1077.72H1077.69H1077.67H1077.65H1077.63H1077.61H1077.59H1077.57H1077.55H1077.52H1077.5H1077.48H1077.46H1077.44H1077.42H1077.4H1077.38H1077.35H1077.33H1077.31H1077.29H1077.27H1077.25H1077.22H1077.2H1077.18H1077.16H1077.14H1077.12H1077.09H1077.07H1077.05H1077.03H1077.01H1076.99H1076.96H1076.94H1076.92H1076.9H1076.88H1076.85H1076.83H1076.81H1076.79H1076.77H1076.74H1076.72H1076.7H1076.68H1076.65H1076.63H1076.61H1076.59H1076.57H1076.54H1076.52H1076.5H1076.48H1076.45H1076.43H1076.41H1076.39H1076.36H1076.34H1076.32H1076.31Z" fill="black" stroke="black"/>
<path d="M1076.22 98.1304C1073.75 86.2831 1064.88 78.8074 1056.81 78.5048C1056.81 78.4007 1056.81 78.329 1056.81 78.2537C1056.81 78.2352 1056.81 78.2165 1056.81 78.197C1056.81 78.0577 1056.81 77.8814 1056.81 77.4795C1077.26 76.7404 1085.94 90.2539 1086.3 98.1308L1076.22 98.1304Z" fill="black" stroke="black"/>
<path d="M1074.81 431C1079.49 434.5 1082.09 435.5 1087.81 437.5V441.5C1081.05 441 1079.49 441 1074.81 445V431Z" fill="black"/>
<path d="M434.81 99.5001C434.81 88.8538 447.665 78.0001 457.81 78.0001" stroke="black" stroke-width="2"/>
<path d="M1077.18 510.21C1072.01 513.28 1065.12 515.014 1057.77 514.348C1062.09 512.527 1066.11 510.647 1069.3 508.226C1072.83 505.544 1075.38 502.184 1076.23 497.5L1086.3 497.5C1086.07 502.33 1082.61 506.982 1077.18 510.21Z" fill="black" stroke="black"/>
<ellipse cx="904.842" cy="260.362" rx="8.71399" ry="34.3266" transform="rotate(-37.4849 904.842 260.362)" fill="black"/>
<circle cx="475.31" cy="116.5" r="12.5" fill="#EA4235" stroke="black" stroke-width="1.5"/>
<circle cx="471.31" cy="116.5" r="12.5" fill="#EA4235" stroke="black" stroke-width="1.5"/>
<circle cx="513.31" cy="116.5" r="12.5" fill="#4286F5" stroke="black" stroke-width="1.5"/>
<circle cx="509.31" cy="116.5" r="12.5" fill="#4286F5" stroke="black" stroke-width="1.5"/>
<circle cx="551.31" cy="116.5" r="12.5" fill="white" stroke="black" stroke-width="1.5"/>
<circle cx="547.31" cy="116.5" r="12.5" fill="white" stroke="black" stroke-width="1.5"/>
<line x1="435.81" y1="148.5" x2="1075.81" y2="148.5" stroke="black" stroke-width="3"/>
<line x1="435.81" y1="148.5" x2="1075.81" y2="148.5" stroke="white" stroke-opacity="0.5" stroke-width="3"/>
<mask id="mask1_519_7634" style="mask-type:alpha" maskUnits="userSpaceOnUse" x="841" y="150" width="235" height="231">
<rect x="841.81" y="150" width="234" height="231" fill="#C4C4C4"/>
</mask>
<g mask="url(#mask1_519_7634)">
<circle cx="991.81" cy="232" r="150" fill="#FABD03" fill-opacity="0.75"/>
</g>
<path d="M887.501 235.384C862.193 253.846 839.501 271.884 781.81 278.922C809.001 301.884 826.81 325 835.81 341.5C847.81 324.5 891.31 287 920.501 273.384C910.501 255.384 902.001 243.384 887.501 235.384Z" fill="#E5EAE4"/>
<path d="M850.769 371.251C872.556 316.857 923.038 283.004 923.038 283.004C923.038 283.004 923.528 279.508 920.029 273.008C920.029 273.008 868.538 300.366 835.769 341.251C839.268 347.751 850.769 371.251 850.769 371.251Z" fill="#C0C8C1"/>
<path d="M850.31 371.5C872.097 317.106 923.038 283.004 923.038 283.004C923.038 283.004 923.809 279.5 920.31 273" stroke="black"/>
<ellipse cx="800.968" cy="338.211" rx="22.8444" ry="80.3968" transform="rotate(-35.9698 800.968 338.211)" fill="black"/>
<path d="M823.094 322.369C836.915 341.413 846.925 360.445 851.945 375.81C854.456 383.494 855.709 390.234 855.582 395.585C855.455 400.946 853.949 404.815 851.056 406.914C848.163 409.014 844.018 409.246 838.882 407.705C833.755 406.167 827.736 402.886 821.208 398.117C808.157 388.581 793.166 373.163 779.345 354.119C765.524 335.075 755.513 316.042 750.493 300.678C747.982 292.993 746.729 286.254 746.856 280.902C746.983 275.542 748.489 271.673 751.383 269.573C754.276 267.474 758.421 267.241 763.557 268.782C768.684 270.321 774.703 273.601 781.23 278.371C794.282 287.907 809.273 303.324 823.094 322.369Z" stroke="black"/>
<path d="M826.206 335.823C816.777 323.465 812.49 318.182 803.06 305.823L786.06 321.177L807.06 348.677L826.206 335.823Z" fill="#C4CAC3" stroke="black"/>
<ellipse cx="795.262" cy="335.614" rx="7.64489" ry="17.4569" transform="rotate(-36.0373 795.262 335.614)" fill="#FEFEFC" stroke="black"/>
<path d="M781.81 278.922C839.501 271.884 862.193 253.846 887.501 235.384C902.001 243.384 910.501 255.384 920.501 273.384" stroke="black"/>
<path d="M192.312 279C211.312 280 223.812 302 223.812 314.5L140.31 399C140.31 422.5 142.81 443 142.81 463C132.31 467 123.31 472 113.31 481C96.8098 476.5 39.3102 463.5 32.3108 461C29.3108 444.5 42.8108 428.5 42.8108 418.5C31.8102 418.5 15.8102 439.5 20.811 458.5C21.2814 460.287 19.3114 458.5 10.3114 456L2.70301 454.488C2.70301 454.488 -3.24245 418.747 41.3117 393.5C71.3117 376.5 97.8117 346.5 102.812 326.5C107.812 306.5 124.839 281.542 142.312 277C158.814 272.71 173.312 278 192.312 279Z" fill="#EA4235" fill-opacity="0.75"/>
<ellipse cx="1046.55" cy="291.892" rx="15.5" ry="33.5429" transform="rotate(-21.5652 1046.55 291.892)" fill="black"/>
<path d="M975.31 350.819C965.81 336 936.31 289.5 930.31 284C934.81 281 945.31 273.819 952.31 270C958.31 275.5 988.31 324.181 997.81 339C994.31 345.5 984.523 351.771 975.31 350.819Z" fill="#EA4235" stroke="black" stroke-width="2" stroke-linecap="round"/>
<path d="M975.81 249.5C970.911 260 927.31 285.5 927.31 285.5C930.31 278.5 898.31 232 886.31 232.5C886.31 232.5 923.808 200.5 934.809 196C945.81 191.5 980.71 239 975.81 249.5Z" fill="#EA4235" stroke="black" stroke-width="2"/>
<path d="M971.81 233C971.81 233 958.5 213 950.311 204C956.5 200 965.833 205.239 970.5 212.5C975 219.5 971.81 233 971.81 233Z" fill="#EA4235" stroke="black" stroke-width="2"/>
<path d="M932.31 286.5C918.31 294.5 906.31 312.5 897.31 304.5C900.81 301 912.81 290 925.81 281.5C927.81 285.5 929.398 284.949 932.31 286.5Z" fill="white" stroke="black"/>
<path d="M923.31 246C930.218 242.053 945.855 251.743 967.81 257.417C969.81 246 1010.81 255.5 1034.31 261C1042.81 262.5 1061.81 275.5 1061.81 298.5C1038.31 311 990.81 334.117 993.81 332C973.81 305 994.81 297 972.31 277.5C908.31 284 919.81 248 923.31 246Z" fill="white"/>
<path d="M989.81 261C956.31 259 932.344 240.838 923.31 246C919.81 248 908.31 284 972.31 277.5C994.81 297 973.81 305 993.81 332C990.81 334.117 1038.31 311 1061.81 298.5C1061.81 275.5 1042.81 262.5 1034.31 261C1010.81 255.5 969.81 246 967.81 257.417" stroke="black" stroke-width="2"/>
<path d="M926.221 295.714C939.811 317.5 946.899 327.786 962.809 348C1018.81 317.5 997.309 244.5 926.221 295.714Z" fill="white" stroke="black" stroke-width="2"/>
<path d="M932.81 305.5C964.31 308.5 974.516 293.456 983.81 282.5" stroke="black" stroke-width="2" stroke-linecap="round"/>
<path d="M950.31 331.5C978.81 325 989.81 299.5 991.81 290.5" stroke="black" stroke-width="2" stroke-linecap="round"/>
<path d="M930.81 284L934.704 289.553" stroke="black" stroke-width="2"/>
<path d="M1126.48 177.625C1115.31 204 1080.31 238.5 1032.31 260.5C1051.31 259 1074.31 296 1060.14 321C1105.14 301 1160.64 260.5 1175.31 227.625C1165.31 203.5 1147.31 190 1126.48 177.625Z" fill="white"/>
<path d="M1032.31 260.5C1080.31 238.5 1115.31 204 1126.48 177.625M1060.14 321C1105.14 301 1160.64 260.5 1175.31 227.625" stroke="black" stroke-width="2" stroke-linecap="round"/>
<path d="M198.432 296.258C188.807 315.588 170.307 339.088 140.432 362.258C111.807 347.588 108.307 397.088 138.807 387.088C138.807 389.588 137.307 393.588 140.433 398.088C170.308 430.588 234.807 427.088 234.807 380.588C234.807 363.375 217.807 299.088 203.807 288.088C208.807 298.088 208.807 320.088 200.807 320.088C194.307 320.088 200.307 307.088 198.432 296.258Z" fill="white"/>
<path d="M216.133 323.182C212.193 324.679 207.849 324.723 208.597 323.641C209.249 322.698 211.965 320.643 214.978 319.37C219.162 317.603 222.952 316.767 221.807 317.588C219.839 319.002 217.718 320.497 216.133 323.182Z" fill="black" stroke="black" stroke-width="2"/>
<path d="M185.582 325.212C182.012 325.891 179.146 326.267 178.861 325.324C178.575 324.381 181.696 322.668 184.437 322.025C188.243 321.133 190.784 321.577 190.921 322.049C191.059 322.521 189.151 324.534 185.582 325.212Z" fill="black" stroke="black" stroke-width="2"/>
<path d="M204.261 333.379C203.307 342.088 204.353 349.298 214.307 358.088C215.807 359.413 219.307 364.588 211.807 369.088" stroke="black" stroke-width="2"/>
<path d="M177.718 343.096C181.307 340.088 184.807 340.088 188.718 341.096" stroke="black" stroke-width="2" stroke-linecap="round"/>
<path d="M189.808 383.089C188.809 383.089 198.307 395.588 207.307 383.089C207.307 383.089 190.807 383.088 189.808 383.089Z" stroke="black" stroke-width="2" stroke-linecap="round"/>
<path d="M123.333 367C128.11 374.447 130.386 375.447 138.11 375.447C137.11 378.447 136.11 379.447 133.61 380.947" stroke="black" stroke-width="2" stroke-linecap="round"/>
<path d="M140.432 362.258C111.807 347.588 108.307 397.088 138.807 387.088M204.31 288C218.31 299 234.807 363.375 234.807 380.588C234.807 427.088 170.308 430.588 140.433 398.088C137.307 393.588 138.807 389.588 138.807 387.088M138.807 387.088C141.307 385.588 141.807 385.088 142.807 383.088" stroke="black" stroke-width="2"/>
<circle cx="238.81" cy="341" r="29" fill="#E6EBE5" stroke="black" stroke-width="2"/>
<mask id="mask2_519_7634" style="mask-type:alpha" maskUnits="userSpaceOnUse" x="208" y="337" width="43" height="52">
<rect x="208.628" y="343.93" width="34.5995" height="45.388" transform="rotate(-9.87896 208.628 343.93)" fill="#C4C4C4"/>
</mask>
<g mask="url(#mask2_519_7634)">
<circle cx="238.81" cy="341" r="30" fill="black"/>
</g>
<circle cx="245.81" cy="340" r="29" fill="#C1C9C2" stroke="black" stroke-width="2"/>
<path d="M251.906 363.214C218.359 369.227 206.203 321.817 246.22 313.19C286.237 304.564 296.545 303.13 296.545 303.13C277.259 325.337 292.936 347.316 306.76 351.874C306.76 351.874 285.453 357.2 251.906 363.214Z" fill="#E6EBE5" stroke="black" stroke-width="2"/>
<path d="M482.81 346C436.31 353.112 410.31 253 466.31 239.5C522.31 226 495.31 234.5 495.31 234.5C452.31 262.5 470.311 337 519.808 339C519.808 339 529.309 338.888 482.81 346Z" fill="#E6EBE5" stroke="black" stroke-width="2"/>
<path d="M390.734 357.865C345.329 365.247 323.31 276 377.31 264.5C431.31 253 445.309 251.5 445.309 251.5C421.31 290.5 445.309 333 464.81 343C464.81 343 436.14 350.482 390.734 357.865Z" fill="#E6EBE5" stroke="black" stroke-width="2"/>
<path d="M305.648 366.619C269.72 372.379 251.695 299.044 294.406 289.963C337.117 280.883 348.199 279.743 348.199 279.743C329.437 311.572 348.728 346.582 364.244 354.91C364.244 354.91 341.577 360.86 305.648 366.619Z" fill="#E6EBE5" stroke="black" stroke-width="2"/>
<path d="M372.31 266C302.81 288 344.31 372 387.31 358C352.81 364 320.81 287.5 372.31 266Z" fill="#E6EBE5" stroke="black" stroke-width="2"/>
<mask id="mask3_519_7634" style="mask-type:alpha" maskUnits="userSpaceOnUse" x="220" y="330" width="72" height="57">
<rect x="220.22" y="341.911" width="64.518" height="45.388" transform="rotate(-9.87896 220.22 341.911)" fill="#C4C4C4"/>
</mask>
<g mask="url(#mask3_519_7634)">
<path d="M251.906 363.214C218.359 369.227 206.203 321.817 246.22 313.19C286.237 304.564 296.545 303.13 296.545 303.13C277.259 325.337 292.936 347.316 306.76 351.874C306.76 351.874 285.453 357.2 251.906 363.214Z" fill="#C1C9C2" stroke="black" stroke-width="2"/>
</g>
<mask id="mask4_519_7634" style="mask-type:alpha" maskUnits="userSpaceOnUse" x="269" y="314" width="118" height="65">
<rect x="269.486" y="333.331" width="111.282" height="45.388" transform="rotate(-9.87896 269.486 333.331)" fill="#C4C4C4"/>
</mask>
<g mask="url(#mask4_519_7634)">
<path d="M305.646 366.619C269.718 372.379 251.693 299.044 294.404 289.963C337.115 280.883 348.197 279.743 348.197 279.743C329.435 311.572 348.726 346.582 364.242 354.91C364.242 354.91 341.575 360.86 305.646 366.619Z" fill="#C1C9C2" stroke="black" stroke-width="2"/>
</g>
<mask id="mask5_519_7634" style="mask-type:alpha" maskUnits="userSpaceOnUse" x="334" y="313" width="59" height="54">
<rect x="334.845" y="321.949" width="50.7457" height="45.388" transform="rotate(-9.87896 334.845 321.949)" fill="#C4C4C4"/>
</mask>
<g mask="url(#mask5_519_7634)">
<path d="M372.31 266C302.81 288 344.31 372 387.31 358C352.81 364 320.81 287.5 372.31 266Z" fill="black" stroke="black" stroke-width="2"/>
</g>
<mask id="mask6_519_7634" style="mask-type:alpha" maskUnits="userSpaceOnUse" x="346" y="299" width="126" height="66">
<rect x="346.688" y="319.887" width="119.041" height="45.388" transform="rotate(-9.87896 346.688 319.887)" fill="#C4C4C4"/>
</mask>
<g mask="url(#mask6_519_7634)">
<path d="M390.734 357.865C345.329 365.247 323.31 276 377.31 264.5C431.31 253 445.31 251.5 445.31 251.5C421.31 290.5 445.31 333 464.81 343C464.81 343 436.14 350.482 390.734 357.865Z" fill="#C1C9C2" stroke="black" stroke-width="2"/>
</g>
<mask id="mask7_519_7634" style="mask-type:alpha" maskUnits="userSpaceOnUse" x="436" y="290" width="92" height="67">
<rect x="436.281" y="304.633" width="83.2698" height="52.7208" transform="rotate(-9.87896 436.281 304.633)" fill="#C4C4C4"/>
</mask>
<g mask="url(#mask7_519_7634)">
<path d="M482.945 345.97C437.589 352.897 410.604 252.935 466.424 239.475C522.243 226.015 495.332 234.495 495.332 234.495C451.483 258.961 470.478 336.963 519.826 338.996C519.826 338.996 528.301 339.043 482.945 345.97Z" fill="#C1C9C2" stroke="black" stroke-width="2"/>
</g>
<path d="M564.441 276.327C569.243 306.407 552.388 333.813 527.172 337.838C501.956 341.863 477.406 321.067 472.604 290.987C467.802 260.907 484.658 233.5 509.874 229.475C535.09 225.45 559.64 246.247 564.441 276.327Z" fill="#FDFFFD" stroke="black" stroke-width="2"/>
<path d="M557.162 277.575C561.192 302.821 547.043 325.777 525.937 329.147C504.83 332.516 484.237 315.106 480.207 289.859C476.177 264.613 490.326 241.657 511.433 238.287C532.539 234.918 553.132 252.328 557.162 277.575Z" fill="#FDFFFD" stroke="black" stroke-width="2"/>
<ellipse cx="514.578" cy="285.044" rx="35.9754" ry="45.9472" transform="rotate(-9.06969 514.578 285.044)" fill="black"/>
<path d="M413.31 288C417.81 276.5 418.81 271.5 425.26 263.217C421.31 263 420.31 263.217 417.81 263.217C410.859 271 407.81 277.5 403.81 290.217C407.81 290.217 409.31 289.5 413.31 288Z" stroke="black" stroke-width="2"/>
<path d="M321.31 337L331.31 336L344.31 351L334.31 352.5C329.233 346.447 326.387 343.053 321.31 337Z" stroke="white" stroke-width="2"/>
<circle cx="89.5" cy="191.5" r="33.5" fill="#EA4235" fill-opacity="0.4"/>
<rect x="1209.81" y="199" width="37" height="3" fill="#C4C4C4"/>
<rect x="1209.81" y="199" width="37" height="3" fill="black" fill-opacity="0.5"/>
<rect x="1209.81" y="202" width="37" height="6" fill="#C4C4C4" stroke="black" stroke-width="2"/>
<path d="M1247.41 185.563L1247.41 198.563L1209.41 198.563L1209.41 185.563C1209.41 181.883 1205.41 175.063 1200.42 168.063C1194.41 160.563 1190.91 150.741 1190.91 141.063C1190.91 116.544 1211.41 103.563 1228.41 103.563C1245.41 103.563 1266.41 117.544 1266.41 142.063C1266.41 151.741 1262.41 160.563 1256.41 169.063C1252.91 174.022 1247.91 179.063 1247.41 185.563Z" fill="white" stroke="black" stroke-width="2" stroke-linecap="round"/>
<circle cx="1228.31" cy="140.5" r="32.5" fill="#EA4235" fill-opacity="0.4"/>
<path d="M1207.31 120.5C1209.81 117.5 1211.81 116 1215.93 114.831" stroke="black" stroke-width="3" stroke-linecap="round"/>
<path d="M1200.74 131.342C1201.31 129.5 1201.81 128.5 1203.31 127" stroke="black" stroke-width="3" stroke-linecap="round"/>
<line x1="1223.31" y1="194" x2="1223.31" y2="148" stroke="black" stroke-width="3"/>
<line x1="1234.31" y1="194" x2="1234.31" y2="148" stroke="black" stroke-width="3"/>
<path d="M1220.81 145H1236.81M1215.81 147H1241.81" stroke="black" stroke-width="2"/>
<path d="M1234.06 163.999L1233.81 139" stroke="black" stroke-width="2"/>
<path d="M1223.81 164L1223.81 139" stroke="black" stroke-width="2"/>
<ellipse cx="1215.31" cy="139" rx="8.5" ry="8" stroke="black" stroke-width="2"/>
<ellipse cx="1242.31" cy="139" rx="8.5" ry="8" stroke="black" stroke-width="2"/>
<path d="M1209.81 212.5H1215.81C1216.81 212.5 1216.81 225 1228.31 225C1240.31 225 1240.81 212.5 1241.81 212.5H1246.81V208H1209.81V212.5Z" stroke="black" stroke-width="2"/>
<path d="M1223.31 213.5C1225.81 219 1231.81 219 1234.31 213.5" stroke="black" stroke-width="2" stroke-linecap="round"/>
<line x1="1181.18" y1="166.636" x2="1188.13" y2="162.667" stroke="black" stroke-width="2" stroke-linecap="round"/>
<line x1="1174.81" y1="138" x2="1182.81" y2="138" stroke="black" stroke-width="2" stroke-linecap="round"/>
<line x1="1182.18" y1="107.657" x2="1189.04" y2="111.773" stroke="black" stroke-width="2" stroke-linecap="round"/>
<line x1="1" y1="-1" x2="9" y2="-1" transform="matrix(-0.868243 -0.496139 -0.496139 0.868243 1275.81 168)" stroke="black" stroke-width="2" stroke-linecap="round"/>
<line x1="1" y1="-1" x2="9" y2="-1" transform="matrix(-1 0 0 1 1282.81 139)" stroke="black" stroke-width="2" stroke-linecap="round"/>
<line x1="1" y1="-1" x2="9" y2="-1" transform="matrix(-0.857493 0.514496 0.514496 0.857493 1275.81 108)" stroke="black" stroke-width="2" stroke-linecap="round"/>
<line x1="1203.21" y1="89.2" x2="1208.01" y2="95.6" stroke="black" stroke-width="2" stroke-linecap="round"/>
<line x1="1" y1="-1" x2="9" y2="-1" transform="matrix(-0.6 0.8 0.8 0.6 1256.81 89)" stroke="black" stroke-width="2" stroke-linecap="round"/>
<path d="M1227.33 80L1227.33 89.5" stroke="black" stroke-width="2" stroke-linecap="round"/>
<line x1="1037" y1="762" x2="1341" y2="763" stroke="black" stroke-width="2"/>
<path d="M1341 763C1371.5 763 1372 825 1341 825" stroke="black" stroke-width="2"/>
<path d="M1337.5 782.5C1351.5 782.5 1352 808.5 1337 808.5" stroke="black" stroke-width="2"/>
<path d="M1037 781.5L1337.5 782.5" stroke="black" stroke-width="2"/>
<path d="M1037 807.5L1337 808.5" stroke="black" stroke-width="2"/>
<line x1="1037" y1="824" x2="1341" y2="825" stroke="black" stroke-width="2"/>
<line x1="1085" y1="794" x2="1319" y2="794" stroke="black" stroke-width="2"/>
<line x1="1061" y1="793" x2="1078" y2="793" stroke="black" stroke-width="2"/>
<line x1="1044" y1="793" x2="1056" y2="793" stroke="black" stroke-width="2"/>
<line y1="-1" x2="511.988" y2="-1" transform="matrix(-0.999998 0.00195317 0.00553994 0.999985 609 712)" stroke="black" stroke-width="2"/>
<path d="M97.0127 712C45.6482 712 44.8062 774 97.0127 774" stroke="black" stroke-width="2"/>
<path d="M102.907 731.5C79.3288 731.5 78.4868 757.5 103.749 757.5" stroke="black" stroke-width="2"/>
<path d="M608.997 730.5L102.907 731.5" stroke="black" stroke-width="2"/>
<path d="M608.997 756.5L103.749 757.5" stroke="black" stroke-width="2"/>
<line y1="-1" x2="511.988" y2="-1" transform="matrix(-0.999998 0.00195317 0.00553994 0.999985 609 774)" stroke="black" stroke-width="2"/>
<line y1="-1" x2="394.096" y2="-1" transform="matrix(-1 -1.16388e-10 -3.30127e-10 1 528.16 744)" stroke="black" stroke-width="2"/>
<line y1="-1" x2="28.6309" y2="-1" transform="matrix(-1 0 0 1 568.58 743)" stroke="black" stroke-width="2"/>
<line y1="-1" x2="20.21" y2="-1" transform="matrix(-1 0 0 1 597.211 743)" stroke="black" stroke-width="2"/>
<line x1="76.6648" y1="233.061" x2="80.6922" y2="226.149" stroke="black" stroke-width="2" stroke-linecap="round"/>
<line x1="56.818" y1="211.458" x2="63.7442" y2="207.455" stroke="black" stroke-width="2" stroke-linecap="round"/>
<line x1="48.0162" y1="181.499" x2="56.0151" y2="181.629" stroke="black" stroke-width="2" stroke-linecap="round"/>
<line x1="1" y1="-1" x2="9" y2="-1" transform="matrix(-0.999988 0.00494317 0.00494317 0.999988 159.274 186.889)" stroke="black" stroke-width="2" stroke-linecap="round"/>
<line x1="1" y1="-1" x2="9" y2="-1" transform="matrix(-0.86578 0.500425 0.500425 0.86578 150.823 158.278)" stroke="black" stroke-width="2" stroke-linecap="round"/>
<line x1="1" y1="-1" x2="9" y2="-1" transform="matrix(-0.484934 0.874551 0.874551 0.484934 129.249 134.942)" stroke="black" stroke-width="2" stroke-linecap="round"/>
<line x1="56.9855" y1="154.996" x2="64.344" y2="158.135" stroke="black" stroke-width="2" stroke-linecap="round"/>
<line x1="1" y1="-1" x2="9" y2="-1" transform="matrix(-0.119128 0.992879 0.992879 0.119128 103.291 128)" stroke="black" stroke-width="2" stroke-linecap="round"/>
<path d="M73.2642 134.96L78.0182 143.185" stroke="black" stroke-width="2" stroke-linecap="round"/>
<path d="M87.8091 504.5C100.809 478.5 161.811 452 205.31 458.5C205.31 458.5 209.81 458.5 245.31 473C276.81 481 290.807 508 322.31 531C306.31 534 301.81 544.5 301.81 544.5C301.81 544.5 314.39 558 311.81 582.5C309.231 607 296.81 624 293.81 655.5C290.81 687 290.807 713 290.807 713L158.308 713C160.328 694.48 163.936 636.726 164.549 593.5C148.851 578.293 92.4921 569.342 90.3692 593.092C90.353 593.565 90.3325 594.034 90.3076 594.5C90.3076 594.019 90.3284 593.549 90.3692 593.092C91.3264 565.153 77.3117 525.496 87.8091 504.5Z" fill="#4286F5" fill-opacity="0.75"/>
<path d="M90.3076 594.5C90.3076 569 148.549 578 164.549 593.5M163.81 547.5C165.551 572.5 163.81 606.5 163.81 635M301.81 544.5C301.81 544.5 306.31 534 322.31 531" stroke="black" stroke-width="2"/>
<path d="M239.251 482.067C239.115 484.99 237.512 487.756 234.622 490.257C231.73 492.76 227.585 494.966 222.465 496.752C212.227 500.325 198.192 502.19 182.792 501.476C167.392 500.763 153.59 497.61 143.726 493.106C138.793 490.854 134.869 488.275 132.222 485.516C129.575 482.758 128.234 479.855 128.369 476.933C128.505 474.01 130.108 471.244 132.998 468.743C135.89 466.24 140.035 464.034 145.155 462.248C155.393 458.675 169.428 456.81 184.828 457.524C200.227 458.237 214.03 461.39 223.894 465.894C228.827 468.146 232.75 470.725 235.398 473.484C238.045 476.242 239.386 479.145 239.251 482.067Z" fill="white" stroke="black"/>
<path opacity="0.25" d="M110.427 358.679C87.8099 315 178.31 315.822 178.31 278.5" stroke="white" stroke-width="2" stroke-linecap="round"/>
<path opacity="0.25" d="M117.81 355.5C138.81 313 185.713 312.345 189.31 280" stroke="white" stroke-width="2" stroke-linecap="round"/>
<path d="M101.81 362.5C73.3011 406.089 34.3101 423.5 83.3169 473.911C58.309 467.5 55.3092 467 32.3093 461C31.3098 454 32.1417 451.368 33.8098 445.5C43.8626 410.135 71.3546 396.455 101.81 362.5Z" fill="white" fill-opacity="0.25"/>
<path d="M141.312 424.031C141.312 420.563 207.313 447.5 207.311 450C207.31 452.5 207.31 460.5 207.81 467.5C208.31 472.5 209.31 485 209.31 485C209.31 485 148.61 474 144.11 472C144.11 472 141.312 427.5 141.312 424.031Z" fill="white"/>
<path d="M139.81 398L144.309 471.966" stroke="black"/>
<path d="M207.31 417.985C206.31 444.5 207.31 457.5 209.31 484.985" stroke="black"/>
<path d="M140.81 413C141.31 420.5 140.57 423.283 141.308 423.5C141.966 423.693 159.31 429.532 173.31 434.5C185.81 438.935 207.81 450 207 449.538C206.19 449.076 208 418.5 207 417C166.81 427 141.31 399.5 140.31 398C139.309 396.5 140.443 407.5 140.81 413Z" fill="black"/>
<path d="M140.81 413C141.31 420.5 140.57 423.283 141.308 423.5C141.966 423.693 159.31 429.532 173.31 434.5C185.81 438.935 207.81 450 207 449.538C206.19 449.076 208 418.5 207 417C166.81 427 141.31 399.5 140.31 398C139.309 396.5 140.443 407.5 140.81 413Z" fill="white" fill-opacity="0.2"/>
<path d="M91.31 588.5C108.31 566.5 157.31 584.5 164.812 593.5L163.81 634.5C196.81 620.5 209.31 614.5 230.81 600C233.31 607.5 233.977 627.207 236.31 651C213.31 664 101.81 774 101.81 673L91.31 588.5Z" fill="white"/>
<path d="M163.81 634.5L164.812 593.5C157.31 584.5 108.31 566.5 91.31 588.5L101.81 673M163.81 634.5C151.31 645 115.809 644 101.81 673M163.81 634.5C196.81 620.5 209.31 614.5 230.81 600C233.31 607.5 233.977 627.207 236.31 651C213.31 664 101.81 774 101.81 673" stroke="black"/>
<path d="M241.028 631.991C240.295 641.893 238.164 650.683 235.36 656.88C233.955 659.984 232.416 662.361 230.864 663.907C229.308 665.457 227.886 666.037 226.645 665.945C225.405 665.853 224.083 665.07 222.773 663.308C221.465 661.55 220.293 658.973 219.361 655.695C217.5 649.153 216.687 640.145 217.421 630.243C218.154 620.341 220.285 611.551 223.089 605.354C224.493 602.249 226.032 599.872 227.584 598.326C229.14 596.777 230.563 596.196 231.803 596.288C233.044 596.38 234.365 597.164 235.676 598.926C236.984 600.683 238.156 603.261 239.088 606.538C240.948 613.081 241.761 622.089 241.028 631.991Z" stroke="#EA4235" stroke-width="3"/>
<path d="M281.395 487.723C271.81 487.723 271.81 516.5 249.395 535.723C263.31 539 262.226 539 271.81 539C293.81 518.5 293.811 487.723 281.395 487.723Z" fill="black"/>
<path d="M281.395 487.723C271.81 487.723 271.81 516.5 249.395 535.723C263.31 539 262.226 539 271.81 539C293.81 518.5 293.811 487.723 281.395 487.723Z" fill="white" fill-opacity="0.2"/>
<path d="M227.81 533.042C248.81 495.5 301.31 515.5 303.308 524.5C303.308 540.5 263.31 518 245.81 535.5C273.81 531 287.611 548.5 285.111 561C285.111 573 285.81 579 281.81 582.5C275.81 610 257.396 599.25 252.81 590C252.81 608.5 264.31 642 236.312 651.042C230.31 600 229.31 575.5 227.81 533.042Z" fill="white"/>
<path d="M285.111 561C287.611 548.5 273.81 531 245.81 535.5C263.31 518 303.308 540.5 303.308 524.5C301.31 515.5 248.81 495.5 227.81 533.042C229.31 575.5 230.31 600 236.312 651.042C264.31 642 252.81 608.5 252.81 590M285.111 561C278.111 553 271.111 540.131 243.611 551M285.111 561C285.111 573 285.81 579 281.81 582.5M281.81 582.5C278.81 572 269.31 558 245.81 568.5M281.81 582.5C275.81 610 257.396 599.25 252.81 590M262.31 586.5C254.102 579.785 250.08 584.496 252.81 590" stroke="black"/>
<path d="M321.163 530.642L364.814 573.642C374.31 562 392.31 545.5 399.31 527.5C400.31 514.5 386.31 502 382.81 480.5C381.31 459 377.31 430.5 386.31 430.5C402.81 437.5 396.309 458.5 396.309 487C401.34 485.839 411.687 469.928 423.265 453C440.548 427.73 460.575 400.195 469.752 416.086C470.436 416.805 470.965 417.923 471.312 419.5C472.312 426.5 458.812 454.5 453.812 459C455.312 463 459.812 482 455.312 493C447.216 505.608 440.178 525.753 432.99 547.5C413.097 607.686 392.06 680.136 344.314 639C322.513 618.5 305.314 607.5 305.314 607.5C315.789 590.332 314.313 561 302.313 544.5C302.313 539.5 309.813 533.5 321.163 530.642Z" fill="white"/>
<path d="M344.314 639C331.813 612.5 342.965 596 364.814 573.642M344.314 639C322.513 618.5 305.314 607.5 305.314 607.5C315.789 590.332 314.313 561 302.313 544.5C302.313 539.5 309.813 533.5 321.163 530.642L364.814 573.642M344.314 639C409.312 695 424.812 540.5 455.312 493C459.812 482 455.312 463 453.812 459M364.814 573.642C374.31 562 392.31 545.5 399.31 527.5C400.31 514.5 386.31 502 382.81 480.5C381.31 459 377.31 430.5 386.31 430.5C402.81 437.5 396.309 458.5 396.309 487C409.31 484 457.81 382.5 471.312 419.5M453.812 459C451.006 451.521 458.312 427.7 455.312 425C453.312 423.2 434.123 440 448.312 477.5M453.812 459C458.812 454.5 472.312 426.5 471.312 419.5M448.312 477.5C452.096 487.5 436.919 496.943 428.812 510C418.856 526.036 418.312 544 432.99 547.5M448.312 477.5C444.81 473.5 444.128 475.5 431.81 461M471.312 419.5C466.31 415.5 454.81 436.5 454.364 442M471.312 419.5C466.81 399 431.257 456 431.81 461M431.81 461C428.81 458 427.493 455.5 423.265 453M443.509 458.5C442.31 460 439.81 463 437.689 468" stroke="black"/>
<path d="M375.81 413L219.809 713L232.81 713L387.81 413L375.81 413Z" fill="black" stroke="black"/>
<path d="M405.728 409.412L475.81 560L462.31 560L395.81 412L405.728 409.412Z" fill="black" stroke="black"/>
<path d="M408.81 373V356L373.31 360.5V377.5C389.81 400 409.31 378.5 408.81 373Z" fill="black" stroke="black"/>
<path d="M419.811 400.5C419.811 386 423.81 361.5 409.337 360C409.337 363 409.337 360 409.309 364.962C413.311 364 411.81 394.538 411.81 404C415.311 403.038 417.81 402 419.811 400.5Z" fill="white" stroke="black"/>
<path d="M366.31 400.5C364.037 395.5 374.31 390.5 386.31 391V387C396.81 389 404.31 383 408.81 374V365C413.81 365 411.81 395.5 411.81 404C397.81 410.5 368.81 406 366.31 400.5Z" fill="black"/>
<path d="M366.31 400.5C364.037 395.5 374.31 390.5 386.31 391V387C396.81 389 404.31 383 408.81 374V365C413.81 365 411.81 395.5 411.81 404C397.81 410.5 368.81 406 366.31 400.5Z" fill="white" fill-opacity="0.2"/>
<path d="M366.31 400.5C364.037 395.5 374.31 390.5 386.31 391V387C396.81 389 404.31 383 408.81 374V365C413.81 365 411.81 395.5 411.81 404C397.81 410.5 368.81 406 366.31 400.5Z" stroke="black"/>
<path d="M366.31 410C390.31 419 410.31 416 419.81 409C419.81 404.5 419.81 405 419.81 401C409.31 406 387.81 412 366.31 400.5V410Z" fill="white" stroke="black"/>
<path d="M371.31 403V412" stroke="black"/>
<path d="M376.81 405V413" stroke="black"/>
<path d="M381.81 406V414" stroke="black"/>
<path d="M386.81 407V415" stroke="black"/>
<path d="M391.81 407V415.5" stroke="black"/>
<path d="M396.81 407V415.5" stroke="black"/>
<path d="M402.81 406V415" stroke="black"/>
<path d="M408.81 405V414" stroke="black"/>
<path d="M414.81 403V412" stroke="black"/>
<circle cx="102.31" cy="182.5" r="36.5" fill="white" stroke="black" stroke-width="2"/>
<circle cx="102.31" cy="182.5" r="31.5" fill="white" stroke="black" stroke-width="2"/>
<path d="M124.977 168.529C126.81 170 127.31 172.5 127.31 175M101.977 155.529C110.31 155.529 114.81 158 118.81 162" stroke="black" stroke-width="2"/>
<path d="M127.401 210L120.81 215.149L144.902 245.99C149.81 247.5 152.81 245 151.493 240.841L127.401 210Z" fill="black"/>
<path d="M400.31 372V358H407.81V372C407.81 375 401.81 386 392.81 386C396.31 384 400.31 375 400.31 372Z" fill="white"/>
<circle cx="385.31" cy="370.5" r="6.5" stroke="white" stroke-width="2"/>
<line x1="381.224" y1="367" x2="388.81" y2="374.586" stroke="white" stroke-width="2" stroke-linecap="round"/>
<path d="M473.142 830.109C470.143 830.109 461.143 842.123 473.142 842.123L761.632 842.123C772.643 842.123 764.643 830.109 761.631 830.109L473.142 830.109Z" fill="#E5EAE4" stroke="black"/>
<path d="M476.454 830C466.5 830 464 842.5 472.5 842.5H539.454C539.953 834 533.953 834.5 518.453 834.5C509.453 834.5 508.453 830 516.454 830H476.454Z" fill="black"/>
<path d="M574 787.98L585 787.98L565 829.48L553 829.48L574 787.98Z" fill="black"/>
<path d="M564.815 828.98L585.309 788.48L662.713 788.48L643.683 828.98L564.815 828.98Z" fill="#E5EAE4" stroke="black"/>
<path d="M419.267 575.854C418.09 569.691 422.815 563.98 429.089 563.98H755.967C760.687 563.98 764.764 567.28 765.747 571.896L809.425 776.896C810.751 783.118 806.007 788.98 799.645 788.98H468.217C463.418 788.98 459.295 785.569 458.395 780.854L419.267 575.854Z" fill="black"/>
<path d="M425.851 573.822C424.69 567.949 429.184 562.48 435.171 562.48H762.466C766.924 562.48 770.782 565.579 771.743 569.932L815.329 767.432C816.638 773.362 812.124 778.98 806.052 778.98H474.217C469.68 778.98 465.777 775.772 464.897 771.322L425.851 573.822Z" fill="#E5EAE4" stroke="black"/>
<path d="M433.024 579.838C431.843 574.243 436.112 568.98 441.83 568.98H757.026C761.225 568.98 764.865 571.883 765.8 575.976L800.734 728.976C802.02 734.61 797.739 739.98 791.959 739.98H474.11C469.856 739.98 466.182 737 465.304 732.838L433.024 579.838Z" fill="white" stroke="black" stroke-width="2"/>
<path d="M480.902 656.945L469.121 602.945L738.604 602.945L751.368 656.945L480.902 656.945Z" stroke="black"/>
<path d="M480.902 656.945L469.121 602.945L738.604 602.945L751.368 656.945L480.902 656.945Z" stroke="white" stroke-opacity="0.5"/>
<circle cx="469" cy="602.979" r="3.5" fill="black"/>
<circle cx="469" cy="602.979" r="3.5" fill="white" fill-opacity="0.5"/>
<circle cx="469" cy="602.979" r="3.5" stroke="black"/>
<circle cx="469" cy="602.979" r="3.5" stroke="white" stroke-opacity="0.5"/>
<circle cx="481" cy="657.445" r="3.5" fill="black"/>
<circle cx="481" cy="657.445" r="3.5" fill="white" fill-opacity="0.5"/>
<circle cx="481" cy="657.445" r="3.5" stroke="black"/>
<circle cx="481" cy="657.445" r="3.5" stroke="white" stroke-opacity="0.5"/>
<circle cx="605" cy="602.445" r="3.5" fill="black"/>
<circle cx="605" cy="602.445" r="3.5" fill="white" fill-opacity="0.5"/>
<circle cx="605" cy="602.445" r="3.5" stroke="black"/>
<circle cx="605" cy="602.445" r="3.5" stroke="white" stroke-opacity="0.5"/>
<circle cx="751" cy="656.979" r="3.5" fill="black"/>
<circle cx="751" cy="656.979" r="3.5" fill="white" fill-opacity="0.5"/>
<circle cx="751" cy="656.979" r="3.5" stroke="black"/>
<circle cx="751" cy="656.979" r="3.5" stroke="white" stroke-opacity="0.5"/>
<circle cx="738" cy="603.445" r="3.5" fill="black"/>
<circle cx="738" cy="603.445" r="3.5" fill="white" fill-opacity="0.5"/>
<circle cx="738" cy="603.445" r="3.5" stroke="black"/>
<circle cx="738" cy="603.445" r="3.5" stroke="white" stroke-opacity="0.5"/>
<path d="M539.913 733.5L509.606 576.5H564.59L595.89 733.5H539.913Z" stroke="black"/>
<path d="M539.913 733.5L509.606 576.5H564.59L595.89 733.5H539.913Z" stroke="white" stroke-opacity="0.5"/>
<mask id="mask8_519_7634" style="mask-type:alpha" maskUnits="userSpaceOnUse" x="509" y="576" width="87" height="158">
<path d="M539.739 733.5L509.605 576.5H564.269L595.391 733.5H539.739Z" fill="#C4C4C4"/>
<path d="M539.739 733.5L509.605 576.5H564.269L595.391 733.5H539.739Z" stroke="black"/>
<path d="M539.739 733.5L509.605 576.5H564.269L595.391 733.5H539.739Z" stroke="white" stroke-opacity="0.5"/>
</mask>
<g mask="url(#mask8_519_7634)">
<line x1="417.646" y1="661.068" x2="559.068" y2="519.646" stroke="black"/>
<line x1="417.646" y1="661.068" x2="559.068" y2="519.646" stroke="white" stroke-opacity="0.5"/>
<line x1="420.475" y1="663.896" x2="561.896" y2="522.475" stroke="black"/>
<line x1="420.475" y1="663.896" x2="561.896" y2="522.475" stroke="white" stroke-opacity="0.5"/>
<line x1="423.303" y1="666.725" x2="564.725" y2="525.303" stroke="black"/>
<line x1="423.303" y1="666.725" x2="564.725" y2="525.303" stroke="white" stroke-opacity="0.5"/>
<line x1="426.132" y1="669.553" x2="567.553" y2="528.132" stroke="black"/>
<line x1="426.132" y1="669.553" x2="567.553" y2="528.132" stroke="white" stroke-opacity="0.5"/>
<line x1="428.96" y1="672.382" x2="570.382" y2="530.96" stroke="black"/>
<line x1="428.96" y1="672.382" x2="570.382" y2="530.96" stroke="white" stroke-opacity="0.5"/>
<line x1="431.789" y1="675.21" x2="573.21" y2="533.789" stroke="black"/>
<line x1="431.789" y1="675.21" x2="573.21" y2="533.789" stroke="white" stroke-opacity="0.5"/>
<line x1="434.617" y1="678.038" x2="576.038" y2="536.617" stroke="black"/>
<line x1="434.617" y1="678.038" x2="576.038" y2="536.617" stroke="white" stroke-opacity="0.5"/>
<line x1="437.446" y1="680.867" x2="578.867" y2="539.445" stroke="black"/>
<line x1="437.446" y1="680.867" x2="578.867" y2="539.445" stroke="white" stroke-opacity="0.5"/>
<line x1="440.274" y1="683.695" x2="581.695" y2="542.274" stroke="black"/>
<line x1="440.274" y1="683.695" x2="581.695" y2="542.274" stroke="white" stroke-opacity="0.5"/>
<line x1="443.102" y1="686.524" x2="584.524" y2="545.102" stroke="black"/>
<line x1="443.102" y1="686.524" x2="584.524" y2="545.102" stroke="white" stroke-opacity="0.5"/>
<line x1="445.931" y1="689.352" x2="587.352" y2="547.931" stroke="black"/>
<line x1="445.931" y1="689.352" x2="587.352" y2="547.931" stroke="white" stroke-opacity="0.5"/>
<line x1="448.759" y1="692.181" x2="590.181" y2="550.759" stroke="black"/>
<line x1="448.759" y1="692.181" x2="590.181" y2="550.759" stroke="white" stroke-opacity="0.5"/>
<line x1="451.588" y1="695.009" x2="593.009" y2="553.588" stroke="black"/>
<line x1="451.588" y1="695.009" x2="593.009" y2="553.588" stroke="white" stroke-opacity="0.5"/>
<line x1="454.416" y1="697.837" x2="595.837" y2="556.416" stroke="black"/>
<line x1="454.416" y1="697.837" x2="595.837" y2="556.416" stroke="white" stroke-opacity="0.5"/>
<line x1="457.244" y1="700.666" x2="598.666" y2="559.245" stroke="black"/>
<line x1="457.244" y1="700.666" x2="598.666" y2="559.245" stroke="white" stroke-opacity="0.5"/>
<line x1="460.073" y1="703.494" x2="601.494" y2="562.073" stroke="black"/>
<line x1="460.073" y1="703.494" x2="601.494" y2="562.073" stroke="white" stroke-opacity="0.5"/>
<line x1="462.901" y1="706.323" x2="604.323" y2="564.901" stroke="black"/>
<line x1="462.901" y1="706.323" x2="604.323" y2="564.901" stroke="white" stroke-opacity="0.5"/>
<line x1="465.73" y1="709.151" x2="607.151" y2="567.73" stroke="black"/>
<line x1="465.73" y1="709.151" x2="607.151" y2="567.73" stroke="white" stroke-opacity="0.5"/>
<line x1="468.558" y1="711.98" x2="609.979" y2="570.558" stroke="black"/>
<line x1="468.558" y1="711.98" x2="609.979" y2="570.558" stroke="white" stroke-opacity="0.5"/>
<line x1="471.387" y1="714.808" x2="612.808" y2="573.387" stroke="black"/>
<line x1="471.387" y1="714.808" x2="612.808" y2="573.387" stroke="white" stroke-opacity="0.5"/>
<line x1="474.215" y1="717.636" x2="615.636" y2="576.215" stroke="black"/>
<line x1="474.215" y1="717.636" x2="615.636" y2="576.215" stroke="white" stroke-opacity="0.5"/>
<line x1="477.043" y1="720.465" x2="618.465" y2="579.043" stroke="black"/>
<line x1="477.043" y1="720.465" x2="618.465" y2="579.043" stroke="white" stroke-opacity="0.5"/>
<line x1="479.872" y1="723.293" x2="621.293" y2="581.872" stroke="black"/>
<line x1="479.872" y1="723.293" x2="621.293" y2="581.872" stroke="white" stroke-opacity="0.5"/>
<line x1="482.7" y1="726.122" x2="624.122" y2="584.7" stroke="black"/>
<line x1="482.7" y1="726.122" x2="624.122" y2="584.7" stroke="white" stroke-opacity="0.5"/>
<line x1="485.529" y1="728.95" x2="626.95" y2="587.529" stroke="black"/>
<line x1="485.529" y1="728.95" x2="626.95" y2="587.529" stroke="white" stroke-opacity="0.5"/>
<line x1="488.357" y1="731.779" x2="629.779" y2="590.357" stroke="black"/>
<line x1="488.357" y1="731.779" x2="629.779" y2="590.357" stroke="white" stroke-opacity="0.5"/>
<line x1="491.186" y1="734.607" x2="632.607" y2="593.186" stroke="black"/>
<line x1="491.186" y1="734.607" x2="632.607" y2="593.186" stroke="white" stroke-opacity="0.5"/>
<line x1="494.014" y1="737.435" x2="635.435" y2="596.014" stroke="black"/>
<line x1="494.014" y1="737.435" x2="635.435" y2="596.014" stroke="white" stroke-opacity="0.5"/>
<line x1="496.842" y1="740.264" x2="638.264" y2="598.842" stroke="black"/>
<line x1="496.842" y1="740.264" x2="638.264" y2="598.842" stroke="white" stroke-opacity="0.5"/>
<line x1="499.671" y1="743.092" x2="641.092" y2="601.671" stroke="black"/>
<line x1="499.671" y1="743.092" x2="641.092" y2="601.671" stroke="white" stroke-opacity="0.5"/>
<line x1="502.499" y1="745.921" x2="643.921" y2="604.499" stroke="black"/>
<line x1="502.499" y1="745.921" x2="643.921" y2="604.499" stroke="white" stroke-opacity="0.5"/>
<line x1="505.328" y1="748.749" x2="646.749" y2="607.328" stroke="black"/>
<line x1="505.328" y1="748.749" x2="646.749" y2="607.328" stroke="white" stroke-opacity="0.5"/>
<line x1="508.156" y1="751.577" x2="649.578" y2="610.156" stroke="black"/>
<line x1="508.156" y1="751.577" x2="649.578" y2="610.156" stroke="white" stroke-opacity="0.5"/>
<line x1="510.985" y1="754.406" x2="652.406" y2="612.985" stroke="black"/>
<line x1="510.985" y1="754.406" x2="652.406" y2="612.985" stroke="white" stroke-opacity="0.5"/>
<line x1="513.813" y1="757.234" x2="655.234" y2="615.813" stroke="black"/>
<line x1="513.813" y1="757.234" x2="655.234" y2="615.813" stroke="white" stroke-opacity="0.5"/>
<line x1="516.641" y1="760.063" x2="658.063" y2="618.641" stroke="black"/>
<line x1="516.641" y1="760.063" x2="658.063" y2="618.641" stroke="white" stroke-opacity="0.5"/>
<line x1="519.47" y1="762.891" x2="660.891" y2="621.47" stroke="black"/>
<line x1="519.47" y1="762.891" x2="660.891" y2="621.47" stroke="white" stroke-opacity="0.5"/>
<line x1="522.298" y1="765.72" x2="663.72" y2="624.298" stroke="black"/>
<line x1="522.298" y1="765.72" x2="663.72" y2="624.298" stroke="white" stroke-opacity="0.5"/>
<line x1="525.127" y1="768.548" x2="666.548" y2="627.127" stroke="black"/>
<line x1="525.127" y1="768.548" x2="666.548" y2="627.127" stroke="white" stroke-opacity="0.5"/>
<line x1="527.955" y1="771.376" x2="669.376" y2="629.955" stroke="black"/>
<line x1="527.955" y1="771.376" x2="669.376" y2="629.955" stroke="white" stroke-opacity="0.5"/>
<line x1="530.783" y1="774.205" x2="672.205" y2="632.784" stroke="black"/>
<line x1="530.783" y1="774.205" x2="672.205" y2="632.784" stroke="white" stroke-opacity="0.5"/>
<line x1="533.612" y1="777.033" x2="675.033" y2="635.612" stroke="black"/>
<line x1="533.612" y1="777.033" x2="675.033" y2="635.612" stroke="white" stroke-opacity="0.5"/>
<line x1="536.44" y1="779.862" x2="677.862" y2="638.44" stroke="black"/>
<line x1="536.44" y1="779.862" x2="677.862" y2="638.44" stroke="white" stroke-opacity="0.5"/>
<line x1="539.269" y1="782.69" x2="680.69" y2="641.269" stroke="black"/>
<line x1="539.269" y1="782.69" x2="680.69" y2="641.269" stroke="white" stroke-opacity="0.5"/>
<line x1="542.097" y1="785.519" x2="683.518" y2="644.097" stroke="black"/>
<line x1="542.097" y1="785.519" x2="683.518" y2="644.097" stroke="white" stroke-opacity="0.5"/>
<line x1="544.926" y1="788.347" x2="686.347" y2="646.926" stroke="black"/>
<line x1="544.926" y1="788.347" x2="686.347" y2="646.926" stroke="white" stroke-opacity="0.5"/>
<line x1="547.754" y1="791.175" x2="689.175" y2="649.754" stroke="black"/>
<line x1="547.754" y1="791.175" x2="689.175" y2="649.754" stroke="white" stroke-opacity="0.5"/>
<line x1="550.582" y1="794.004" x2="692.004" y2="652.583" stroke="black"/>
<line x1="550.582" y1="794.004" x2="692.004" y2="652.583" stroke="white" stroke-opacity="0.5"/>
<line x1="553.411" y1="796.832" x2="694.832" y2="655.411" stroke="black"/>
<line x1="553.411" y1="796.832" x2="694.832" y2="655.411" stroke="white" stroke-opacity="0.5"/>
<line x1="556.239" y1="799.661" x2="697.661" y2="658.239" stroke="black"/>
<line x1="556.239" y1="799.661" x2="697.661" y2="658.239" stroke="white" stroke-opacity="0.5"/>
<line x1="559.068" y1="802.489" x2="700.489" y2="661.068" stroke="black"/>
<line x1="559.068" y1="802.489" x2="700.489" y2="661.068" stroke="white" stroke-opacity="0.5"/>
<line x1="561.896" y1="805.318" x2="703.318" y2="663.896" stroke="black"/>
<line x1="561.896" y1="805.318" x2="703.318" y2="663.896" stroke="white" stroke-opacity="0.5"/>
<line x1="564.725" y1="808.146" x2="706.146" y2="666.725" stroke="black"/>
<line x1="564.725" y1="808.146" x2="706.146" y2="666.725" stroke="white" stroke-opacity="0.5"/>
<line x1="567.553" y1="810.974" x2="708.974" y2="669.553" stroke="black"/>
<line x1="567.553" y1="810.974" x2="708.974" y2="669.553" stroke="white" stroke-opacity="0.5"/>
<line x1="570.382" y1="813.803" x2="711.803" y2="672.382" stroke="black"/>
<line x1="570.382" y1="813.803" x2="711.803" y2="672.382" stroke="white" stroke-opacity="0.5"/>
<line x1="573.21" y1="816.631" x2="714.631" y2="675.21" stroke="black"/>
<line x1="573.21" y1="816.631" x2="714.631" y2="675.21" stroke="white" stroke-opacity="0.5"/>
<line x1="576.038" y1="819.46" x2="717.46" y2="678.038" stroke="black"/>
<line x1="576.038" y1="819.46" x2="717.46" y2="678.038" stroke="white" stroke-opacity="0.5"/>
<line x1="578.867" y1="822.288" x2="720.288" y2="680.867" stroke="black"/>
<line x1="578.867" y1="822.288" x2="720.288" y2="680.867" stroke="white" stroke-opacity="0.5"/>
<line x1="581.695" y1="825.117" x2="723.117" y2="683.695" stroke="black"/>
<line x1="581.695" y1="825.117" x2="723.117" y2="683.695" stroke="white" stroke-opacity="0.5"/>
<line x1="584.524" y1="827.945" x2="725.945" y2="686.524" stroke="black"/>
<line x1="584.524" y1="827.945" x2="725.945" y2="686.524" stroke="white" stroke-opacity="0.5"/>
<line x1="587.352" y1="830.773" x2="728.773" y2="689.352" stroke="black"/>
<line x1="587.352" y1="830.773" x2="728.773" y2="689.352" stroke="white" stroke-opacity="0.5"/>
<line x1="590.18" y1="833.602" x2="731.602" y2="692.181" stroke="black"/>
<line x1="590.18" y1="833.602" x2="731.602" y2="692.181" stroke="white" stroke-opacity="0.5"/>
<line x1="593.009" y1="836.43" x2="734.43" y2="695.009" stroke="black"/>
<line x1="593.009" y1="836.43" x2="734.43" y2="695.009" stroke="white" stroke-opacity="0.5"/>
<line x1="595.837" y1="839.259" x2="737.259" y2="697.837" stroke="black"/>
<line x1="595.837" y1="839.259" x2="737.259" y2="697.837" stroke="white" stroke-opacity="0.5"/>
</g>
<circle cx="877.5" cy="541.5" r="27.5" fill="white" stroke="black" stroke-width="2"/>
<circle cx="872.5" cy="541.5" r="27.5" fill="white" stroke="black" stroke-width="2"/>
<path d="M768.378 554.596L776.036 536L774.114 560.503C774.07 561.066 773.6 561.5 773.036 561.5C769.477 561.5 767.023 557.887 768.378 554.596Z" fill="white" stroke="black" stroke-width="2"/>
<path d="M809.943 613.333L814.943 641.015C831.434 633.424 872.434 612.924 888.434 602.924C888.434 592.424 887.934 587.424 886.934 581.424C881.934 586.424 876.434 590.044 864.434 588.924C826.934 585.424 833.935 531.924 829.434 513.424C815.434 509.424 790.934 496.424 783.934 490.424C778.984 495.374 775.757 526.349 774.016 552.924C772.942 569.305 772.434 584.014 772.434 589.924C778.434 601.924 785.934 616.242 809.943 613.333Z" fill="white"/>
<path d="M809.943 613.333L814.943 641.015C831.434 633.424 872.434 612.924 888.434 602.924C888.434 592.424 887.934 587.424 886.934 581.424C881.934 586.424 876.434 590.044 864.434 588.924C826.934 585.424 833.935 531.924 829.434 513.424C815.434 509.424 790.934 496.424 783.934 490.424C778.984 495.374 775.757 526.349 774.016 552.924C772.942 569.305 772.434 584.014 772.434 589.924C778.434 601.924 785.934 616.242 809.943 613.333ZM809.943 613.333C826.433 611.335 827.933 610.424 836.433 604.924" stroke="black" stroke-width="2"/>
<path d="M790.5 521.426C786 518 783 516 777.5 513.5C774.784 514.631 774 516.5 774.262 518.574C780 521 782.5 522.5 787.262 526.5C790 527.5 792.243 522.753 790.5 521.426Z" fill="black"/>
<circle cx="783.5" cy="536.5" r="3.5" fill="black"/>
<path d="M811.192 508.439C785.192 504.439 747.692 449.226 803.687 458.657C805.191 448.226 811.192 439.726 818.692 455.726C838.191 434.226 858.192 449.226 866.192 466.726C886.692 461.726 907.691 475.727 901.191 497.726C890.691 545.226 906.192 586.227 872.692 591.727C857.907 596.929 832.692 581.227 837.192 546.227C809.192 543.227 803.727 519.975 811.192 508.439Z" fill="black" stroke="black" stroke-width="2"/>
<path d="M803.348 460.641C801 468 798.5 475.5 807 481.5C829.5 494 848 489 869.5 502C880.5 508.651 878.152 537.359 894 549.5" stroke="white" stroke-opacity="0.25" stroke-width="2" stroke-linecap="round"/>
<path d="M784.816 476.877C786 483.5 796.5 491.578 806 494C831.5 500.5 845.5 500.346 853.5 514.5C860 526 863.5 572.5 891 569.5" stroke="white" stroke-opacity="0.25" stroke-width="2" stroke-linecap="round"/>
<path d="M781.5 466.5C781 462.914 785.5 461 787.586 461" stroke="white" stroke-opacity="0.25" stroke-width="2" stroke-linecap="round"/>
<path d="M833.081 457.874C834 454 842.5 454 844 457.874" stroke="white" stroke-opacity="0.25" stroke-width="2" stroke-linecap="round"/>
<circle cx="818.5" cy="553.969" r="27.5" fill="white" stroke="black" stroke-width="2"/>
<circle cx="813.5" cy="553.969" r="27.5" fill="white" stroke="black" stroke-width="2"/>
<path d="M869.999 465.469C856.999 472.469 834.848 489.468 831 529.469C825.5 526.469 814.5 524.969 806.652 527.469C810.5 487.469 851.499 454.469 869.999 465.469Z" fill="white" stroke="black" stroke-width="2"/>
<path d="M797 554.5C797 563.613 804.387 571 813.5 571C822.613 571 830 563.613 830 554.5C830 545.387 822.613 538 813.5 538" stroke="black" stroke-width="2"/>
<path d="M599.519 650.066C627.019 641.566 654 668.5 652.5 708C659.5 717 659.019 730.066 655.519 742.566L668.02 766.066L696.7 788.951C696.7 788.951 677.501 812 676.02 814.566C674.539 817.133 667.7 837.066 681.519 853.066C661.02 842.566 628.518 795.066 606.02 761.066C602.02 747.566 604.033 733.21 604.219 725.808C603.991 725.951 603.756 726.04 603.519 726.066C582.286 728.47 568.115 690.749 600.872 685.176C602.351 684.621 604.698 684.411 607.922 684.515C615.056 684.323 623.84 685.36 634.519 688.066C634.518 672.221 614.519 665.566 599.519 664.066C594.519 663.566 592.553 653.634 599.519 650.066Z" fill="white"/>
<path d="M634.519 688.066C634.519 672.221 614.519 665.566 599.519 664.066C594.519 663.566 592.553 653.634 599.519 650.066C627.019 641.566 654 668.5 652.5 708C659.5 717 659.019 730.066 655.519 742.566L668.02 766.066L696.7 788.951C696.7 788.951 677.501 812 676.02 814.566C674.539 817.133 667.7 837.066 681.519 853.066C661.02 842.566 628.518 795.066 606.02 761.066C602.02 747.566 604.033 733.21 604.219 725.808M634.519 688.066C620.519 685.566 604.519 680.566 628.519 699.066M634.519 688.066C595.519 681.102 589.019 683.566 613.019 702.066M634.52 688.066C561.519 669.566 577.019 729.066 603.519 726.066C607.281 725.64 610.519 709.566 595.019 709.566" stroke="black" stroke-width="2"/>
<path d="M662.628 751.408C669.299 760.307 667.947 772.427 659.827 778.514C651.707 784.601 639.694 782.501 633.023 773.602C626.352 764.703 627.704 752.583 635.824 746.496C643.944 740.409 655.957 742.509 662.628 751.408Z" fill="white" stroke="black" stroke-width="2"/>
<path d="M663.628 748.408C670.299 757.307 668.947 769.427 660.827 775.514C652.707 781.601 640.694 779.501 634.023 770.602C627.352 761.703 628.704 749.583 636.824 743.496C644.944 737.409 656.957 739.509 663.628 748.408Z" fill="white" stroke="black" stroke-width="2"/>
<path d="M651.084 757.769C652.108 759.136 651.846 760.9 650.718 761.746C649.59 762.592 647.823 762.348 646.798 760.982C645.774 759.616 646.036 757.851 647.164 757.005C648.292 756.16 650.059 756.403 651.084 757.769Z" stroke="black" stroke-width="2"/>
<path d="M621.322 782.699C623.822 785.199 625.822 786.699 629.222 792.499C629.222 786.499 633.021 781.299 637.122 778.499C633.722 772.699 631.722 771.199 629.222 768.699C625.121 771.499 621.322 776.699 621.322 782.699Z" fill="black" stroke="black" stroke-width="2"/>
<path d="M881.042 816.856C943.52 706.5 1067.02 740.5 1048.02 822L1025.02 900L856.02 900L881.042 816.856Z" fill="black" stroke="black"/>
<path d="M889.521 816.856C952 706.5 1075.5 740.5 1056.5 822L1033.5 900L864.5 900L889.521 816.856Z" fill="#E5EAE4" stroke="black"/>
<path d="M1100.76 761.971C1112.76 668.971 1100.76 617.484 1100.76 524.903C1126.26 507.971 1144.26 500.471 1175.51 481.902L1246.76 478.971C1273.76 504.971 1317.76 514.971 1332.76 543.971C1335.76 577.471 1334.26 589.971 1334.26 626.471C1310.76 632.471 1291.26 634.971 1261.3 626.471C1267.28 675.024 1278.24 713.57 1314.26 761.971L1100.76 761.971Z" fill="#109D58" fill-opacity="0.75"/>
<path d="M1100.76 524.903C1126.26 507.971 1144.26 500.471 1175.51 481.902L1246.76 478.971M1314.26 761.971C1266.26 697.471 1262.76 650.471 1256.26 573.971C1258.67 595.971 1259.08 605.971 1261.3 626.471C1291.26 634.971 1310.76 632.471 1334.26 626.471" stroke="black"/>
<path d="M1094.43 417.772L1014.55 450.042C1013.79 450.347 1013.69 451.399 1014.3 451.943C1017.18 454.527 1017.81 457.959 1017.91 461.755C1017.93 462.463 1018.65 462.947 1019.3 462.682L1101.12 429.736C1110.93 425.736 1105.43 412.736 1094.43 417.772Z" fill="#4286F5" stroke="black" stroke-width="2"/>
<ellipse cx="1031.24" cy="525.02" rx="12.5068" ry="27" transform="rotate(-57.6259 1031.24 525.02)" fill="black"/>
<path d="M1007.98 516.207L976.77 605.094L1017.3 620.5L1053.3 540.5C1045.3 549 1010.8 533 1007.98 516.207Z" fill="white" stroke="black"/>
<path d="M1073.5 424.11C1074.86 425.32 1076.01 426.732 1076.89 428.345C1079.39 432.961 1076.99 443.498 1069.74 451.69C1078.48 442.914 1084.35 434.261 1090.89 439.49C1098.39 445.49 1077.39 461.99 1077.39 472.99C1077.39 487.49 1068.39 509.99 1044.39 520.99C1037.74 523.5 1032.74 523.5 1027.74 523.5L1022.24 523.5C1019.74 516 1019.74 514.99 1018.39 507.989L1017.89 447.49C1023.13 427.482 1042.8 417.955 1058.39 418.708C1068.39 393.49 1103.89 421.49 1096.39 429.99C1090.96 437.456 1083.22 429.948 1073.5 424.11Z" fill="white"/>
<path d="M1046.89 420.489C1056.89 425.489 1072.39 433.989 1063.39 457.452M1063.39 457.452C1075.89 447.489 1082.89 433.09 1090.89 439.49C1098.39 445.49 1077.39 461.99 1077.39 472.99C1077.39 487.49 1068.39 509.99 1044.39 520.99C1037.74 523.5 1032.74 523.5 1027.74 523.5M1063.39 457.452C1060.39 469.99 1061.89 473.99 1064.89 482.49M1029.89 428.956C1046.39 428.345 1063.39 437.83 1054.39 461.293M1027.74 523.5C1045.74 511.5 1035.55 469.498 1030.39 459.99C1066.39 472.49 1082.05 437.853 1076.89 428.345C1067.39 410.845 1025.89 416.99 1017.89 447.49L1018.39 507.989C1019.74 514.99 1019.74 516 1022.24 523.5L1027.74 523.5ZM1096.39 429.99C1103.89 421.49 1068.39 393.49 1058.39 418.708C1075.39 419.49 1088.39 440.99 1096.39 429.99Z" stroke="black"/>
<path d="M1030.87 442.464L1009.69 450.826C1009.11 451.059 1008.88 451.773 1009.2 452.318C1011.12 455.564 1012.3 459.026 1013.37 462.71C1013.53 463.276 1014.15 463.582 1014.7 463.368L1036.28 454.947C1036.38 454.908 1036.47 454.852 1036.55 454.783C1043.17 449.156 1037.2 440.772 1030.87 442.464Z" fill="#4286F5" stroke="black" stroke-width="2"/>
<path d="M988.833 467.175L1012.88 463.859C1013.37 463.79 1013.74 463.367 1013.74 462.868C1013.67 458.348 1013.01 453.947 1008.77 451.521C1008.45 451.339 1008.05 451.371 1007.75 451.582L988.122 465.366C987.263 465.969 987.794 467.318 988.833 467.175Z" fill="black" stroke="black" stroke-width="2"/>
<path d="M996.242 461.004C997.742 463.004 997.742 463.004 997.742 465.004" stroke="#E5EAE4" stroke-width="3"/>
<path d="M915.668 536.649C914.541 533.409 916.937 530.023 920.368 530.007L1127.82 529.059C1129.92 529.049 1131.81 530.359 1132.54 532.335L1179.9 661.319C1181.1 664.582 1178.68 668.042 1175.21 668.042H964.906C962.777 668.042 960.882 666.695 960.183 664.684L915.668 536.649Z" fill="black"/>
<path d="M915.101 541.117C914.003 537.883 916.398 534.526 919.812 534.51L1122.83 533.559C1124.95 533.549 1126.85 534.877 1127.56 536.872L1173.97 666.355C1175.14 669.613 1172.73 673.042 1169.27 673.042H963.453C961.311 673.042 959.407 671.678 958.718 669.649L915.101 541.117Z" fill="#E5EAE4"/>
<path d="M1023.87 534.043C1016.64 583.961 950.145 577.461 933.87 596.043C926.87 575.542 917.87 551.542 914.87 540.542C914.37 537.042 916.87 535.042 918.87 534.542C920.87 534.542 998.37 534.042 1023.87 534.043Z" fill="white"/>
<path d="M1067.74 673.323C998.87 638.542 998.37 638.542 939.37 613.042C946.37 633.042 954.37 657.542 958.87 670.042C958.87 670.542 960.87 673.042 962.869 673.042C964.869 673.042 1042.24 673.323 1067.74 673.323Z" fill="#C1C9C2"/>
<ellipse cx="1039.68" cy="607.21" rx="14.6232" ry="15.1048" transform="rotate(-13.8573 1039.68 607.21)" stroke="black" stroke-width="2"/>
<path d="M793.878 672.674C769.378 692.174 757.878 722.674 726.505 746.342C721.878 767.674 761.878 805.674 790.378 798.174C796.877 803.674 809.32 857.674 806.32 897.674L855.32 897.674C869.378 863.174 872.878 746.342 995.378 743.174C995.378 707.174 985.378 672.674 964.378 656.674C944.878 647.674 926.878 640.674 911.878 633.674C861.878 628.174 816.822 655.365 793.878 672.674Z" fill="white"/>
<path d="M793.878 672.674C769.378 692.174 757.878 722.674 726.505 746.342C721.878 767.674 761.878 805.674 790.378 798.174C796.877 803.674 809.32 857.674 806.32 897.674L855.32 897.674C869.378 863.174 872.878 746.342 995.378 743.174C995.378 707.174 985.378 672.674 964.378 656.674C944.878 647.674 926.878 640.674 911.878 633.674C861.878 628.174 816.822 655.365 793.878 672.674Z" fill="#EA4235" fill-opacity="0.75"/>
<path d="M790.378 798.174C799.377 786.174 809.053 774.5 819.053 764M822.553 760C829.053 753 822.553 760 829.053 753" stroke="black" stroke-width="2"/>
<path d="M829.086 753.141C819.086 763.641 798.911 786.815 789.911 798.815C796.411 804.315 808.853 858.315 805.853 898.315L854.854 898.315C870.086 856.141 818.586 825.641 829.086 753.141Z" fill="#EA4235" fill-opacity="0.75"/>
<path d="M912.053 633.5C862.053 628 818.497 654.295 795.553 671.603C827.053 667.278 825.229 671.603 837.229 677.429C868.729 673.103 929.728 666.326 964.553 657C944.053 647.5 928.553 641.5 912.053 633.5Z" fill="#EA4235" fill-opacity="0.75"/>
<path d="M912.053 633.5C862.053 628 818.497 654.295 795.553 671.603C827.053 667.278 825.229 671.603 837.229 677.429C868.729 673.103 929.728 666.326 964.553 657C944.053 647.5 928.553 641.5 912.053 633.5Z" fill="white" fill-opacity="0.5"/>
<path d="M802.553 652C820.053 629 849.553 604 892.053 601L910.553 632C864.553 629 827.053 648 802.553 665.5V652Z" fill="white" stroke="black" stroke-width="2"/>
<path d="M810.358 642.235C811.387 648.403 813.082 651.668 816.053 656.5" stroke="#EA4235" stroke-opacity="0.75" stroke-width="2"/>
<path d="M822.364 630.253C822.887 638.903 824.076 643.151 828.553 649.5" stroke="#EA4235" stroke-opacity="0.75" stroke-width="2"/>
<path d="M836.364 620.253C835.387 629.903 837.053 636 843.553 643" stroke="#EA4235" stroke-opacity="0.75" stroke-width="2"/>
<path d="M851.553 611.5C849.571 623 850.553 628.5 856.553 638.5" stroke="#EA4235" stroke-opacity="0.75" stroke-width="2"/>
<path d="M885.387 601.903C889.387 617.403 893.387 622.403 902.887 631.903M861.553 607.5L871.553 634.5M875.553 603.5C876.554 617.5 881.554 624 889.053 632.5" stroke="#EA4235" stroke-opacity="0.75" stroke-width="2"/>
<path d="M719.553 858.5L779.553 801C753.669 792.5 732.553 779.5 726.937 753.32L676.937 813.32C659.553 855.5 701.053 870.5 719.553 858.5Z" fill="white" stroke="black" stroke-width="2"/>
<path d="M1182.49 511.91C1145.5 507.5 1156 488.5 1176.49 478.91C1203 465.5 1215 458.5 1245 448.5C1245 459.5 1245 462.5 1245 476.5C1260.5 492.5 1217 509.5 1182.49 511.91Z" fill="white"/>
<path d="M1263 429C1260.5 445.5 1254 447.5 1245 435L1245 448L1177.5 492L1177.5 453C1213 457.5 1234 437 1240.5 423.5L1241.5 402.5C1227 405.5 1215.5 402.5 1209 391.5C1203.98 383 1215 346.5 1264.5 373.017L1263 429Z" fill="black" stroke="black"/>
<path d="M1166.01 450.767C1188.51 461.456 1240.72 443.333 1240.72 417.333C1267.22 409.833 1246.72 379.833 1231.22 392.833C1228.72 394.93 1228.72 398.833 1229.72 402.333C1208.22 404.333 1211 376.5 1219 366.5C1201.5 366.5 1205 367 1192.72 368.833L1150.72 344.333C1150.72 380.833 1113.51 425.833 1166.01 450.767Z" fill="white"/>
<path d="M1240.72 417.333C1240.72 443.333 1188.51 461.456 1166.01 450.767C1113.51 425.833 1150.72 380.833 1150.72 344.333L1192.72 368.833C1205 367 1201.5 366.5 1219 366.5C1211 376.5 1208.22 404.333 1229.72 402.333C1228.72 398.833 1228.72 394.93 1231.22 392.833C1246.72 379.833 1267.22 409.833 1240.72 417.333ZM1240.72 417.333C1236.72 415.833 1234.22 414.833 1230.22 411.833M1240.22 411.833C1239.22 408.333 1232.72 401.833 1234.72 402.833C1236.72 403.833 1246.22 401.333 1247.72 397.333" stroke="black" stroke-width="2"/>
<path d="M1159 349C1138.5 332 1152 346 1131.5 329C1092.93 328.171 1104.92 360.698 1132.95 355C1138.72 353.827 1140 353.5 1159 349Z" fill="black" stroke="black" stroke-width="2"/>
<path d="M1163.7 320.48C1206.98 316.346 1228.52 345.443 1237.94 363.836C1238.65 365.22 1237.53 366.813 1235.98 366.715C1221.84 365.822 1204.78 367.543 1193.68 368.915C1193.23 368.97 1192.78 368.872 1192.4 368.642C1169.37 354.821 1154.34 345.656 1128.6 333.187C1126.85 332.34 1127.2 329.726 1129.1 329.359C1141.68 326.933 1149.53 324.862 1163.3 320.562C1163.43 320.521 1163.57 320.493 1163.7 320.48Z" fill="white" stroke="black" stroke-width="2"/>
<path d="M1261 364H1286C1289.5 369.5 1289.5 371.5 1286 376H1261V364Z" fill="black"/>
<path d="M1259.93 372.603C1245.17 368.697 1247.86 369.361 1239.78 367.229C1239.22 367.082 1238.74 366.684 1238.48 366.168C1215.55 320.601 1183.2 319.021 1161.81 320.681C1160.13 320.811 1159.06 318.917 1160.06 317.563C1203.64 258.638 1284.91 312.604 1262.28 371.407C1261.92 372.34 1260.89 372.858 1259.93 372.603Z" fill="white"/>
<path d="M1259.93 372.603C1245.17 368.697 1247.86 369.361 1239.78 367.229C1239.22 367.082 1238.74 366.684 1238.48 366.168C1215.55 320.601 1183.2 319.021 1161.81 320.681C1160.13 320.811 1159.06 318.917 1160.06 317.563C1203.64 258.638 1284.91 312.604 1262.28 371.407C1261.92 372.34 1260.89 372.858 1259.93 372.603Z" fill="#109D58" fill-opacity="0.75" stroke="black" stroke-width="2"/>
<path d="M1235.5 300.5C1251.5 327.574 1245 349 1238.5 366.5" stroke="black" stroke-width="2" stroke-linecap="round"/>
<ellipse cx="1160.86" cy="369.077" rx="2.5" ry="4.5" transform="rotate(19.5419 1160.86 369.077)" fill="black"/>
<ellipse cx="1189.86" cy="380.077" rx="2.5" ry="4.5" transform="rotate(19.5419 1189.86 380.077)" fill="black"/>
<path d="M1151.55 357.168C1158 364 1165.5 363.5 1172.55 371.168" stroke="black" stroke-width="2"/>
<path d="M1182.32 369.626C1188.76 376.458 1196.26 375.958 1203.32 383.626" stroke="black" stroke-width="2"/>
<path d="M1171 377.5L1161.82 397.949C1160.78 400.26 1161.64 402.981 1163.81 404.285L1167.5 406.5" stroke="black" stroke-width="2" stroke-linecap="round"/>
<path d="M1163.05 412.051C1170 419 1175.5 417 1181.05 412.951" stroke="black" stroke-width="2" stroke-linecap="round"/>
<line x1="1245" y1="437" x2="1245" y2="478" stroke="black" stroke-width="2" stroke-linecap="round"/>
<line x1="1178" y1="461" x2="1178" y2="502" stroke="black" stroke-width="2" stroke-linecap="round"/>
<path d="M1182.49 511.91C1145.5 507.5 1156 488.5 1176.49 478.91C1203 465.5 1215 458.5 1245 448.5C1245 459.5 1245 462.5 1245 476.5C1260.5 492.5 1217 509.5 1182.49 511.91Z" fill="white"/>
<path d="M1263 429C1260.5 445.5 1254 447.5 1245 435L1245 448L1177.5 492L1177.5 453C1213 457.5 1234 437 1240.5 423.5L1241.5 402.5C1227 405.5 1215.5 402.5 1209 391.5C1203.98 383 1215 346.5 1264.5 373.017L1263 429Z" fill="black" stroke="black"/>
<path d="M1166.01 450.767C1188.51 461.456 1240.72 443.333 1240.72 417.333C1267.22 409.833 1246.72 379.833 1231.22 392.833C1228.72 394.93 1228.72 398.833 1229.72 402.333C1208.22 404.333 1211 376.5 1219 366.5C1201.5 366.5 1205 367 1192.72 368.833L1150.72 344.333C1150.72 380.833 1113.51 425.833 1166.01 450.767Z" fill="white"/>
<path d="M1240.72 417.333C1240.72 443.333 1188.51 461.456 1166.01 450.767C1113.51 425.833 1150.72 380.833 1150.72 344.333L1192.72 368.833C1205 367 1201.5 366.5 1219 366.5C1211 376.5 1208.22 404.333 1229.72 402.333C1228.72 398.833 1228.72 394.93 1231.22 392.833C1246.72 379.833 1267.22 409.833 1240.72 417.333ZM1240.72 417.333C1236.72 415.833 1234.22 414.833 1230.22 411.833M1240.22 411.833C1239.22 408.333 1232.72 401.833 1234.72 402.833C1236.72 403.833 1246.22 401.333 1247.72 397.333" stroke="black" stroke-width="2"/>
<path d="M1159 349C1138.5 332 1152 346 1131.5 329C1092.93 328.171 1104.92 360.698 1132.95 355C1138.72 353.827 1140 353.5 1159 349Z" fill="black" stroke="black" stroke-width="2"/>
<path d="M1163.7 320.48C1206.98 316.346 1228.52 345.443 1237.94 363.836C1238.65 365.22 1237.53 366.813 1235.98 366.715C1221.84 365.822 1204.78 367.543 1193.68 368.915C1193.23 368.97 1192.78 368.872 1192.4 368.642C1169.37 354.821 1154.34 345.656 1128.6 333.187C1126.85 332.34 1127.2 329.726 1129.1 329.359C1141.68 326.933 1149.53 324.862 1163.3 320.562C1163.43 320.521 1163.57 320.493 1163.7 320.48Z" fill="white" stroke="black" stroke-width="2"/>
<path d="M1261 364H1286C1289.5 369.5 1289.5 371.5 1286 376H1261V364Z" fill="black"/>
<path d="M1259.93 372.603C1245.17 368.697 1247.86 369.361 1239.78 367.229C1239.22 367.082 1238.74 366.684 1238.48 366.168C1215.55 320.601 1183.2 319.021 1161.81 320.681C1160.13 320.811 1159.06 318.917 1160.06 317.563C1203.64 258.638 1284.91 312.604 1262.28 371.407C1261.92 372.34 1260.89 372.858 1259.93 372.603Z" fill="white"/>
<path d="M1259.93 372.603C1245.17 368.697 1247.86 369.361 1239.78 367.229C1239.22 367.082 1238.74 366.684 1238.48 366.168C1215.55 320.601 1183.2 319.021 1161.81 320.681C1160.13 320.811 1159.06 318.917 1160.06 317.563C1203.64 258.638 1284.91 312.604 1262.28 371.407C1261.92 372.34 1260.89 372.858 1259.93 372.603Z" fill="#109D58" fill-opacity="0.75" stroke="black" stroke-width="2"/>
<path d="M1235.5 300.5C1251.5 327.574 1245 349 1238.5 366.5" stroke="black" stroke-width="2" stroke-linecap="round"/>
<ellipse cx="1160.86" cy="369.077" rx="2.5" ry="4.5" transform="rotate(19.5419 1160.86 369.077)" fill="black"/>
<ellipse cx="1189.86" cy="380.077" rx="2.5" ry="4.5" transform="rotate(19.5419 1189.86 380.077)" fill="black"/>
<path d="M1151.55 357.168C1158 364 1165.5 363.5 1172.55 371.168" stroke="black" stroke-width="2"/>
<path d="M1182.32 369.626C1188.76 376.458 1196.26 375.958 1203.32 383.626" stroke="black" stroke-width="2"/>
<path d="M1171 377.5L1161.82 397.949C1160.78 400.26 1161.64 402.981 1163.81 404.285L1167.5 406.5" stroke="black" stroke-width="2" stroke-linecap="round"/>
<path d="M1163.05 412.051C1170 419 1175.5 417 1181.05 412.951" stroke="black" stroke-width="2" stroke-linecap="round"/>
<line x1="1245" y1="437" x2="1245" y2="478" stroke="black" stroke-width="2" stroke-linecap="round"/>
<line x1="1178" y1="461" x2="1178" y2="502" stroke="black" stroke-width="2" stroke-linecap="round"/>
<path d="M1270.5 673.5C1300.5 682.545 1325 682.324 1334.5 704.324C1334.11 674.431 1334.89 656.393 1334.5 626.5C1311.5 633.545 1295 634.545 1262 626.5C1263.56 643.683 1266 655.5 1270.5 673.5Z" fill="white" stroke="black"/>
<path d="M1335.88 710.745C1337.38 722.745 1329.88 737.798 1313.38 744.745C1303.88 748.745 1242.88 725.745 1201.88 701.245C1212.38 692.745 1228.88 677.745 1221.62 653.305C1282.88 687.245 1330.82 670.245 1335.88 710.745Z" fill="white" stroke="black"/>
<ellipse cx="1211.11" cy="676.743" rx="12.5068" ry="27" transform="rotate(23.1393 1211.11 676.743)" fill="black"/>
<path d="M1220.5 684.205C1197.21 638.14 1186.74 603.758 1172.79 566.894C1158.29 539.894 1117.79 550.894 1117.79 568.394C1117.79 583.594 1154.33 566.099 1164.7 586.631C1165.01 587.237 1164.54 587.959 1163.86 588.027C1132.2 591.184 1123.69 606.174 1125.14 621.394C1125.65 626.696 1127.36 632.026 1129.72 636.894C1136.15 650.141 1147.39 659.963 1152.19 656.47C1152.25 656.422 1152.31 656.36 1152.36 656.294C1155.44 652.239 1153.3 648.598 1150.98 646.105C1150.61 645.702 1150.62 645.049 1151.03 644.683C1165.71 631.612 1180.05 680.775 1202.03 696.71C1202.2 696.832 1202.4 696.895 1202.61 696.892C1213.48 696.757 1217.54 689.844 1220.45 685.198C1220.64 684.899 1220.65 684.52 1220.5 684.205Z" fill="white"/>
<path d="M1165.29 601.894C1151.79 599.894 1133.79 605.394 1125.14 621.394M1167.79 622.894C1158.29 616.394 1139.72 622.394 1129.72 636.894M1172.79 566.894C1186.74 603.758 1197.21 638.14 1220.5 684.205C1220.65 684.52 1220.64 684.899 1220.45 685.198C1217.54 689.844 1213.48 696.757 1202.61 696.892C1202.4 696.895 1202.2 696.832 1202.03 696.71C1180.05 680.775 1165.71 631.612 1151.03 644.683C1150.62 645.049 1150.61 645.702 1150.98 646.105C1153.3 648.598 1155.44 652.239 1152.36 656.294C1152.31 656.36 1152.25 656.422 1152.19 656.47C1140.57 664.93 1091.14 595.278 1163.86 588.027C1164.54 587.959 1165.01 587.237 1164.7 586.631C1154.33 566.099 1117.79 583.594 1117.79 568.394C1117.79 550.894 1158.29 539.894 1172.79 566.894Z" stroke="black" stroke-width="2"/>
<rect x="287" y="675" width="113" height="168" rx="2" fill="white"/>
<rect x="287" y="675" width="113" height="168" rx="2" fill="#FABD03"/>
<rect x="306" y="697" width="75" height="57" rx="2" fill="white"/>
<line x1="316" y1="707" x2="371" y2="707" stroke="black" stroke-width="2"/>
<line x1="316" y1="719" x2="371" y2="719" stroke="black" stroke-width="2"/>
<line x1="316" y1="730" x2="371" y2="730" stroke="black" stroke-width="2"/>
<line x1="316" y1="741" x2="371" y2="741" stroke="black" stroke-width="2"/>
<rect x="400" y="681" width="36" height="156" fill="white"/>
<line x1="410" y1="678.006" x2="409" y2="840.006" stroke="#C1C9C2" stroke-width="2"/>
<line x1="417" y1="678.006" x2="416" y2="840.006" stroke="#C1C9C2" stroke-width="2"/>
<line x1="424" y1="678.006" x2="423" y2="840.006" stroke="#C1C9C2" stroke-width="2"/>
<path d="M401 678H434C435.105 678 436 678.895 436 680V838C436 839.105 435.105 840 434 840H401" stroke="black" stroke-width="5" stroke-linecap="round"/>
<path d="M115.812 839.715C147.278 829.896 147.278 803.715 136.812 786.034L33.7796 786.034C23.3136 803.715 23.3137 829.896 54.7798 839.715L115.812 839.715Z" fill="white" stroke="black" stroke-width="2"/>
<mask id="mask9_519_7634" style="mask-type:alpha" maskUnits="userSpaceOnUse" x="28" y="786" width="117" height="54">
<path d="M35.0657 786.534L137.526 786.534C142.614 795.25 145.111 805.967 142.553 815.696C139.984 825.468 132.287 834.343 116.736 839.215L55.8561 839.215C40.3055 834.343 32.6084 825.468 30.0387 815.696C27.4806 805.967 29.9775 795.25 35.0657 786.534Z" fill="white" stroke="black"/>
</mask>
<g mask="url(#mask9_519_7634)">
<circle cx="26" cy="830" r="40" fill="black"/>
<circle cx="26" cy="830" r="25" fill="white"/>
</g>
<mask id="mask10_519_7634" style="mask-type:alpha" maskUnits="userSpaceOnUse" x="25" y="787" width="119" height="56">
<path d="M114.812 841.715C146.278 831.896 146.278 805.715 135.812 788.034L32.7796 788.034C22.3136 805.715 22.3137 831.896 53.7798 841.715L114.812 841.715Z" fill="white" stroke="black" stroke-width="2"/>
</mask>
<g mask="url(#mask10_519_7634)">
<circle cx="130" cy="778" r="40" fill="black"/>
<circle cx="130" cy="778" r="25" fill="white"/>
</g>
<path d="M34 773H136.5V785H34V773Z" stroke="black" stroke-width="2"/>
<line x1="33" y1="779" x2="137" y2="779" stroke="black" stroke-width="2"/>
<path d="M93.6061 772.366C105.106 750.366 141.106 715.366 153.606 720.366C162.106 723.766 138.606 753.366 126.606 772.366L93.6061 772.366Z" fill="black" stroke="black" stroke-width="2"/>
<path d="M93.6061 772.366C105.106 750.366 141.106 715.366 153.606 720.366C162.106 723.766 138.606 753.366 126.606 772.366L93.6061 772.366Z" fill="black" stroke="black" stroke-width="2"/>
<path d="M42.6954 772.68C30.9797 751.982 5.26053 725.926 12.6954 719.68C20.7606 714.426 62.2606 745.926 71.2605 772.68L42.6954 772.68Z" fill="black" stroke="black" stroke-width="2"/>
<path d="M42.6954 772.68C30.9797 751.982 5.26053 725.926 12.6954 719.68C20.7606 714.426 62.2606 745.926 71.2605 772.68L42.6954 772.68Z" fill="black" stroke="black" stroke-width="2"/>
<path d="M78.319 658.665C89.8198 658.665 106.323 725.709 106.323 772.209L87.821 772.209L69.8205 772.209C69.8205 726.709 63.8198 658.665 78.319 658.665Z" fill="white"/>
<path d="M78.319 658.665C85.8198 704.209 85.8198 727.209 87.821 772.209M78.319 658.665C89.8198 658.665 106.323 725.709 106.323 772.209L69.8205 772.209C69.8205 726.709 63.8198 658.665 78.319 658.665Z" stroke="black" stroke-width="2"/>
<path d="M78.319 658.665C89.8198 658.665 106.323 725.709 106.323 772.209L87.821 772.209L69.8205 772.209C69.8205 726.709 63.8198 658.665 78.319 658.665Z" fill="#109D58" fill-opacity="0.75"/>
<path d="M78.319 658.665C85.8198 704.209 85.8198 727.209 87.821 772.209M78.319 658.665C89.8198 658.665 106.323 725.709 106.323 772.209L69.8205 772.209C69.8205 726.709 63.8198 658.665 78.319 658.665Z" stroke="black" stroke-width="2"/>
<path d="M33.6824 771.867C21.7674 764.454 11.0411 749.456 14.1553 746.157C18.2479 742.712 44.2644 752.141 60.5559 768.964C61.7401 770.187 60.8418 772.157 59.1395 772.157L48.552 772.157L34.7121 772.157C34.3478 772.157 33.9917 772.059 33.6824 771.867Z" fill="white"/>
<path d="M14.1553 746.157C11.0411 749.456 21.7674 764.454 33.6824 771.867C33.9917 772.059 34.3478 772.157 34.7121 772.157L59.1395 772.157C60.8418 772.157 61.7401 770.187 60.5559 768.964C44.2644 752.141 18.2479 742.712 14.1553 746.157ZM14.1553 746.157C29.0533 754.352 39.5533 761.852 48.552 772.157" stroke="black" stroke-width="2"/>
<path d="M34.1553 772.157C22.0533 764.852 11 749.5 14.1553 746.157C18.5 742.5 47.5533 753.352 63.4489 772.157L48.552 772.157L34.1553 772.157Z" fill="#109D58" fill-opacity="0.75"/>
<path d="M14.1553 746.157C11 749.5 22.0533 764.852 34.1553 772.157L63.4489 772.157C47.5533 753.352 18.5 742.5 14.1553 746.157ZM14.1553 746.157C29.0533 754.352 39.5533 761.852 48.552 772.157" stroke="black" stroke-width="2"/>
<path d="M63.772 772.406C48.2142 739.674 13.7141 697.174 22.2138 690.406C36.2139 690.406 75.1566 708.674 88.6565 772.406L76.2143 772.406L63.772 772.406Z" fill="white"/>
<path d="M22.2138 690.406C13.7141 697.174 48.2142 739.674 63.772 772.406L76.2143 772.406M22.2138 690.406C36.2139 690.406 75.1566 708.674 88.6565 772.406L76.2143 772.406M22.2138 690.406C49.7142 715.174 62.2142 738.174 76.2143 772.406" stroke="black" stroke-width="2"/>
<path d="M63.772 772.406C48.2142 739.674 13.7141 697.174 22.2138 690.406C36.2139 690.406 75.1566 708.674 88.6565 772.406L76.2143 772.406L63.772 772.406Z" fill="#109D58" fill-opacity="0.75"/>
<path d="M22.2138 690.406C13.7141 697.174 48.2142 739.674 63.772 772.406L76.2143 772.406M22.2138 690.406C36.2139 690.406 75.1566 708.674 88.6565 772.406L76.2143 772.406M22.2138 690.406C49.7142 715.174 62.2142 738.174 76.2143 772.406" stroke="black" stroke-width="2"/>
<path d="M136.611 681.143C146.111 685.143 135.111 752.143 102.611 772.367L90.6106 772.367L75.6931 772.367C77.1107 747.143 132.111 678.143 136.611 681.143Z" fill="white"/>
<path d="M136.611 681.143C146.111 685.143 135.111 752.143 102.611 772.367L75.6931 772.367C77.1107 747.143 132.111 678.143 136.611 681.143ZM136.611 681.143C131.111 715.643 88.6108 745.643 90.6106 772.367" stroke="black" stroke-width="2"/>
<path d="M136.611 681.143C146.111 685.143 135.111 752.143 102.611 772.367L90.6106 772.367L75.6931 772.367C77.1107 747.143 132.111 678.143 136.611 681.143Z" fill="#109D58" fill-opacity="0.75"/>
<path d="M136.611 681.143C146.111 685.143 135.111 752.143 102.611 772.367L75.6931 772.367C77.1107 747.143 132.111 678.143 136.611 681.143ZM136.611 681.143C131.111 715.643 88.6108 745.643 90.6106 772.367" stroke="black" stroke-width="2"/>
<path d="M98.4901 771.689C105.729 758.628 124.229 734.128 165.229 734.128C163.229 751.128 145.729 764.628 136.968 771.689L119.229 771.689L98.4901 771.689Z" fill="white"/>
<path d="M165.229 734.128C124.229 734.128 105.729 758.628 98.4901 771.689L136.968 771.689C145.729 764.628 163.229 751.128 165.229 734.128ZM165.229 734.128C139.729 747.128 129.729 757.628 119.229 771.689" stroke="black" stroke-width="2"/>
<path d="M98.4901 771.689C105.729 758.628 124.229 734.128 165.229 734.128C163.229 751.128 145.729 764.628 136.968 771.689L119.229 771.689L98.4901 771.689Z" fill="#109D58" fill-opacity="0.75"/>
<path d="M165.229 734.128C124.229 734.128 105.729 758.628 98.4901 771.689L136.968 771.689C145.729 764.628 163.229 751.128 165.229 734.128ZM165.229 734.128C139.729 747.128 129.729 757.628 119.229 771.689" stroke="black" stroke-width="2"/>
<path d="M1350.79 244.612C1354.36 243.257 1358.08 246.258 1357.5 250.04L1345.85 326.648C1345.26 330.465 1340.76 332.212 1337.76 329.785L1276.95 280.635C1273.95 278.209 1274.71 273.439 1278.32 272.071L1350.79 244.612Z" fill="#FABD03"/>
<circle cx="1372" cy="371" r="25" fill="#4286F5"/>
<circle cx="1372" cy="371" r="15" fill="white"/>
<circle cx="262.5" cy="233.5" r="37.5" fill="#FABD03"/>
<circle cx="262.5" cy="233.5" r="22.5" fill="white"/>
<circle cx="1317.5" cy="406.5" r="17.5" fill="#109D58"/>
<circle cx="230.5" cy="156.5" r="17.5" fill="#109D58"/>
<circle cx="344" cy="137" r="29" fill="#4286F5"/>
</svg>
