<svg width="789" height="543" viewBox="0 0 789 543" fill="none" xmlns="http://www.w3.org/2000/svg">
<g filter="url(#filter0_f_1_5)">
<path d="M639 271.5C639 239.456 613.525 208.709 568.123 185.953C522.72 163.198 461.066 150.277 396.584 150.004C332.101 149.731 270.013 162.128 223.837 184.495C177.66 206.863 151.135 237.389 150.036 269.429C148.936 301.469 173.353 332.427 217.968 355.564C262.584 378.7 323.786 392.141 388.25 392.96C452.713 393.779 515.218 381.91 562.155 359.937C609.092 337.964 636.66 307.667 638.858 275.641L394.5 271.5H639Z" fill="#F5B80D" fill-opacity="0.3"/>
</g>
<defs>
<filter id="filter0_f_1_5" x="-3.05176e-05" y="0" width="789" height="543" filterUnits="userSpaceOnUse" color-interpolation-filters="sRGB">
<feFlood flood-opacity="0" result="BackgroundImageFix"/>
<feBlend mode="normal" in="SourceGraphic" in2="BackgroundImageFix" result="shape"/>
<feGaussianBlur stdDeviation="75" result="effect1_foregroundBlur_1_5"/>
</filter>
</defs>
</svg>
