<svg width="108" height="148" viewBox="0 0 108 148" fill="none" xmlns="http://www.w3.org/2000/svg">
<path d="M74 6.19999C75.0667 4.33332 76.8667 3.06666 79.4 2.39999C82.0667 1.59999 85.4667 1.19999 89.6 1.19999C93.8667 1.19999 97.2667 1.66666 99.8 2.59999C102.333 3.39999 104.133 4.8 105.2 6.79999C106.267 8.66666 106.867 10.4 107 12C107.267 13.6 107.4 15.9333 107.4 19V130.2C107.4 135.4 106.733 139.267 105.4 141.8C104.2 144.2 102.267 145.8 99.6 146.6C97.0667 147.4 93.8667 147.8 90 147.8C86.1333 147.8 83.0667 147.467 80.8 146.8C78.5333 146.133 76.8 145.333 75.6 144.4C74.4 143.467 73.5333 142.133 73 140.4C72.2 138.133 71.8 134.667 71.8 130V105.6H17.6C8.26667 105.6 2.73333 103.067 1 98C0.333334 95.8667 1.19209e-07 93 1.19209e-07 89.4C1.19209e-07 85.8 0.2 83.1333 0.6 81.4L17.2 14.4C18 11.3333 18.6667 8.99999 19.2 7.4C19.8667 5.79999 21.0667 4.26666 22.8 2.8C24.6667 1.33333 27 0.59999 29.8 0.59999C32.6 0.59999 35.6667 1.06666 39 2C48.3333 4.53333 53 8.8 53 14.8C53 16.9333 52.5333 19.7333 51.6 23.2C51.4667 23.4667 51.4 23.6667 51.4 23.8L39.2 72.6H71.8V18C71.8 14.9333 71.8667 12.6667 72 11.2C72.2667 9.73333 72.9333 8.06666 74 6.19999Z" fill="url(#paint0_radial_375_953)"/>
<defs>
<radialGradient id="paint0_radial_375_953" cx="0" cy="0" r="1" gradientUnits="userSpaceOnUse" gradientTransform="translate(8.75079 147.669) rotate(-51.2366) scale(187.979 207.952)">
<stop stop-color="#DB4437"/>
<stop offset="1" stop-color="#FBBC04"/>
</radialGradient>
</defs>
</svg>
