<svg width="954" height="449" viewBox="0 0 954 449" fill="none" xmlns="http://www.w3.org/2000/svg">
<mask id="mask0_372_1014" style="mask-type:alpha" maskUnits="userSpaceOnUse" x="5" y="123" width="324" height="247">
<path d="M306.028 126.352C320.934 131.692 328.387 138.811 328.387 147.711C328.387 150.603 327.053 156.054 324.383 164.063L260.307 349.282C259.862 350.839 259.084 352.73 257.971 354.955C256.859 357.18 253.855 360.183 248.96 363.966C244.288 367.525 238.615 369.305 231.94 369.305C225.488 369.305 219.815 367.525 214.92 363.966C210.248 360.183 207.133 356.512 205.576 352.953L166.53 237.817C141.834 310.792 129.264 347.947 128.819 349.282C128.374 350.617 127.373 352.508 125.815 354.955C124.258 357.402 122.478 359.627 120.475 361.63C115.358 366.747 109.24 369.305 102.121 369.305C95.001 369.305 89.1051 367.637 84.433 364.299C79.9833 360.962 76.9797 357.625 75.4223 354.288L73.0862 349.282L8.67691 164.063C6.22957 156.721 5.00591 151.27 5.00591 147.711C5.00591 138.811 12.4591 131.803 27.3656 126.686C33.8177 124.461 39.6023 123.348 44.7194 123.348C50.0591 123.348 54.0638 125.128 56.7336 128.688C59.6259 132.248 62.1845 137.699 64.4093 145.041L101.119 256.506L137.496 146.709C140.61 137.365 146.284 130.913 154.516 127.353C158.075 125.796 162.636 125.017 168.198 125.017C173.983 125.017 179.323 126.908 184.217 130.69C189.112 134.25 192.227 137.81 193.562 141.37L231.94 257.173L268.65 145.041C270.43 139.924 271.876 136.141 272.989 133.694C274.101 131.247 276.104 128.911 278.996 126.686C282.111 124.238 285.893 123.015 290.343 123.015C294.792 123.015 300.021 124.127 306.028 126.352Z" fill="black"/>
</mask>
<g mask="url(#mask0_372_1014)">
<rect width="66.7119" height="324.44" rx="33.356" transform="matrix(0.949225 0.314598 0.31484 -0.949145 185.63 396.969)" fill="#0F9D58" fill-opacity="0.95"/>
<rect width="56.0614" height="282.52" rx="28.0307" transform="matrix(-0.949627 0.313384 -0.313626 -0.949547 270.716 374.698)" fill="#F4B400" fill-opacity="0.95"/>
<rect width="55.5271" height="293.655" rx="27.7636" transform="matrix(0.949225 0.314598 0.31484 -0.949145 62.8884 372.36)" fill="#DB4437" fill-opacity="0.95"/>
<rect width="66.4021" height="324.44" rx="33.2011" transform="matrix(-0.949225 0.314598 -0.31484 -0.949145 151.1 407.359)" fill="#4285F4" fill-opacity="0.95"/>
</g>
<mask id="mask1_372_1014" style="mask-type:alpha" maskUnits="userSpaceOnUse" x="625" y="123" width="324" height="247">
<path d="M647.972 126.352C633.066 131.692 625.613 138.811 625.613 147.711C625.613 150.603 626.947 156.054 629.617 164.063L693.693 349.282C694.138 350.839 694.916 352.73 696.029 354.955C697.141 357.18 700.145 360.183 705.04 363.966C709.712 367.525 715.385 369.305 722.06 369.305C728.512 369.305 734.185 367.525 739.08 363.966C743.752 360.183 746.867 356.512 748.424 352.953L787.47 237.817C812.166 310.792 824.736 347.947 825.181 349.282C825.626 350.617 826.627 352.508 828.185 354.955C829.742 357.402 831.522 359.627 833.525 361.63C838.642 366.747 844.76 369.305 851.879 369.305C858.999 369.305 864.895 367.637 869.567 364.299C874.017 360.962 877.02 357.625 878.578 354.288L880.914 349.282L945.323 164.063C947.77 156.721 948.994 151.27 948.994 147.711C948.994 138.811 941.541 131.803 926.634 126.686C920.182 124.461 914.398 123.348 909.281 123.348C903.941 123.348 899.936 125.128 897.266 128.688C894.374 132.248 891.816 137.699 889.591 145.041L852.881 256.506L816.504 146.709C813.39 137.365 807.716 130.913 799.484 127.353C795.925 125.796 791.364 125.017 785.802 125.017C780.017 125.017 774.677 126.908 769.783 130.69C764.888 134.25 761.773 137.81 760.438 141.37L722.06 257.173L685.35 145.041C683.57 139.924 682.124 136.141 681.011 133.694C679.899 131.247 677.896 128.911 675.004 126.686C671.889 124.238 668.107 123.015 663.657 123.015C659.208 123.015 653.979 124.127 647.972 126.352Z" fill="black"/>
</mask>
<g mask="url(#mask1_372_1014)">
<rect width="66.7119" height="324.44" rx="33.356" transform="matrix(-0.949225 0.314598 -0.31484 -0.949145 768.372 396.969)" fill="#0F9D58" fill-opacity="0.95"/>
<rect width="56.0614" height="282.52" rx="28.0307" transform="matrix(0.949627 0.313384 0.313626 -0.949547 683.286 374.698)" fill="#F4B400" fill-opacity="0.95"/>
<rect width="55.5271" height="293.655" rx="27.7636" transform="matrix(-0.949225 0.314598 -0.31484 -0.949145 891.113 372.36)" fill="#DB4437" fill-opacity="0.95"/>
<rect width="66.4021" height="324.44" rx="33.2011" transform="matrix(0.949225 0.314598 0.31484 -0.949145 802.9 407.359)" fill="#4285F4" fill-opacity="0.95"/>
</g>
<path fill-rule="evenodd" clip-rule="evenodd" d="M327.402 234.754C318.204 240.064 318.204 253.34 327.402 258.65L393.386 296.746C384.637 282.114 379.609 265.001 379.609 246.713C379.609 228.411 384.645 211.285 393.407 196.646L327.402 234.754ZM475.777 149.089C476.265 149.082 476.754 149.079 477.244 149.079C514.03 149.079 546.064 169.422 562.71 199.473V122.795C562.71 112.174 551.213 105.536 542.015 110.847L475.777 149.089ZM562.71 293.954C546.064 324.004 514.03 344.348 477.244 344.348C476.768 344.348 476.293 344.345 475.818 344.338L542.015 382.557C551.213 387.867 562.71 381.23 562.71 370.609V293.954Z" fill="#34A853" fill-opacity="0.9"/>
<path fill-rule="evenodd" clip-rule="evenodd" d="M574.863 248.515C574.874 247.916 574.879 247.315 574.879 246.713C574.879 210.015 554.632 178.046 524.7 161.367H601.282C611.902 161.367 618.54 172.864 613.23 182.061L574.863 248.515ZM527.599 330.378C512.897 339.246 495.666 344.348 477.244 344.348C458.989 344.348 441.903 339.338 427.288 330.617L465.427 396.675C470.737 405.873 484.012 405.873 489.323 396.675L527.599 330.378ZM379.618 248.051L341.519 182.061C336.209 172.864 342.847 161.367 353.467 161.367H429.789C399.856 178.046 379.609 210.015 379.609 246.713C379.609 247.16 379.612 247.606 379.618 248.051Z" fill="#FBBC04" fill-opacity="0.9"/>
<path fill-rule="evenodd" clip-rule="evenodd" d="M627.351 258.65C636.548 253.34 636.548 240.064 627.351 234.754L560.942 196.413C569.79 211.104 574.88 228.315 574.88 246.714C574.88 265.098 569.799 282.295 560.965 296.978L627.351 258.65ZM478.941 344.334C478.377 344.344 477.812 344.349 477.245 344.349C440.652 344.349 408.761 324.218 392.042 294.426V370.609C392.042 381.23 403.539 387.867 412.737 382.557L478.941 344.334ZM478.984 149.094L412.737 110.847C403.539 105.537 392.042 112.174 392.042 122.795V199.002C408.761 169.21 440.652 149.079 477.245 149.079C477.826 149.079 478.405 149.084 478.984 149.094Z" fill="#EA4335" fill-opacity="0.9"/>
<path fill-rule="evenodd" clip-rule="evenodd" d="M489.323 96.7276C484.013 87.5301 470.737 87.5301 465.427 96.7276L427.267 162.822C441.887 154.094 458.98 149.079 477.244 149.079C495.675 149.079 512.914 154.186 527.621 163.062L489.323 96.7276ZM574.862 244.886C574.874 245.494 574.879 246.103 574.879 246.714C574.879 283.394 554.652 315.35 524.743 332.036H601.282C611.903 332.036 618.54 320.539 613.23 311.341L574.862 244.886ZM429.746 332.036C399.837 315.35 379.61 283.394 379.61 246.714C379.61 246.259 379.613 245.805 379.619 245.352L341.52 311.341C336.209 320.539 342.847 332.036 353.468 332.036H429.746Z" fill="#4285F4" fill-opacity="0.9"/>
<path fill-rule="evenodd" clip-rule="evenodd" d="M533 180.997C496.807 150.292 442.604 154.684 411.823 190.775C417.999 183.684 428.746 182.857 435.938 188.958C443.188 195.109 444.079 205.972 437.929 213.222L437.931 213.224C456.336 191.53 488.805 188.814 510.555 207.109C510.611 207.157 510.667 207.205 510.723 207.252C517.973 213.403 528.837 212.512 534.988 205.262C541.138 198.012 540.248 187.149 532.999 180.998L533 180.997Z" fill="url(#paint0_linear_372_1014)"/>
<path fill-rule="evenodd" clip-rule="evenodd" d="M411.669 190.948L411.669 190.948C380.984 227.117 385.349 281.271 421.373 312.063L421.62 312.273L421.621 312.273C414.371 306.122 413.479 295.258 419.63 288.008C425.781 280.757 436.645 279.866 443.895 286.017L443.895 286.017C422.173 267.587 419.48 235.055 437.856 213.305C437.88 213.278 437.903 213.25 437.926 213.223C444.077 205.973 443.186 195.109 435.936 188.958C428.686 182.807 417.822 183.698 411.671 190.948C411.671 190.948 411.671 190.948 411.671 190.949L411.669 190.948Z" fill="url(#paint1_linear_372_1014)"/>
<path fill-rule="evenodd" clip-rule="evenodd" d="M421.626 312.273L421.626 312.274C457.792 342.956 511.94 338.594 542.733 302.578L542.951 302.322C536.8 309.572 525.936 310.463 518.686 304.312C511.436 298.161 510.545 287.297 516.696 280.047L516.696 280.047C498.268 301.768 465.74 304.463 443.989 286.093C443.96 286.068 443.931 286.043 443.902 286.018C436.651 279.867 425.788 280.758 419.637 288.008C413.486 295.258 414.377 306.122 421.626 312.273L421.626 312.273Z" fill="url(#paint2_linear_372_1014)"/>
<path fill-rule="evenodd" clip-rule="evenodd" d="M533.203 181.168L533.063 181.05C540.255 187.21 541.124 198.032 534.99 205.262C528.857 212.491 518.038 213.398 510.788 207.305C532.48 225.767 535.131 258.317 516.695 280.046L516.695 280.046C516.695 280.046 516.695 280.047 516.695 280.047C510.544 287.297 511.435 298.161 518.685 304.312C525.936 310.463 536.8 309.572 542.951 302.321C542.951 302.321 542.951 302.321 542.951 302.321L542.951 302.322L543.029 302.23C573.641 266.046 569.237 211.928 533.203 181.168Z" fill="url(#paint3_linear_372_1014)"/>
<path d="M111.98 39.0264H125.971V58.4393C123.872 59.1512 121.709 59.6806 119.482 60.0274C117.273 60.3742 114.8 60.5476 112.062 60.5476C107.9 60.5476 104.386 59.7171 101.52 58.056C98.6728 56.3949 96.5097 54.031 95.0312 50.9644C93.5526 47.8795 92.8133 44.2196 92.8133 39.9847C92.8133 35.8411 93.6256 32.2269 95.2502 29.142C96.8931 26.0571 99.2569 23.6658 102.342 21.9682C105.445 20.2524 109.169 19.3945 113.513 19.3945C115.74 19.3945 117.848 19.6044 119.838 20.0242C121.846 20.4258 123.708 21.0008 125.424 21.7492L123.644 25.8015C122.165 25.1627 120.532 24.615 118.743 24.1587C116.972 23.7024 115.138 23.4742 113.239 23.4742C109.972 23.4742 107.17 24.1496 104.833 25.5004C102.515 26.8511 100.735 28.7587 99.4942 31.2229C98.2712 33.6872 97.6597 36.6078 97.6597 39.9847C97.6597 43.3252 98.1982 46.2366 99.2752 48.7192C100.352 51.1834 102.031 53.1001 104.313 54.4691C106.595 55.8381 109.534 56.5227 113.13 56.5227C114.937 56.5227 116.488 56.4223 117.785 56.2215C119.081 56.0024 120.258 55.7469 121.317 55.4548V43.1883H111.98V39.0264ZM160.854 44.9406C160.854 47.4049 160.535 49.6045 159.896 51.5394C159.257 53.4743 158.335 55.108 157.131 56.4405C155.926 57.773 154.465 58.7953 152.75 59.5071C151.052 60.2008 149.126 60.5476 146.972 60.5476C144.964 60.5476 143.121 60.2008 141.441 59.5071C139.78 58.7953 138.338 57.773 137.115 56.4405C135.911 55.108 134.97 53.4743 134.295 51.5394C133.638 49.6045 133.309 47.4049 133.309 44.9406C133.309 41.655 133.866 38.8621 134.98 36.5621C136.093 34.2439 137.681 32.4824 139.744 31.2777C141.825 30.0547 144.298 29.4432 147.164 29.4432C149.902 29.4432 152.293 30.0547 154.338 31.2777C156.4 32.5007 157.998 34.2713 159.129 36.5895C160.279 38.8895 160.854 41.6732 160.854 44.9406ZM138.019 44.9406C138.019 47.3501 138.338 49.4402 138.977 51.2108C139.616 52.9814 140.602 54.3505 141.934 55.3179C143.267 56.2854 144.983 56.7691 147.082 56.7691C149.163 56.7691 150.869 56.2854 152.202 55.3179C153.553 54.3505 154.548 52.9814 155.186 51.2108C155.825 49.4402 156.145 47.3501 156.145 44.9406C156.145 42.5494 155.825 40.4867 155.186 38.7526C154.548 37.0002 153.562 35.6495 152.229 34.7003C150.897 33.7511 149.172 33.2765 147.054 33.2765C143.933 33.2765 141.642 34.3078 140.182 36.3705C138.74 38.4332 138.019 41.2899 138.019 44.9406ZM194.587 44.9406C194.587 47.4049 194.268 49.6045 193.629 51.5394C192.99 53.4743 192.068 55.108 190.864 56.4405C189.659 57.773 188.198 58.7953 186.483 59.5071C184.785 60.2008 182.859 60.5476 180.705 60.5476C178.697 60.5476 176.854 60.2008 175.174 59.5071C173.513 58.7953 172.071 57.773 170.848 56.4405C169.643 55.108 168.703 53.4743 168.028 51.5394C167.371 49.6045 167.042 47.4049 167.042 44.9406C167.042 41.655 167.599 38.8621 168.713 36.5621C169.826 34.2439 171.414 32.4824 173.477 31.2777C175.558 30.0547 178.031 29.4432 180.897 29.4432C183.635 29.4432 186.026 30.0547 188.071 31.2777C190.133 32.5007 191.731 34.2713 192.862 36.5895C194.012 38.8895 194.587 41.6732 194.587 44.9406ZM171.752 44.9406C171.752 47.3501 172.071 49.4402 172.71 51.2108C173.349 52.9814 174.335 54.3505 175.667 55.3179C177 56.2854 178.716 56.7691 180.815 56.7691C182.896 56.7691 184.602 56.2854 185.935 55.3179C187.286 54.3505 188.281 52.9814 188.919 51.2108C189.558 49.4402 189.878 47.3501 189.878 44.9406C189.878 42.5494 189.558 40.4867 188.919 38.7526C188.281 37.0002 187.295 35.6495 185.962 34.7003C184.63 33.7511 182.905 33.2765 180.787 33.2765C177.666 33.2765 175.375 34.3078 173.915 36.3705C172.473 38.4332 171.752 41.2899 171.752 44.9406ZM210.824 73.4713C206.881 73.4713 203.842 72.732 201.706 71.2535C199.571 69.7932 198.503 67.7396 198.503 65.0928C198.503 63.2127 199.096 61.6063 200.282 60.2738C201.487 58.9413 203.148 58.056 205.266 57.6179C204.481 57.2528 203.805 56.7052 203.24 55.975C202.692 55.2449 202.418 54.4052 202.418 53.456C202.418 52.3608 202.719 51.4025 203.322 50.581C203.942 49.7414 204.882 48.9382 206.142 48.1715C204.572 47.5327 203.294 46.4557 202.309 44.9406C201.341 43.4073 200.857 41.6276 200.857 39.6014C200.857 37.4475 201.305 35.6129 202.199 34.0979C203.094 32.5646 204.39 31.3963 206.087 30.5932C207.785 29.79 209.838 29.3884 212.248 29.3884C212.777 29.3884 213.307 29.4158 213.836 29.4706C214.384 29.5071 214.904 29.5709 215.397 29.6622C215.889 29.7352 216.318 29.8265 216.683 29.936H226.979V32.8658L221.448 33.5503C221.995 34.2622 222.452 35.1201 222.817 36.1241C223.182 37.128 223.364 38.2415 223.364 39.4645C223.364 42.4581 222.351 44.8402 220.325 46.6109C218.299 48.3632 215.515 49.2394 211.974 49.2394C211.134 49.2394 210.276 49.1664 209.4 49.0204C208.506 49.5132 207.821 50.0608 207.347 50.6632C206.89 51.2656 206.662 51.9592 206.662 52.7441C206.662 53.3282 206.836 53.7937 207.182 54.1405C207.547 54.4874 208.068 54.7429 208.743 54.9072C209.418 55.0532 210.231 55.1262 211.18 55.1262H216.464C219.732 55.1262 222.233 55.8108 223.967 57.1798C225.719 58.5488 226.595 60.5476 226.595 63.1762C226.595 66.4983 225.245 69.0447 222.543 70.8154C219.841 72.586 215.935 73.4713 210.824 73.4713ZM210.961 69.9118C213.443 69.9118 215.497 69.6563 217.122 69.1451C218.764 68.6523 219.987 67.9313 220.791 66.9821C221.612 66.0511 222.023 64.9376 222.023 63.6416C222.023 62.4369 221.749 61.5242 221.201 60.9036C220.654 60.3012 219.851 59.8996 218.792 59.6988C217.733 59.4798 216.437 59.3702 214.904 59.3702H209.701C208.351 59.3702 207.173 59.5802 206.169 60C205.165 60.4198 204.39 61.0405 203.842 61.8619C203.313 62.6833 203.048 63.7055 203.048 64.9285C203.048 66.5531 203.732 67.7852 205.101 68.6249C206.47 69.4828 208.424 69.9118 210.961 69.9118ZM212.138 45.9263C214.31 45.9263 215.944 45.3787 217.039 44.2835C218.135 43.1883 218.682 41.5911 218.682 39.4919C218.682 37.2467 218.126 35.5673 217.012 34.4538C215.899 33.3221 214.256 32.7562 212.084 32.7562C210.003 32.7562 208.396 33.3404 207.265 34.5086C206.151 35.6586 205.594 37.3471 205.594 39.574C205.594 41.6184 206.16 43.1883 207.292 44.2835C208.424 45.3787 210.039 45.9263 212.138 45.9263ZM237.465 60H232.893V17.3957H237.465V60ZM258.631 29.4432C261.186 29.4432 263.377 30.009 265.202 31.1408C267.027 32.2725 268.424 33.8606 269.391 35.905C270.359 37.9312 270.842 40.3042 270.842 43.024V45.8442H250.115C250.17 49.3672 251.046 52.0505 252.744 53.8941C254.441 55.7377 256.833 56.6596 259.918 56.6596C261.816 56.6596 263.495 56.4861 264.956 56.1393C266.416 55.7925 267.931 55.2814 269.501 54.606V58.6036C267.986 59.279 266.48 59.7718 264.983 60.0821C263.504 60.3925 261.752 60.5476 259.726 60.5476C256.842 60.5476 254.323 59.9635 252.169 58.7953C250.033 57.6088 248.372 55.8746 247.186 53.5929C245.999 51.3112 245.406 48.5184 245.406 45.2144C245.406 41.9835 245.944 39.1907 247.021 36.836C248.116 34.463 249.65 32.6376 251.621 31.3598C253.611 30.0821 255.947 29.4432 258.631 29.4432ZM258.576 33.1669C256.148 33.1669 254.213 33.961 252.771 35.5491C251.329 37.1371 250.471 39.355 250.197 42.2026H266.078C266.06 40.4137 265.777 38.8439 265.229 37.4931C264.7 36.1241 263.888 35.0653 262.793 34.3169C261.697 33.5503 260.292 33.1669 258.576 33.1669ZM325.604 39.6014C325.604 44.1101 324.782 47.8795 323.14 50.9096C321.497 53.9215 319.115 56.1941 315.993 57.7274C312.89 59.2425 309.121 60 304.685 60H293.815V19.9695H305.89C309.96 19.9695 313.465 20.7179 316.404 22.2147C319.343 23.6932 321.606 25.8928 323.194 28.8134C324.801 31.7158 325.604 35.3118 325.604 39.6014ZM320.703 39.7657C320.703 36.1697 320.1 33.2034 318.896 30.867C317.709 28.5305 315.957 26.7964 313.638 25.6646C311.338 24.5146 308.518 23.9397 305.178 23.9397H298.47V56.0024H304.137C309.65 56.0024 313.784 54.6425 316.541 51.9227C319.315 49.2029 320.703 45.1505 320.703 39.7657ZM345.373 29.4432C347.928 29.4432 350.119 30.009 351.944 31.1408C353.769 32.2725 355.166 33.8606 356.133 35.905C357.101 37.9312 357.584 40.3042 357.584 43.024V45.8442H336.857C336.912 49.3672 337.788 52.0505 339.486 53.8941C341.183 55.7377 343.575 56.6596 346.66 56.6596C348.558 56.6596 350.237 56.4861 351.698 56.1393C353.158 55.7925 354.673 55.2814 356.243 54.606V58.6036C354.728 59.279 353.222 59.7718 351.725 60.0821C350.246 60.3925 348.494 60.5476 346.468 60.5476C343.584 60.5476 341.065 59.9635 338.911 58.7953C336.775 57.6088 335.114 55.8746 333.928 53.5929C332.741 51.3112 332.148 48.5184 332.148 45.2144C332.148 41.9835 332.686 39.1907 333.763 36.836C334.858 34.463 336.392 32.6376 338.363 31.3598C340.353 30.0821 342.689 29.4432 345.373 29.4432ZM345.318 33.1669C342.89 33.1669 340.955 33.961 339.513 35.5491C338.071 37.1371 337.213 39.355 336.939 42.2026H352.82C352.802 40.4137 352.519 38.8439 351.971 37.4931C351.442 36.1241 350.63 35.0653 349.535 34.3169C348.439 33.5503 347.034 33.1669 345.318 33.1669ZM371.905 60L360.514 29.9908H365.388L371.987 48.1442C372.443 49.3854 372.908 50.7545 373.383 52.2513C373.858 53.7481 374.186 54.9528 374.369 55.8655H374.56C374.779 54.9528 375.145 53.7481 375.656 52.2513C376.167 50.7362 376.632 49.3672 377.052 48.1442L383.651 29.9908H388.525L377.107 60H371.905ZM404.898 29.4432C407.454 29.4432 409.644 30.009 411.47 31.1408C413.295 32.2725 414.691 33.8606 415.659 35.905C416.626 37.9312 417.11 40.3042 417.11 43.024V45.8442H396.383C396.438 49.3672 397.314 52.0505 399.011 53.8941C400.709 55.7377 403.1 56.6596 406.185 56.6596C408.084 56.6596 409.763 56.4861 411.223 56.1393C412.683 55.7925 414.199 55.2814 415.768 54.606V58.6036C414.253 59.279 412.747 59.7718 411.251 60.0821C409.772 60.3925 408.02 60.5476 405.993 60.5476C403.109 60.5476 400.59 59.9635 398.436 58.7953C396.301 57.6088 394.64 55.8746 393.453 53.5929C392.267 51.3112 391.673 48.5184 391.673 45.2144C391.673 41.9835 392.212 39.1907 393.289 36.836C394.384 34.463 395.917 32.6376 397.889 31.3598C399.878 30.0821 402.215 29.4432 404.898 29.4432ZM404.843 33.1669C402.416 33.1669 400.481 33.961 399.039 35.5491C397.597 37.1371 396.739 39.355 396.465 42.2026H412.346C412.328 40.4137 412.045 38.8439 411.497 37.4931C410.968 36.1241 410.155 35.0653 409.06 34.3169C407.965 33.5503 406.559 33.1669 404.843 33.1669ZM429.404 60H424.831V17.3957H429.404V60ZM464.889 44.9406C464.889 47.4049 464.57 49.6045 463.931 51.5394C463.292 53.4743 462.37 55.108 461.166 56.4405C459.961 57.773 458.5 58.7953 456.785 59.5071C455.087 60.2008 453.161 60.5476 451.007 60.5476C448.999 60.5476 447.156 60.2008 445.476 59.5071C443.815 58.7953 442.373 57.773 441.15 56.4405C439.945 55.108 439.005 53.4743 438.33 51.5394C437.673 49.6045 437.344 47.4049 437.344 44.9406C437.344 41.655 437.901 38.8621 439.015 36.5621C440.128 34.2439 441.716 32.4824 443.779 31.2777C445.86 30.0547 448.333 29.4432 451.199 29.4432C453.937 29.4432 456.328 30.0547 458.373 31.2777C460.435 32.5007 462.033 34.2713 463.164 36.5895C464.314 38.8895 464.889 41.6732 464.889 44.9406ZM442.054 44.9406C442.054 47.3501 442.373 49.4402 443.012 51.2108C443.651 52.9814 444.637 54.3505 445.969 55.3179C447.302 56.2854 449.018 56.7691 451.117 56.7691C453.198 56.7691 454.904 56.2854 456.237 55.3179C457.588 54.3505 458.583 52.9814 459.221 51.2108C459.86 49.4402 460.18 47.3501 460.18 44.9406C460.18 42.5494 459.86 40.4867 459.221 38.7526C458.583 37.0002 457.597 35.6495 456.264 34.7003C454.932 33.7511 453.207 33.2765 451.089 33.2765C447.968 33.2765 445.677 34.3078 444.217 36.3705C442.775 38.4332 442.054 41.2899 442.054 44.9406ZM486.849 29.4432C490.591 29.4432 493.575 30.7301 495.802 33.3038C498.029 35.8776 499.142 39.7474 499.142 44.9133C499.142 48.3267 498.631 51.1926 497.609 53.5108C496.587 55.829 495.145 57.5814 493.283 58.7679C491.439 59.9544 489.258 60.5476 486.739 60.5476C485.151 60.5476 483.755 60.3377 482.55 59.9179C481.345 59.498 480.314 58.9322 479.456 58.2203C478.598 57.5084 477.886 56.7326 477.32 55.8929H476.992C477.046 56.6048 477.11 57.4627 477.183 58.4667C477.274 59.4706 477.32 60.3468 477.32 61.0952V73.4165H472.748V29.9908H476.499L477.101 34.4265H477.32C477.904 33.5138 478.616 32.6832 479.456 31.9348C480.295 31.1682 481.318 30.5658 482.522 30.1277C483.745 29.6713 485.187 29.4432 486.849 29.4432ZM486.055 33.2765C483.974 33.2765 482.294 33.678 481.016 34.4812C479.757 35.2844 478.835 36.4891 478.251 38.0955C477.667 39.6835 477.357 41.6823 477.32 44.0918V44.968C477.32 47.5053 477.594 49.6501 478.142 51.4025C478.707 53.1548 479.629 54.4874 480.907 55.4C482.203 56.3127 483.937 56.7691 486.109 56.7691C487.971 56.7691 489.523 56.2671 490.764 55.2631C492.005 54.2592 492.927 52.8628 493.529 51.0739C494.15 49.2668 494.46 47.195 494.46 44.8585C494.46 41.3173 493.767 38.5062 492.379 36.4252C491.01 34.3261 488.902 33.2765 486.055 33.2765ZM518.638 29.4432C521.193 29.4432 523.384 30.009 525.209 31.1408C527.034 32.2725 528.431 33.8606 529.398 35.905C530.366 37.9312 530.849 40.3042 530.849 43.024V45.8442H510.122C510.177 49.3672 511.053 52.0505 512.751 53.8941C514.448 55.7377 516.84 56.6596 519.924 56.6596C521.823 56.6596 523.502 56.4861 524.962 56.1393C526.423 55.7925 527.938 55.2814 529.508 54.606V58.6036C527.993 59.279 526.487 59.7718 524.99 60.0821C523.511 60.3925 521.759 60.5476 519.733 60.5476C516.849 60.5476 514.33 59.9635 512.176 58.7953C510.04 57.6088 508.379 55.8746 507.192 53.5929C506.006 51.3112 505.413 48.5184 505.413 45.2144C505.413 41.9835 505.951 39.1907 507.028 36.836C508.123 34.463 509.657 32.6376 511.628 31.3598C513.618 30.0821 515.954 29.4432 518.638 29.4432ZM518.583 33.1669C516.155 33.1669 514.22 33.961 512.778 35.5491C511.336 37.1371 510.478 39.355 510.204 42.2026H526.085C526.067 40.4137 525.784 38.8439 525.236 37.4931C524.707 36.1241 523.895 35.0653 522.799 34.3169C521.704 33.5503 520.299 33.1669 518.583 33.1669ZM552.206 29.4432C552.809 29.4432 553.438 29.4797 554.096 29.5527C554.753 29.6075 555.337 29.6896 555.848 29.7991L555.273 34.0157C554.78 33.888 554.232 33.7876 553.63 33.7146C553.028 33.6415 552.462 33.605 551.932 33.605C550.728 33.605 549.587 33.8515 548.51 34.3443C547.451 34.8189 546.52 35.5126 545.717 36.4252C544.914 37.3197 544.284 38.4058 543.828 39.6835C543.371 40.9431 543.143 42.3486 543.143 43.9002V60H538.571V29.9908H542.349L542.842 35.5217H543.034C543.654 34.4082 544.403 33.3951 545.279 32.4824C546.155 31.5515 547.168 30.8122 548.318 30.2646C549.486 29.717 550.782 29.4432 552.206 29.4432ZM599.356 49.3489C599.356 51.7219 598.762 53.7481 597.576 55.4274C596.408 57.0885 594.765 58.3572 592.647 59.2333C590.53 60.1095 588.038 60.5476 585.173 60.5476C583.657 60.5476 582.225 60.4746 580.874 60.3286C579.523 60.1825 578.282 59.9726 577.15 59.6988C576.018 59.425 575.023 59.0873 574.166 58.6857V54.2227C575.535 54.7885 577.205 55.3179 579.176 55.8108C581.148 56.2854 583.21 56.5227 585.364 56.5227C587.372 56.5227 589.07 56.258 590.457 55.7286C591.844 55.181 592.894 54.4052 593.606 53.4013C594.336 52.379 594.701 51.156 594.701 49.7322C594.701 48.3632 594.4 47.2224 593.797 46.3097C593.195 45.3787 592.191 44.539 590.786 43.7906C589.398 43.024 587.5 42.2117 585.09 41.3538C583.393 40.7514 581.896 40.0943 580.6 39.3824C579.304 38.6522 578.218 37.8308 577.342 36.9181C576.466 36.0054 575.799 34.9467 575.343 33.7419C574.905 32.5372 574.686 31.159 574.686 29.6075C574.686 27.4718 575.224 25.6464 576.301 24.1313C577.396 22.598 578.902 21.4298 580.819 20.6266C582.754 19.8052 584.972 19.3945 587.473 19.3945C589.608 19.3945 591.58 19.5953 593.387 19.9968C595.212 20.3984 596.882 20.9369 598.397 21.6123L596.946 25.6099C595.504 25.0075 593.971 24.5055 592.346 24.1039C590.74 23.7024 589.079 23.5016 587.363 23.5016C585.647 23.5016 584.196 23.7571 583.009 24.2682C581.841 24.7611 580.947 25.4638 580.326 26.3765C579.706 27.2892 579.395 28.3753 579.395 29.6348C579.395 31.0404 579.687 32.2086 580.271 33.1396C580.874 34.0705 581.823 34.9011 583.119 35.6312C584.433 36.3431 586.167 37.0915 588.321 37.8764C590.676 38.7343 592.675 39.647 594.318 40.6145C595.961 41.5637 597.211 42.7319 598.069 44.1192C598.927 45.4882 599.356 47.2315 599.356 49.3489ZM616.551 56.8238C617.299 56.8238 618.066 56.76 618.851 56.6322C619.636 56.5044 620.275 56.3492 620.767 56.1667V59.6988C620.238 59.9361 619.499 60.1369 618.55 60.3012C617.619 60.4655 616.706 60.5476 615.812 60.5476C614.223 60.5476 612.781 60.2738 611.485 59.7262C610.189 59.1603 609.149 58.2111 608.364 56.8786C607.597 55.5461 607.214 53.7024 607.214 51.3477V33.5503H602.943V31.3324L607.241 29.5527L609.048 23.0361H611.787V29.9908H620.576V33.5503H611.787V51.2108C611.787 53.0909 612.216 54.4965 613.073 55.4274C613.95 56.3584 615.109 56.8238 616.551 56.8238ZM651.625 29.9908V60H647.902L647.245 55.7834H646.998C646.377 56.8238 645.574 57.7 644.589 58.4119C643.603 59.1238 642.489 59.6532 641.248 60C640.025 60.3651 638.72 60.5476 637.333 60.5476C634.96 60.5476 632.97 60.1643 631.364 59.3976C629.757 58.631 628.544 57.4445 627.722 55.8381C626.919 54.2318 626.517 52.1691 626.517 49.6501V29.9908H631.117V49.3215C631.117 51.8223 631.683 53.6933 632.815 54.9346C633.947 56.1576 635.672 56.7691 637.99 56.7691C640.217 56.7691 641.987 56.3492 643.302 55.5096C644.634 54.6699 645.593 53.4378 646.177 51.8132C646.761 50.1703 647.053 48.1624 647.053 45.7894V29.9908H651.625ZM671.915 60.5476C668.118 60.5476 665.106 59.2516 662.879 56.6596C660.67 54.0675 659.566 50.216 659.566 45.1049C659.566 39.9391 660.698 36.0419 662.961 33.4134C665.225 30.7666 668.236 29.4432 671.997 29.4432C673.585 29.4432 674.972 29.6531 676.159 30.0729C677.345 30.4928 678.367 31.0586 679.225 31.7705C680.083 32.4642 680.804 33.2582 681.388 34.1526H681.717C681.644 33.5868 681.571 32.811 681.498 31.8253C681.425 30.8396 681.388 30.0364 681.388 29.4158V17.3957H685.933V60H682.264L681.58 55.7286H681.388C680.822 56.6231 680.101 57.4353 679.225 58.1655C678.367 58.8956 677.336 59.4798 676.131 59.9179C674.945 60.3377 673.539 60.5476 671.915 60.5476ZM672.626 56.7691C675.839 56.7691 678.112 55.8564 679.444 54.031C680.777 52.2056 681.443 49.4949 681.443 45.899V45.0775C681.443 41.2625 680.804 38.3328 679.526 36.2883C678.267 34.2439 675.967 33.2217 672.626 33.2217C669.834 33.2217 667.744 34.2987 666.356 36.4526C664.969 38.5883 664.275 41.5089 664.275 45.2144C664.275 48.9017 664.96 51.7493 666.329 53.7572C667.716 55.7651 669.815 56.7691 672.626 56.7691ZM707.126 29.4432C709.682 29.4432 711.872 30.009 713.697 31.1408C715.523 32.2725 716.919 33.8606 717.887 35.905C718.854 37.9312 719.338 40.3042 719.338 43.024V45.8442H698.611C698.665 49.3672 699.542 52.0505 701.239 53.8941C702.937 55.7377 705.328 56.6596 708.413 56.6596C710.311 56.6596 711.991 56.4861 713.451 56.1393C714.911 55.7925 716.426 55.2814 717.996 54.606V58.6036C716.481 59.279 714.975 59.7718 713.478 60.0821C712 60.3925 710.247 60.5476 708.221 60.5476C705.337 60.5476 702.818 59.9635 700.664 58.7953C698.529 57.6088 696.867 55.8746 695.681 53.5929C694.494 51.3112 693.901 48.5184 693.901 45.2144C693.901 41.9835 694.44 39.1907 695.517 36.836C696.612 34.463 698.145 32.6376 700.117 31.3598C702.106 30.0821 704.443 29.4432 707.126 29.4432ZM707.071 33.1669C704.644 33.1669 702.709 33.961 701.267 35.5491C699.825 37.1371 698.967 39.355 698.693 42.2026H714.574C714.555 40.4137 714.272 38.8439 713.725 37.4931C713.195 36.1241 712.383 35.0653 711.288 34.3169C710.193 33.5503 708.787 33.1669 707.071 33.1669ZM741.27 29.4432C744.829 29.4432 747.522 30.3194 749.347 32.0717C751.172 33.8058 752.085 36.5987 752.085 40.4502V60H747.595V40.7514C747.595 38.2506 747.02 36.3796 745.87 35.1384C744.738 33.8971 742.995 33.2765 740.64 33.2765C737.318 33.2765 734.981 34.2165 733.631 36.0967C732.28 37.9768 731.604 40.7058 731.604 44.2835V60H727.059V29.9908H730.728L731.413 34.3169H731.659C732.298 33.2582 733.11 32.3729 734.096 31.661C735.082 30.9309 736.186 30.3832 737.409 30.0182C738.632 29.6348 739.919 29.4432 741.27 29.4432ZM771.142 56.8238C771.89 56.8238 772.657 56.76 773.442 56.6322C774.227 56.5044 774.866 56.3492 775.359 56.1667V59.6988C774.829 59.9361 774.09 60.1369 773.141 60.3012C772.21 60.4655 771.297 60.5476 770.403 60.5476C768.815 60.5476 767.373 60.2738 766.077 59.7262C764.781 59.1603 763.74 58.2111 762.955 56.8786C762.189 55.5461 761.805 53.7024 761.805 51.3477V33.5503H757.534V31.3324L761.833 29.5527L763.64 23.0361H766.378V29.9908H775.167V33.5503H766.378V51.2108C766.378 53.0909 766.807 54.4965 767.665 55.4274C768.541 56.3584 769.7 56.8238 771.142 56.8238ZM813.801 23.5016C811.592 23.5016 809.603 23.8849 807.832 24.6516C806.08 25.4 804.583 26.4952 803.342 27.9372C802.119 29.361 801.179 31.086 800.522 33.1122C799.864 35.1384 799.536 37.4201 799.536 39.9573C799.536 43.316 800.056 46.2366 801.097 48.7192C802.155 51.1834 803.725 53.0909 805.806 54.4417C807.905 55.7925 810.525 56.4679 813.664 56.4679C815.453 56.4679 817.132 56.3219 818.702 56.0298C820.29 55.7195 821.833 55.3362 823.33 54.8798V58.9322C821.869 59.4798 820.336 59.8814 818.73 60.1369C817.123 60.4107 815.216 60.5476 813.007 60.5476C808.937 60.5476 805.532 59.7079 802.794 58.0286C800.074 56.331 798.03 53.9397 796.661 50.8549C795.31 47.77 794.635 44.1283 794.635 39.93C794.635 36.8998 795.055 34.1344 795.894 31.6336C796.752 29.1146 797.993 26.9424 799.618 25.117C801.261 23.2916 803.269 21.8861 805.642 20.9004C808.033 19.8964 810.771 19.3945 813.856 19.3945C815.882 19.3945 817.835 19.5953 819.715 19.9968C821.596 20.3984 823.293 20.9734 824.808 21.7218L822.946 25.6646C821.669 25.0805 820.263 24.5785 818.73 24.1587C817.215 23.7206 815.572 23.5016 813.801 23.5016ZM835.897 60H831.325V17.3957H835.897V60ZM870.287 29.9908V60H866.564L865.907 55.7834H865.66C865.04 56.8238 864.236 57.7 863.251 58.4119C862.265 59.1238 861.151 59.6532 859.91 60C858.687 60.3651 857.382 60.5476 855.995 60.5476C853.622 60.5476 851.632 60.1643 850.026 59.3976C848.419 58.631 847.206 57.4445 846.384 55.8381C845.581 54.2318 845.179 52.1691 845.179 49.6501V29.9908H849.779V49.3215C849.779 51.8223 850.345 53.6933 851.477 54.9346C852.609 56.1576 854.334 56.7691 856.652 56.7691C858.879 56.7691 860.649 56.3492 861.964 55.5096C863.296 54.6699 864.255 53.4378 864.839 51.8132C865.423 50.1703 865.715 48.1624 865.715 45.7894V29.9908H870.287ZM884.443 17.3957V28.0468C884.443 29.2698 884.407 30.4563 884.334 31.6062C884.279 32.7562 884.233 33.6507 884.197 34.2895H884.443C885.265 32.9388 886.451 31.7979 888.003 30.867C889.554 29.936 891.535 29.4706 893.944 29.4706C897.705 29.4706 900.698 30.7757 902.925 33.386C905.17 35.978 906.293 39.8387 906.293 44.968C906.293 48.345 905.782 51.1926 904.76 53.5108C903.738 55.829 902.296 57.5814 900.434 58.7679C898.572 59.9544 896.372 60.5476 893.835 60.5476C891.462 60.5476 889.509 60.1095 887.975 59.2333C886.46 58.3389 885.292 57.2528 884.471 55.975H884.115L883.184 60H879.898V17.3957H884.443ZM893.205 33.2765C891.033 33.2765 889.308 33.7054 888.03 34.5634C886.752 35.403 885.831 36.6808 885.265 38.3967C884.717 40.0943 884.443 42.2482 884.443 44.8585V45.1049C884.443 48.8834 885.073 51.7767 886.333 53.7846C887.592 55.7742 889.883 56.7691 893.205 56.7691C895.998 56.7691 898.088 55.7469 899.475 53.7024C900.881 51.658 901.584 48.7374 901.584 44.9406C901.584 41.0708 900.89 38.1594 899.503 36.2062C898.134 34.253 896.034 33.2765 893.205 33.2765ZM933.646 51.7858C933.646 53.7024 933.163 55.3179 932.195 56.6322C931.246 57.9282 929.877 58.9048 928.088 59.5619C926.317 60.219 924.2 60.5476 921.736 60.5476C919.637 60.5476 917.82 60.3833 916.287 60.0548C914.754 59.7262 913.412 59.2607 912.262 58.6583V54.4691C913.485 55.0715 914.945 55.6191 916.643 56.1119C918.341 56.6048 920.075 56.8512 921.845 56.8512C924.437 56.8512 926.317 56.4314 927.486 55.5917C928.654 54.752 929.238 53.6112 929.238 52.1691C929.238 51.3477 929.001 50.6267 928.526 50.0061C928.07 49.3672 927.294 48.7557 926.199 48.1715C925.104 47.5692 923.589 46.912 921.654 46.2001C919.737 45.47 918.076 44.749 916.67 44.0371C915.283 43.3069 914.206 42.4216 913.439 41.3811C912.691 40.3407 912.317 38.9899 912.317 37.3288C912.317 34.7915 913.339 32.8475 915.383 31.4967C917.446 30.1277 920.148 29.4432 923.488 29.4432C925.295 29.4432 926.984 29.6257 928.554 29.9908C930.142 30.3376 931.62 30.8122 932.989 31.4146L931.456 35.0562C930.215 34.5268 928.891 34.0796 927.486 33.7146C926.08 33.3495 924.647 33.1669 923.187 33.1669C921.088 33.1669 919.472 33.5138 918.341 34.2074C917.227 34.9011 916.67 35.8502 916.67 37.055C916.67 37.9859 916.926 38.7526 917.437 39.355C917.966 39.9573 918.806 40.5232 919.956 41.0526C921.106 41.5819 922.621 42.2026 924.501 42.9145C926.381 43.6081 928.006 44.3291 929.375 45.0775C930.744 45.8077 931.794 46.7021 932.524 47.7608C933.272 48.8013 933.646 50.143 933.646 51.7858Z" fill="#6A6A6A"/>
<defs>
<linearGradient id="paint0_linear_372_1014" x1="490.782" y1="181.528" x2="426.155" y2="199.959" gradientUnits="userSpaceOnUse">
<stop stop-color="#4285F4"/>
<stop offset="1" stop-color="#4285F4" stop-opacity="0.7"/>
</linearGradient>
<linearGradient id="paint1_linear_372_1014" x1="412.201" y1="233.165" x2="430.633" y2="297.792" gradientUnits="userSpaceOnUse">
<stop stop-color="#0F9D58"/>
<stop offset="1" stop-color="#0F9D58" stop-opacity="0.7"/>
</linearGradient>
<linearGradient id="paint2_linear_372_1014" x1="463.844" y1="311.742" x2="528.471" y2="293.311" gradientUnits="userSpaceOnUse">
<stop stop-color="#F4B400"/>
<stop offset="1" stop-color="#F4B400" stop-opacity="0.7"/>
</linearGradient>
<linearGradient id="paint3_linear_372_1014" x1="542.44" y1="260.121" x2="523.992" y2="195.544" gradientUnits="userSpaceOnUse">
<stop stop-color="#DB4437"/>
<stop offset="1" stop-color="#DB4437" stop-opacity="0.7"/>
</linearGradient>
</defs>
</svg>
