<svg width="1584" height="396" viewBox="0 0 1584 396" fill="none" xmlns="http://www.w3.org/2000/svg">
<rect width="1584" height="396" fill="white"/>
<mask id="mask0_342_955" style="mask-type:alpha" maskUnits="userSpaceOnUse" x="573" y="151" width="151" height="115">
<path d="M713.036 153.157C719.947 155.632 723.402 158.933 723.402 163.058C723.402 164.399 722.783 166.926 721.545 170.639L691.842 256.5C691.636 257.222 691.275 258.098 690.759 259.13C690.243 260.161 688.851 261.553 686.582 263.307C684.416 264.957 681.786 265.782 678.692 265.782C675.701 265.782 673.071 264.957 670.802 263.307C668.636 261.553 667.192 259.851 666.47 258.201L648.37 204.828C636.922 238.657 631.095 255.881 630.888 256.5C630.682 257.118 630.218 257.995 629.496 259.13C628.774 260.264 627.949 261.295 627.021 262.224C624.649 264.596 621.812 265.782 618.512 265.782C615.212 265.782 612.478 265.008 610.313 263.461C608.25 261.914 606.858 260.367 606.136 258.82L605.053 256.5L575.195 170.639C574.06 167.235 573.493 164.708 573.493 163.058C573.493 158.933 576.948 155.684 583.858 153.312C586.849 152.28 589.531 151.765 591.903 151.765C594.378 151.765 596.234 152.59 597.472 154.24C598.813 155.89 599.999 158.417 601.03 161.82L618.048 213.492L634.911 162.594C636.355 158.262 638.985 155.271 642.801 153.621C644.451 152.899 646.565 152.538 649.143 152.538C651.825 152.538 654.3 153.415 656.569 155.168C658.838 156.818 660.282 158.468 660.901 160.119L678.692 213.801L695.709 161.82C696.535 159.448 697.205 157.695 697.721 156.56C698.236 155.426 699.165 154.343 700.505 153.312C701.949 152.177 703.703 151.61 705.765 151.61C707.828 151.61 710.252 152.126 713.036 153.157Z" fill="black"/>
</mask>
<g mask="url(#mask0_342_955)">
<rect width="30.9254" height="150.4" rx="15.4627" transform="matrix(0.949225 0.314598 0.31484 -0.949145 657.223 278.265)" fill="#0F9D58" fill-opacity="0.95"/>
<rect width="25.9881" height="130.967" rx="12.9941" transform="matrix(-0.949627 0.313384 -0.313626 -0.949547 696.667 267.94)" fill="#F4B400" fill-opacity="0.95"/>
<rect width="25.7405" height="136.128" rx="12.8702" transform="matrix(0.949225 0.314598 0.31484 -0.949145 600.325 266.857)" fill="#DB4437" fill-opacity="0.95"/>
<rect width="30.7818" height="150.4" rx="15.3909" transform="matrix(-0.949225 0.314598 -0.31484 -0.949145 641.217 283.081)" fill="#4285F4" fill-opacity="0.95"/>
</g>
<mask id="mask1_342_955" style="mask-type:alpha" maskUnits="userSpaceOnUse" x="861" y="151" width="151" height="115">
<path d="M871.55 153.157C864.64 155.632 861.185 158.933 861.185 163.058C861.185 164.399 861.804 166.926 863.041 170.639L892.745 256.5C892.951 257.222 893.312 258.098 893.827 259.13C894.343 260.161 895.736 261.553 898.004 263.307C900.17 264.957 902.8 265.782 905.894 265.782C908.885 265.782 911.515 264.957 913.784 263.307C915.95 261.553 917.394 259.851 918.116 258.201L936.217 204.828C947.665 238.657 953.492 255.881 953.698 256.5C953.904 257.118 954.369 257.995 955.09 259.13C955.812 260.264 956.638 261.295 957.566 262.224C959.938 264.596 962.774 265.782 966.074 265.782C969.375 265.782 972.108 265.008 974.274 263.461C976.337 261.914 977.729 260.367 978.451 258.82L979.534 256.5L1009.39 170.639C1010.53 167.235 1011.09 164.708 1011.09 163.058C1011.09 158.933 1007.64 155.684 1000.73 153.312C997.737 152.28 995.056 151.765 992.684 151.765C990.208 151.765 988.352 152.59 987.114 154.24C985.774 155.89 984.587 158.417 983.556 161.82L966.539 213.492L949.676 162.594C948.232 158.262 945.602 155.271 941.786 153.621C940.136 152.899 938.021 152.538 935.443 152.538C932.761 152.538 930.286 153.415 928.017 155.168C925.748 156.818 924.304 158.468 923.685 160.119L905.894 213.801L888.877 161.82C888.052 159.448 887.381 157.695 886.866 156.56C886.35 155.426 885.422 154.343 884.081 153.312C882.637 152.177 880.884 151.61 878.821 151.61C876.758 151.61 874.335 152.126 871.55 153.157Z" fill="black"/>
</mask>
<g mask="url(#mask1_342_955)">
<rect width="30.9254" height="150.4" rx="15.4627" transform="matrix(-0.949225 0.314598 -0.31484 -0.949145 927.363 278.265)" fill="#0F9D58" fill-opacity="0.95"/>
<rect width="25.9881" height="130.967" rx="12.9941" transform="matrix(0.949627 0.313384 0.313626 -0.949547 887.92 267.94)" fill="#F4B400" fill-opacity="0.95"/>
<rect width="25.7405" height="136.128" rx="12.8702" transform="matrix(-0.949225 0.314598 -0.31484 -0.949145 984.261 266.857)" fill="#DB4437" fill-opacity="0.95"/>
<rect width="30.7818" height="150.4" rx="15.3909" transform="matrix(0.949225 0.314598 0.31484 -0.949145 943.369 283.081)" fill="#4285F4" fill-opacity="0.95"/>
</g>
<path fill-rule="evenodd" clip-rule="evenodd" d="M722.943 203.064C718.68 205.526 718.68 211.68 722.943 214.142L753.531 231.801C749.476 225.019 747.145 217.086 747.145 208.61C747.145 200.124 749.48 192.185 753.543 185.398L722.943 203.064ZM791.723 163.354C791.95 163.351 792.178 163.349 792.406 163.349C809.458 163.349 824.308 172.78 832.024 186.71V151.164C832.024 146.241 826.695 143.164 822.431 145.625L791.723 163.354ZM832.024 230.509C824.308 244.439 809.458 253.87 792.406 253.87C792.186 253.87 791.966 253.868 791.746 253.865L822.431 271.581C826.695 274.042 832.024 270.965 832.024 266.042V230.509Z" fill="#34A853" fill-opacity="0.9"/>
<path fill-rule="evenodd" clip-rule="evenodd" d="M837.658 209.444C837.663 209.167 837.666 208.888 837.666 208.61C837.666 191.597 828.279 176.777 814.403 169.045H849.905C854.829 169.045 857.906 174.375 855.444 178.638L837.658 209.444ZM815.748 247.394C808.932 251.505 800.945 253.87 792.406 253.87C783.943 253.87 776.024 251.547 769.249 247.505L786.928 278.126C789.389 282.389 795.543 282.389 798.005 278.126L815.748 247.394ZM747.15 209.228L729.488 178.638C727.027 174.375 730.104 169.045 735.027 169.045H770.409C756.532 176.777 747.145 191.597 747.145 208.61C747.145 208.816 747.147 209.022 747.15 209.228Z" fill="#FBBC04" fill-opacity="0.9"/>
<path fill-rule="evenodd" clip-rule="evenodd" d="M861.989 214.141C866.253 211.679 866.253 205.525 861.989 203.063L831.204 185.29C835.306 192.1 837.666 200.079 837.666 208.608C837.666 217.13 835.311 225.101 831.216 231.908L861.989 214.141ZM793.19 253.862C792.929 253.866 792.668 253.868 792.406 253.868C775.442 253.868 760.658 244.536 752.908 230.726V266.041C752.908 270.964 758.238 274.042 762.501 271.58L793.19 253.862ZM793.212 163.355L762.501 145.624C758.238 143.163 752.908 146.24 752.908 151.163V186.491C760.658 172.68 775.442 163.348 792.406 163.348C792.675 163.348 792.944 163.351 793.212 163.355Z" fill="#EA4335" fill-opacity="0.9"/>
<path fill-rule="evenodd" clip-rule="evenodd" d="M798.005 139.082C795.543 134.818 789.389 134.818 786.927 139.082L769.238 169.72C776.015 165.674 783.939 163.35 792.406 163.35C800.95 163.35 808.941 165.717 815.758 169.832L798.005 139.082ZM837.658 207.763C837.663 208.044 837.666 208.327 837.666 208.61C837.666 225.614 828.289 240.427 814.424 248.162H849.905C854.829 248.162 857.906 242.833 855.444 238.569L837.658 207.763ZM770.387 248.162C756.522 240.427 747.145 225.614 747.145 208.61C747.145 208.399 747.147 208.189 747.15 207.979L729.488 238.569C727.027 242.833 730.104 248.162 735.027 248.162H770.387Z" fill="#4285F4" fill-opacity="0.9"/>
<path fill-rule="evenodd" clip-rule="evenodd" d="M773.257 181.839C769.945 179.028 765.005 179.389 762.134 182.617C776.389 165.973 801.413 163.94 818.169 178.079L818.252 178.149L818.252 178.15C821.612 181.001 822.024 186.036 819.173 189.397C816.322 192.758 811.286 193.171 807.925 190.32C807.901 190.299 807.877 190.279 807.854 190.259C797.771 181.772 782.715 183.03 774.181 193.088L774.181 193.088L774.18 193.087L774.18 193.087C777.031 189.726 776.618 184.69 773.257 181.839Z" fill="url(#paint0_linear_342_955)"/>
<path fill-rule="evenodd" clip-rule="evenodd" d="M766.621 239.002L766.621 239.002L766.621 239.002C763.26 236.15 762.847 231.114 765.698 227.753C768.532 224.413 773.523 223.985 776.884 226.778C766.88 218.232 765.648 203.212 774.124 193.15C774.143 193.129 774.161 193.108 774.18 193.086C777.031 189.725 776.618 184.689 773.257 181.837C769.896 178.986 764.86 179.399 762.008 182.76C762.008 182.76 762.008 182.76 762.008 182.76L762.008 182.76L761.911 182.874C747.76 199.679 749.854 224.777 766.621 239.002L766.621 239.002Z" fill="url(#paint1_linear_342_955)"/>
<path fill-rule="evenodd" clip-rule="evenodd" d="M776.948 226.831C773.587 223.98 768.551 224.393 765.7 227.754C762.848 231.115 763.261 236.151 766.622 239.002C766.648 239.024 766.674 239.046 766.7 239.067L766.843 239.189C783.581 253.186 808.472 251.137 822.695 234.588L822.8 234.464C819.938 237.756 814.952 238.142 811.616 235.312C808.255 232.46 807.842 227.424 810.693 224.063L810.694 224.063L810.694 224.063L810.693 224.063C802.155 234.128 787.085 235.381 777.003 226.878C776.985 226.862 776.967 226.847 776.948 226.831Z" fill="url(#paint2_linear_342_955)"/>
<path fill-rule="evenodd" clip-rule="evenodd" d="M822.864 234.391L822.864 234.391C837.104 217.606 835.061 192.466 818.311 178.2L818.292 178.183C821.615 181.04 822.014 186.049 819.174 189.397C816.322 192.758 811.286 193.171 807.925 190.319L807.925 190.32L807.925 190.32C817.971 198.843 819.238 213.871 810.787 223.954C810.756 223.99 810.724 224.026 810.693 224.063C807.841 227.424 808.255 232.46 811.616 235.312C814.976 238.163 820.012 237.75 822.863 234.39L822.864 234.391Z" fill="url(#paint3_linear_342_955)"/>
<path d="M582.132 115.215H589.285V125.139C588.212 125.503 587.106 125.773 585.967 125.951C584.838 126.128 583.574 126.216 582.174 126.216C580.047 126.216 578.25 125.792 576.785 124.943C575.33 124.094 574.224 122.885 573.468 121.317C572.712 119.74 572.334 117.87 572.334 115.705C572.334 113.586 572.749 111.739 573.58 110.162C574.42 108.585 575.628 107.362 577.205 106.495C578.791 105.617 580.695 105.179 582.916 105.179C584.054 105.179 585.132 105.286 586.149 105.501C587.176 105.706 588.128 106 589.005 106.383L588.095 108.454C587.339 108.128 586.504 107.848 585.589 107.614C584.684 107.381 583.746 107.264 582.776 107.264C581.106 107.264 579.673 107.61 578.479 108.3C577.294 108.991 576.384 109.966 575.749 111.226C575.124 112.485 574.812 113.978 574.812 115.705C574.812 117.412 575.087 118.901 575.637 120.17C576.188 121.429 577.046 122.409 578.213 123.109C579.379 123.809 580.882 124.159 582.72 124.159C583.644 124.159 584.437 124.108 585.1 124.005C585.762 123.893 586.364 123.762 586.905 123.613V117.342H582.132V115.215ZM607.117 118.238C607.117 119.498 606.954 120.622 606.627 121.611C606.3 122.601 605.829 123.436 605.213 124.117C604.598 124.798 603.851 125.321 602.974 125.685C602.106 126.039 601.122 126.216 600.02 126.216C598.994 126.216 598.052 126.039 597.193 125.685C596.344 125.321 595.607 124.798 594.981 124.117C594.366 123.436 593.885 122.601 593.54 121.611C593.204 120.622 593.036 119.498 593.036 118.238C593.036 116.558 593.32 115.131 593.89 113.955C594.459 112.77 595.271 111.869 596.325 111.254C597.389 110.628 598.653 110.316 600.118 110.316C601.518 110.316 602.741 110.628 603.786 111.254C604.84 111.879 605.657 112.784 606.235 113.969C606.823 115.145 607.117 116.568 607.117 118.238ZM595.443 118.238C595.443 119.47 595.607 120.538 595.933 121.443C596.26 122.349 596.764 123.048 597.445 123.543C598.126 124.038 599.003 124.285 600.076 124.285C601.14 124.285 602.013 124.038 602.694 123.543C603.384 123.048 603.893 122.349 604.22 121.443C604.546 120.538 604.709 119.47 604.709 118.238C604.709 117.016 604.546 115.961 604.22 115.075C603.893 114.179 603.389 113.488 602.708 113.003C602.027 112.518 601.145 112.275 600.062 112.275C598.467 112.275 597.296 112.803 596.549 113.857C595.812 114.911 595.443 116.372 595.443 118.238ZM624.361 118.238C624.361 119.498 624.198 120.622 623.872 121.611C623.545 122.601 623.074 123.436 622.458 124.117C621.842 124.798 621.095 125.321 620.218 125.685C619.35 126.039 618.366 126.216 617.265 126.216C616.238 126.216 615.296 126.039 614.437 125.685C613.588 125.321 612.851 124.798 612.226 124.117C611.61 123.436 611.13 122.601 610.784 121.611C610.448 120.622 610.28 119.498 610.28 118.238C610.28 116.558 610.565 115.131 611.134 113.955C611.703 112.77 612.515 111.869 613.57 111.254C614.633 110.628 615.898 110.316 617.363 110.316C618.763 110.316 619.985 110.628 621.03 111.254C622.085 111.879 622.901 112.784 623.48 113.969C624.068 115.145 624.361 116.568 624.361 118.238ZM612.688 118.238C612.688 119.47 612.851 120.538 613.178 121.443C613.504 122.349 614.008 123.048 614.689 123.543C615.371 124.038 616.248 124.285 617.321 124.285C618.385 124.285 619.257 124.038 619.938 123.543C620.629 123.048 621.137 122.349 621.464 121.443C621.791 120.538 621.954 119.47 621.954 118.238C621.954 117.016 621.791 115.961 621.464 115.075C621.137 114.179 620.634 113.488 619.952 113.003C619.271 112.518 618.389 112.275 617.307 112.275C615.711 112.275 614.54 112.803 613.794 113.857C613.056 114.911 612.688 116.372 612.688 118.238ZM632.662 132.823C630.646 132.823 629.092 132.445 628.001 131.689C626.909 130.943 626.363 129.893 626.363 128.54C626.363 127.579 626.666 126.758 627.273 126.076C627.889 125.395 628.738 124.943 629.82 124.719C629.419 124.532 629.074 124.252 628.785 123.879C628.505 123.506 628.365 123.076 628.365 122.591C628.365 122.031 628.519 121.541 628.827 121.122C629.144 120.692 629.624 120.282 630.268 119.89C629.466 119.563 628.813 119.013 628.309 118.238C627.814 117.454 627.567 116.544 627.567 115.509C627.567 114.408 627.795 113.47 628.253 112.695C628.71 111.911 629.372 111.314 630.24 110.904C631.108 110.493 632.158 110.288 633.39 110.288C633.66 110.288 633.931 110.302 634.201 110.33C634.481 110.348 634.747 110.381 634.999 110.428C635.251 110.465 635.471 110.512 635.657 110.568H640.92V112.065L638.093 112.415C638.373 112.779 638.606 113.218 638.792 113.731C638.979 114.244 639.072 114.813 639.072 115.439C639.072 116.969 638.555 118.187 637.519 119.092C636.483 119.988 635.06 120.436 633.25 120.436C632.82 120.436 632.382 120.398 631.934 120.324C631.477 120.576 631.127 120.856 630.884 121.164C630.651 121.471 630.534 121.826 630.534 122.227C630.534 122.526 630.623 122.764 630.8 122.941C630.987 123.118 631.253 123.249 631.598 123.333C631.943 123.408 632.358 123.445 632.844 123.445H635.545C637.215 123.445 638.494 123.795 639.38 124.495C640.276 125.195 640.724 126.216 640.724 127.56C640.724 129.259 640.034 130.56 638.653 131.465C637.271 132.371 635.275 132.823 632.662 132.823ZM632.732 131.003C634.001 131.003 635.051 130.873 635.881 130.612C636.721 130.36 637.346 129.991 637.757 129.506C638.177 129.03 638.387 128.461 638.387 127.798C638.387 127.182 638.247 126.716 637.967 126.398C637.687 126.09 637.276 125.885 636.735 125.783C636.194 125.671 635.531 125.615 634.747 125.615H632.088C631.397 125.615 630.795 125.722 630.282 125.937C629.769 126.151 629.372 126.468 629.092 126.888C628.822 127.308 628.687 127.831 628.687 128.456C628.687 129.287 629.037 129.916 629.736 130.346C630.436 130.784 631.435 131.003 632.732 131.003ZM633.334 118.742C634.444 118.742 635.279 118.462 635.839 117.902C636.399 117.342 636.679 116.526 636.679 115.453C636.679 114.305 636.394 113.446 635.825 112.877C635.256 112.299 634.416 112.009 633.306 112.009C632.242 112.009 631.421 112.308 630.842 112.905C630.273 113.493 629.988 114.356 629.988 115.495C629.988 116.54 630.278 117.342 630.856 117.902C631.435 118.462 632.261 118.742 633.334 118.742ZM646.281 125.937H643.943V104.157H646.281V125.937ZM657.101 110.316C658.407 110.316 659.527 110.605 660.46 111.184C661.393 111.762 662.107 112.574 662.602 113.619C663.096 114.655 663.343 115.868 663.343 117.258V118.7H652.748C652.776 120.501 653.224 121.873 654.091 122.815C654.959 123.758 656.182 124.229 657.759 124.229C658.729 124.229 659.588 124.14 660.334 123.963C661.081 123.786 661.855 123.524 662.658 123.179V125.223C661.883 125.568 661.113 125.82 660.348 125.979C659.592 126.137 658.696 126.216 657.661 126.216C656.186 126.216 654.899 125.918 653.797 125.321C652.706 124.714 651.856 123.828 651.25 122.661C650.643 121.495 650.34 120.067 650.34 118.378C650.34 116.726 650.615 115.299 651.166 114.095C651.726 112.882 652.51 111.949 653.517 111.296C654.535 110.642 655.729 110.316 657.101 110.316ZM657.073 112.219C655.832 112.219 654.843 112.625 654.105 113.437C653.368 114.249 652.93 115.383 652.79 116.838H660.908C660.899 115.924 660.754 115.121 660.474 114.431C660.203 113.731 659.788 113.19 659.228 112.807C658.668 112.415 657.95 112.219 657.073 112.219ZM691.338 115.509C691.338 117.814 690.918 119.74 690.078 121.289C689.238 122.829 688.02 123.991 686.425 124.775C684.838 125.549 682.911 125.937 680.644 125.937H675.087V105.473H681.26C683.341 105.473 685.132 105.855 686.635 106.62C688.137 107.376 689.294 108.501 690.106 109.994C690.927 111.477 691.338 113.316 691.338 115.509ZM688.832 115.593C688.832 113.754 688.524 112.238 687.908 111.044C687.302 109.849 686.406 108.963 685.221 108.384C684.045 107.796 682.604 107.502 680.896 107.502H677.467V123.893H680.364C683.182 123.893 685.296 123.198 686.705 121.807C688.123 120.417 688.832 118.345 688.832 115.593ZM701.444 110.316C702.75 110.316 703.87 110.605 704.803 111.184C705.736 111.762 706.45 112.574 706.945 113.619C707.439 114.655 707.686 115.868 707.686 117.258V118.7H697.091C697.119 120.501 697.566 121.873 698.434 122.815C699.302 123.758 700.525 124.229 702.102 124.229C703.072 124.229 703.93 124.14 704.677 123.963C705.424 123.786 706.198 123.524 707.001 123.179V125.223C706.226 125.568 705.456 125.82 704.691 125.979C703.935 126.137 703.039 126.216 702.004 126.216C700.529 126.216 699.241 125.918 698.14 125.321C697.049 124.714 696.199 123.828 695.593 122.661C694.986 121.495 694.683 120.067 694.683 118.378C694.683 116.726 694.958 115.299 695.509 114.095C696.069 112.882 696.853 111.949 697.86 111.296C698.878 110.642 700.072 110.316 701.444 110.316ZM701.416 112.219C700.175 112.219 699.185 112.625 698.448 113.437C697.711 114.249 697.273 115.383 697.133 116.838H705.251C705.242 115.924 705.097 115.121 704.817 114.431C704.546 113.731 704.131 113.19 703.571 112.807C703.011 112.415 702.293 112.219 701.416 112.219ZM715.007 125.937L709.184 110.596H711.676L715.049 119.876C715.282 120.51 715.52 121.21 715.763 121.975C716.005 122.741 716.173 123.356 716.267 123.823H716.365C716.477 123.356 716.663 122.741 716.924 121.975C717.186 121.201 717.424 120.501 717.638 119.876L721.012 110.596H723.503L717.666 125.937H715.007ZM731.873 110.316C733.18 110.316 734.3 110.605 735.233 111.184C736.166 111.762 736.88 112.574 737.374 113.619C737.869 114.655 738.116 115.868 738.116 117.258V118.7H727.52C727.548 120.501 727.996 121.873 728.864 122.815C729.732 123.758 730.954 124.229 732.531 124.229C733.502 124.229 734.36 124.14 735.107 123.963C735.853 123.786 736.628 123.524 737.43 123.179V125.223C736.656 125.568 735.886 125.82 735.121 125.979C734.365 126.137 733.469 126.216 732.433 126.216C730.959 126.216 729.671 125.918 728.57 125.321C727.478 124.714 726.629 123.828 726.023 122.661C725.416 121.495 725.113 120.067 725.113 118.378C725.113 116.726 725.388 115.299 725.939 114.095C726.499 112.882 727.282 111.949 728.29 111.296C729.307 110.642 730.502 110.316 731.873 110.316ZM731.845 112.219C730.604 112.219 729.615 112.625 728.878 113.437C728.141 114.249 727.702 115.383 727.562 116.838H735.681C735.671 115.924 735.527 115.121 735.247 114.431C734.976 113.731 734.561 113.19 734.001 112.807C733.441 112.415 732.723 112.219 731.845 112.219ZM744.401 125.937H742.063V104.157H744.401V125.937ZM762.541 118.238C762.541 119.498 762.378 120.622 762.051 121.611C761.725 122.601 761.253 123.436 760.638 124.117C760.022 124.798 759.275 125.321 758.398 125.685C757.53 126.039 756.546 126.216 755.445 126.216C754.418 126.216 753.476 126.039 752.617 125.685C751.768 125.321 751.031 124.798 750.406 124.117C749.79 123.436 749.309 122.601 748.964 121.611C748.628 120.622 748.46 119.498 748.46 118.238C748.46 116.558 748.745 115.131 749.314 113.955C749.883 112.77 750.695 111.869 751.749 111.254C752.813 110.628 754.078 110.316 755.543 110.316C756.942 110.316 758.165 110.628 759.21 111.254C760.264 111.879 761.081 112.784 761.659 113.969C762.247 115.145 762.541 116.568 762.541 118.238ZM750.868 118.238C750.868 119.47 751.031 120.538 751.357 121.443C751.684 122.349 752.188 123.048 752.869 123.543C753.55 124.038 754.427 124.285 755.501 124.285C756.564 124.285 757.437 124.038 758.118 123.543C758.809 123.048 759.317 122.349 759.644 121.443C759.97 120.538 760.134 119.47 760.134 118.238C760.134 117.016 759.97 115.961 759.644 115.075C759.317 114.179 758.813 113.488 758.132 113.003C757.451 112.518 756.569 112.275 755.487 112.275C753.891 112.275 752.72 112.803 751.973 113.857C751.236 114.911 750.868 116.372 750.868 118.238ZM773.767 110.316C775.68 110.316 777.205 110.974 778.344 112.289C779.482 113.605 780.052 115.583 780.052 118.224C780.052 119.969 779.79 121.434 779.268 122.619C778.745 123.804 778.008 124.7 777.056 125.307C776.114 125.913 774.999 126.216 773.711 126.216C772.899 126.216 772.185 126.109 771.569 125.895C770.953 125.68 770.426 125.391 769.988 125.027C769.549 124.663 769.185 124.266 768.896 123.837H768.728C768.756 124.201 768.789 124.639 768.826 125.153C768.872 125.666 768.896 126.114 768.896 126.496V132.795H766.558V110.596H768.476L768.784 112.863H768.896C769.194 112.397 769.558 111.972 769.988 111.589C770.417 111.198 770.939 110.89 771.555 110.666C772.18 110.432 772.918 110.316 773.767 110.316ZM773.361 112.275C772.297 112.275 771.439 112.481 770.785 112.891C770.142 113.302 769.67 113.918 769.372 114.739C769.073 115.551 768.914 116.572 768.896 117.804V118.252C768.896 119.549 769.036 120.646 769.316 121.541C769.605 122.437 770.076 123.118 770.729 123.585C771.392 124.052 772.278 124.285 773.389 124.285C774.341 124.285 775.134 124.028 775.768 123.515C776.403 123.002 776.874 122.288 777.182 121.373C777.499 120.45 777.658 119.391 777.658 118.196C777.658 116.386 777.303 114.949 776.594 113.885C775.894 112.812 774.817 112.275 773.361 112.275ZM790.017 110.316C791.324 110.316 792.444 110.605 793.377 111.184C794.31 111.762 795.024 112.574 795.518 113.619C796.013 114.655 796.26 115.868 796.26 117.258V118.7H785.664C785.692 120.501 786.14 121.873 787.008 122.815C787.876 123.758 789.098 124.229 790.675 124.229C791.646 124.229 792.504 124.14 793.251 123.963C793.997 123.786 794.772 123.524 795.574 123.179V125.223C794.8 125.568 794.03 125.82 793.265 125.979C792.509 126.137 791.613 126.216 790.577 126.216C789.103 126.216 787.815 125.918 786.714 125.321C785.622 124.714 784.773 123.828 784.167 122.661C783.56 121.495 783.257 120.067 783.257 118.378C783.257 116.726 783.532 115.299 784.083 114.095C784.643 112.882 785.426 111.949 786.434 111.296C787.451 110.642 788.646 110.316 790.017 110.316ZM789.989 112.219C788.748 112.219 787.759 112.625 787.022 113.437C786.285 114.249 785.846 115.383 785.706 116.838H793.825C793.815 115.924 793.671 115.121 793.391 114.431C793.12 113.731 792.705 113.19 792.145 112.807C791.585 112.415 790.867 112.219 789.989 112.219ZM807.178 110.316C807.486 110.316 807.808 110.334 808.144 110.372C808.48 110.4 808.778 110.442 809.04 110.498L808.746 112.653C808.494 112.588 808.214 112.537 807.906 112.499C807.598 112.462 807.309 112.443 807.038 112.443C806.422 112.443 805.839 112.569 805.288 112.821C804.747 113.064 804.271 113.418 803.861 113.885C803.45 114.342 803.128 114.897 802.895 115.551C802.662 116.195 802.545 116.913 802.545 117.706V125.937H800.207V110.596H802.139L802.391 113.423H802.489C802.806 112.854 803.189 112.336 803.637 111.869C804.085 111.394 804.602 111.016 805.19 110.736C805.788 110.456 806.45 110.316 807.178 110.316ZM831.281 120.492C831.281 121.705 830.978 122.741 830.371 123.599C829.774 124.448 828.934 125.097 827.852 125.545C826.769 125.993 825.496 126.216 824.031 126.216C823.256 126.216 822.523 126.179 821.833 126.104C821.142 126.03 820.508 125.923 819.929 125.783C819.351 125.643 818.842 125.47 818.404 125.265V122.983C819.104 123.272 819.957 123.543 820.965 123.795C821.973 124.038 823.027 124.159 824.128 124.159C825.155 124.159 826.023 124.024 826.732 123.753C827.441 123.473 827.978 123.076 828.342 122.563C828.715 122.041 828.902 121.415 828.902 120.688C828.902 119.988 828.748 119.405 828.44 118.938C828.132 118.462 827.618 118.033 826.9 117.65C826.191 117.258 825.22 116.843 823.989 116.404C823.121 116.097 822.356 115.761 821.693 115.397C821.03 115.023 820.475 114.604 820.027 114.137C819.579 113.67 819.239 113.129 819.006 112.513C818.782 111.897 818.67 111.193 818.67 110.4C818.67 109.308 818.945 108.375 819.495 107.6C820.055 106.816 820.825 106.219 821.805 105.809C822.794 105.389 823.928 105.179 825.206 105.179C826.298 105.179 827.306 105.281 828.23 105.487C829.163 105.692 830.017 105.967 830.791 106.313L830.049 108.356C829.312 108.048 828.528 107.792 827.698 107.586C826.877 107.381 826.027 107.278 825.15 107.278C824.273 107.278 823.531 107.409 822.925 107.67C822.328 107.922 821.87 108.281 821.553 108.748C821.236 109.215 821.077 109.77 821.077 110.414C821.077 111.132 821.226 111.729 821.525 112.205C821.833 112.681 822.318 113.106 822.981 113.479C823.653 113.843 824.539 114.226 825.64 114.627C826.844 115.065 827.866 115.532 828.706 116.027C829.545 116.512 830.185 117.109 830.623 117.818C831.062 118.518 831.281 119.409 831.281 120.492ZM840.071 124.313C840.454 124.313 840.846 124.28 841.247 124.215C841.648 124.15 841.975 124.07 842.227 123.977V125.783C841.956 125.904 841.578 126.007 841.093 126.09C840.617 126.174 840.151 126.216 839.693 126.216C838.881 126.216 838.144 126.076 837.482 125.797C836.819 125.507 836.287 125.022 835.886 124.341C835.494 123.66 835.298 122.717 835.298 121.513V112.415H833.115V111.282L835.312 110.372L836.236 107.04H837.636V110.596H842.129V112.415H837.636V121.443C837.636 122.405 837.855 123.123 838.294 123.599C838.742 124.075 839.334 124.313 840.071 124.313ZM858.002 110.596V125.937H856.098L855.762 123.781H855.636C855.319 124.313 854.908 124.761 854.404 125.125C853.9 125.489 853.331 125.759 852.697 125.937C852.071 126.123 851.404 126.216 850.695 126.216C849.482 126.216 848.465 126.021 847.644 125.629C846.823 125.237 846.202 124.63 845.782 123.809C845.371 122.988 845.166 121.933 845.166 120.646V110.596H847.518V120.478C847.518 121.756 847.807 122.713 848.386 123.347C848.964 123.972 849.846 124.285 851.031 124.285C852.169 124.285 853.075 124.07 853.746 123.641C854.428 123.212 854.918 122.582 855.216 121.751C855.515 120.912 855.664 119.885 855.664 118.672V110.596H858.002ZM868.373 126.216C866.432 126.216 864.893 125.554 863.754 124.229C862.625 122.904 862.061 120.935 862.061 118.322C862.061 115.681 862.639 113.689 863.796 112.345C864.953 110.992 866.493 110.316 868.415 110.316C869.227 110.316 869.936 110.423 870.543 110.638C871.15 110.852 871.672 111.142 872.111 111.505C872.549 111.86 872.918 112.266 873.216 112.723H873.384C873.347 112.434 873.31 112.037 873.272 111.533C873.235 111.03 873.216 110.619 873.216 110.302V104.157H875.54V125.937H873.664L873.314 123.753H873.216C872.927 124.21 872.559 124.625 872.111 124.999C871.672 125.372 871.145 125.671 870.529 125.895C869.922 126.109 869.204 126.216 868.373 126.216ZM868.737 124.285C870.38 124.285 871.541 123.818 872.223 122.885C872.904 121.952 873.244 120.566 873.244 118.728V118.308C873.244 116.358 872.918 114.86 872.265 113.815C871.621 112.77 870.445 112.247 868.737 112.247C867.31 112.247 866.241 112.798 865.532 113.899C864.823 114.991 864.468 116.484 864.468 118.378C864.468 120.263 864.818 121.719 865.518 122.745C866.227 123.772 867.3 124.285 868.737 124.285ZM886.374 110.316C887.68 110.316 888.8 110.605 889.733 111.184C890.666 111.762 891.38 112.574 891.875 113.619C892.369 114.655 892.616 115.868 892.616 117.258V118.7H882.021C882.049 120.501 882.497 121.873 883.364 122.815C884.232 123.758 885.455 124.229 887.032 124.229C888.002 124.229 888.861 124.14 889.607 123.963C890.354 123.786 891.128 123.524 891.931 123.179V125.223C891.156 125.568 890.386 125.82 889.621 125.979C888.865 126.137 887.969 126.216 886.934 126.216C885.459 126.216 884.172 125.918 883.07 125.321C881.979 124.714 881.129 123.828 880.523 122.661C879.916 121.495 879.613 120.067 879.613 118.378C879.613 116.726 879.888 115.299 880.439 114.095C880.999 112.882 881.783 111.949 882.79 111.296C883.808 110.642 885.002 110.316 886.374 110.316ZM886.346 112.219C885.105 112.219 884.116 112.625 883.378 113.437C882.641 114.249 882.203 115.383 882.063 116.838H890.181C890.172 115.924 890.027 115.121 889.747 114.431C889.476 113.731 889.061 113.19 888.501 112.807C887.941 112.415 887.223 112.219 886.346 112.219ZM903.828 110.316C905.648 110.316 907.024 110.764 907.957 111.659C908.89 112.546 909.357 113.974 909.357 115.943V125.937H907.061V116.097C907.061 114.818 906.768 113.862 906.18 113.227C905.601 112.593 904.71 112.275 903.506 112.275C901.808 112.275 900.613 112.756 899.923 113.717C899.232 114.678 898.887 116.073 898.887 117.902V125.937H896.564V110.596H898.439L898.789 112.807H898.915C899.242 112.266 899.657 111.813 900.161 111.449C900.665 111.076 901.229 110.796 901.855 110.61C902.48 110.414 903.138 110.316 903.828 110.316ZM919.099 124.313C919.482 124.313 919.874 124.28 920.275 124.215C920.676 124.15 921.003 124.07 921.255 123.977V125.783C920.984 125.904 920.606 126.007 920.121 126.09C919.645 126.174 919.178 126.216 918.721 126.216C917.909 126.216 917.172 126.076 916.51 125.797C915.847 125.507 915.315 125.022 914.914 124.341C914.522 123.66 914.326 122.717 914.326 121.513V112.415H912.142V111.282L914.34 110.372L915.264 107.04H916.663V110.596H921.157V112.415H916.663V121.443C916.663 122.405 916.883 123.123 917.321 123.599C917.769 124.075 918.362 124.313 919.099 124.313ZM940.907 107.278C939.777 107.278 938.76 107.474 937.855 107.866C936.959 108.249 936.194 108.809 935.56 109.546C934.934 110.274 934.454 111.156 934.118 112.191C933.782 113.227 933.614 114.394 933.614 115.691C933.614 117.408 933.88 118.901 934.412 120.17C934.953 121.429 935.756 122.405 936.819 123.095C937.892 123.786 939.232 124.131 940.837 124.131C941.751 124.131 942.61 124.056 943.412 123.907C944.224 123.748 945.012 123.552 945.778 123.319V125.391C945.031 125.671 944.247 125.876 943.426 126.007C942.605 126.146 941.63 126.216 940.501 126.216C938.42 126.216 936.679 125.787 935.28 124.929C933.889 124.061 932.844 122.838 932.144 121.261C931.454 119.684 931.109 117.823 931.109 115.677C931.109 114.128 931.323 112.714 931.752 111.435C932.191 110.148 932.826 109.037 933.656 108.104C934.496 107.171 935.522 106.453 936.735 105.949C937.958 105.435 939.358 105.179 940.935 105.179C941.97 105.179 942.969 105.281 943.93 105.487C944.891 105.692 945.759 105.986 946.533 106.369L945.582 108.384C944.928 108.086 944.21 107.829 943.426 107.614C942.651 107.39 941.812 107.278 940.907 107.278ZM952.202 125.937H949.865V104.157H952.202V125.937ZM969.783 110.596V125.937H967.879L967.543 123.781H967.417C967.1 124.313 966.689 124.761 966.185 125.125C965.681 125.489 965.112 125.759 964.478 125.937C963.852 126.123 963.185 126.216 962.476 126.216C961.263 126.216 960.246 126.021 959.425 125.629C958.604 125.237 957.983 124.63 957.563 123.809C957.153 122.988 956.947 121.933 956.947 120.646V110.596H959.299V120.478C959.299 121.756 959.588 122.713 960.167 123.347C960.745 123.972 961.627 124.285 962.812 124.285C963.95 124.285 964.856 124.07 965.527 123.641C966.209 123.212 966.699 122.582 966.997 121.751C967.296 120.912 967.445 119.885 967.445 118.672V110.596H969.783ZM977.019 104.157V109.602C977.019 110.227 977 110.834 976.963 111.422C976.935 112.009 976.912 112.467 976.893 112.793H977.019C977.439 112.103 978.046 111.519 978.839 111.044C979.632 110.568 980.644 110.33 981.876 110.33C983.798 110.33 985.329 110.997 986.467 112.331C987.615 113.656 988.189 115.63 988.189 118.252C988.189 119.978 987.928 121.434 987.405 122.619C986.882 123.804 986.145 124.7 985.193 125.307C984.242 125.913 983.117 126.216 981.82 126.216C980.607 126.216 979.609 125.993 978.825 125.545C978.05 125.087 977.453 124.532 977.033 123.879H976.851L976.375 125.937H974.696V104.157H977.019ZM981.498 112.275C980.388 112.275 979.506 112.495 978.853 112.933C978.2 113.362 977.728 114.016 977.439 114.893C977.159 115.761 977.019 116.862 977.019 118.196V118.322C977.019 120.254 977.341 121.733 977.985 122.759C978.629 123.776 979.8 124.285 981.498 124.285C982.926 124.285 983.994 123.762 984.704 122.717C985.422 121.672 985.781 120.179 985.781 118.238C985.781 116.26 985.427 114.771 984.718 113.773C984.018 112.775 982.945 112.275 981.498 112.275ZM1002.17 121.737C1002.17 122.717 1001.92 123.543 1001.43 124.215C1000.94 124.877 1000.25 125.377 999.331 125.713C998.425 126.049 997.343 126.216 996.083 126.216C995.01 126.216 994.082 126.132 993.298 125.965C992.514 125.797 991.828 125.559 991.24 125.251V123.109C991.865 123.417 992.612 123.697 993.48 123.949C994.348 124.201 995.234 124.327 996.139 124.327C997.464 124.327 998.425 124.112 999.023 123.683C999.62 123.254 999.918 122.671 999.918 121.933C999.918 121.513 999.797 121.145 999.555 120.828C999.321 120.501 998.925 120.188 998.365 119.89C997.805 119.582 997.03 119.246 996.041 118.882C995.061 118.509 994.212 118.14 993.494 117.776C992.785 117.403 992.234 116.95 991.842 116.418C991.46 115.887 991.268 115.196 991.268 114.347C991.268 113.05 991.791 112.056 992.836 111.366C993.89 110.666 995.271 110.316 996.979 110.316C997.903 110.316 998.766 110.409 999.569 110.596C1000.38 110.773 1001.14 111.016 1001.84 111.324L1001.05 113.185C1000.42 112.915 999.741 112.686 999.023 112.499C998.304 112.313 997.572 112.219 996.825 112.219C995.752 112.219 994.926 112.397 994.348 112.751C993.778 113.106 993.494 113.591 993.494 114.207C993.494 114.683 993.624 115.075 993.886 115.383C994.156 115.691 994.586 115.98 995.173 116.251C995.761 116.521 996.536 116.838 997.497 117.202C998.458 117.557 999.289 117.925 999.988 118.308C1000.69 118.681 1001.22 119.139 1001.6 119.68C1001.98 120.212 1002.17 120.898 1002.17 121.737Z" fill="#6A6A6A"/>
<path d="M1122.67 193.68C1126.01 195.604 1126.01 200.415 1122.67 202.34L1077.67 228.321C1074.34 230.245 1070.17 227.84 1070.17 223.991V172.029C1070.17 168.18 1074.34 165.774 1077.67 167.699L1122.67 193.68Z" fill="#4285F4"/>
<path d="M1174.67 193.68C1178.01 195.604 1178.01 200.415 1174.67 202.34L1137.17 223.991C1133.84 225.915 1129.67 223.509 1129.67 219.66V176.359C1129.67 172.51 1133.84 170.105 1137.17 172.029L1174.67 193.68Z" fill="#4285F4" fill-opacity="0.8"/>
<path d="M1218.67 193.68C1222.01 195.604 1222.01 200.415 1218.67 202.34L1188.67 219.66C1185.34 221.585 1181.17 219.179 1181.17 215.33V180.689C1181.17 176.84 1185.34 174.435 1188.67 176.359L1218.67 193.68Z" fill="#4285F4" fill-opacity="0.6"/>
<path d="M1253.67 193.68C1257.01 195.604 1257.01 200.415 1253.67 202.34L1231.17 215.33C1227.84 217.255 1223.67 214.849 1223.67 211V185.019C1223.67 181.17 1227.84 178.765 1231.17 180.689L1253.67 193.68Z" fill="#A5C7FF"/>
<path d="M461.672 193.68C458.339 195.604 458.339 200.415 461.672 202.34L506.672 228.321C510.006 230.245 514.172 227.84 514.172 223.991V172.029C514.172 168.18 510.006 165.774 506.672 167.699L461.672 193.68Z" fill="#FBC31D"/>
<path d="M409.672 193.68C406.339 195.604 406.339 200.415 409.672 202.34L447.172 223.991C450.506 225.915 454.672 223.509 454.672 219.66V176.359C454.672 172.51 450.506 170.105 447.172 172.029L409.672 193.68Z" fill="#FBC31D" fill-opacity="0.8"/>
<path d="M365.672 193.68C362.339 195.604 362.339 200.415 365.672 202.34L395.672 219.66C399.006 221.585 403.172 219.179 403.172 215.33V180.689C403.172 176.84 399.006 174.435 395.672 176.359L365.672 193.68Z" fill="#FCCF4A" fill-opacity="0.6"/>
<path d="M330.672 193.68C327.339 195.604 327.339 200.415 330.672 202.34L353.172 215.33C356.506 217.255 360.672 214.849 360.672 211V185.019C360.672 181.17 356.506 178.765 353.172 180.689L330.672 193.68Z" fill="#FFEFC1"/>
<path d="M831.396 332.579C833.481 332.579 834.955 332.833 835.819 333.342C836.734 333.799 837.344 334.536 837.649 335.553C837.954 336.519 838.107 337.815 838.107 339.442C838.107 341.018 837.929 342.289 837.573 343.255C837.268 344.221 836.734 344.882 835.972 345.237C834.853 345.847 833.277 346.153 831.244 346.153H801.428C799.598 346.153 798.022 345.466 796.701 344.094C795.379 342.721 794.718 341.12 794.718 339.29C794.718 336.545 795.659 334.028 797.54 331.741C799.471 329.402 801.784 327.419 804.479 325.793C807.173 324.115 809.867 322.488 812.562 320.912C815.256 319.286 817.543 317.456 819.424 315.422C821.356 313.389 822.322 311.228 822.322 308.941C822.322 308.483 822.144 307.848 821.788 307.034C821.432 306.17 821.026 305.484 820.568 304.975C820.162 304.416 819.501 303.908 818.586 303.45C817.671 302.993 816.4 302.764 814.773 302.764C813.146 302.764 811.723 303.374 810.503 304.594C809.333 305.763 808.673 306.933 808.52 308.102L808.215 309.856V310.313C808.215 311.432 808.164 312.27 808.063 312.83C808.012 313.389 807.783 314.024 807.376 314.736C806.614 315.956 804.631 316.566 801.428 316.566C797.87 316.566 795.76 315.6 795.099 313.668C794.845 312.855 794.718 311.559 794.718 309.779C794.718 304.492 796.599 299.765 800.361 295.596C804.174 291.377 809.13 289.267 815.23 289.267C821.382 289.267 826.364 291.402 830.176 295.672C833.989 299.892 835.895 304.721 835.895 310.161C835.895 313.058 835.26 315.803 833.989 318.396C832.718 320.989 831.193 323.073 829.414 324.649C825.652 328.004 822.297 330.266 819.348 331.435L817.442 332.198V332.579H831.396ZM862.308 289.267C868.561 289.267 873.492 291.046 877.101 294.605C880.71 298.163 882.515 302.179 882.515 306.653C882.515 311.076 880.532 314.278 876.567 316.261V316.795C877.076 317.049 877.813 317.608 878.779 318.472C879.795 319.286 880.609 320.099 881.219 320.912C882.896 323.048 883.735 325.488 883.735 328.233C883.735 333.672 881.702 338.171 877.635 341.73C873.568 345.237 868.459 346.991 862.308 346.991C856.207 346.991 851.124 345.212 847.057 341.654C845.532 340.281 844.185 338.476 843.015 336.239C842.609 335.426 842.329 334.765 842.177 334.257L842.024 333.494C841.465 331.817 841.185 330.444 841.185 329.377C841.185 326.428 843.676 324.954 848.658 324.954C850.692 324.954 852.039 325.208 852.7 325.716C853.564 326.377 854.327 327.699 854.987 329.682C855.496 331.308 856.894 332.528 859.181 333.342C860.147 333.647 861.215 333.799 862.384 333.799C865.078 333.799 867.061 333.266 868.332 332.198C869.603 331.08 870.238 329.834 870.238 328.462C870.238 327.089 869.603 325.894 868.332 324.878C867.112 323.81 865.638 323.276 863.909 323.276C862.232 323.276 861.088 323.225 860.478 323.124C859.868 323.022 859.207 322.768 858.495 322.361C857.122 321.7 856.436 319.743 856.436 316.49C856.436 312.931 857.377 310.821 859.258 310.161C860.122 309.906 861.444 309.779 863.223 309.779C867.086 309.779 869.018 308.788 869.018 306.805C869.018 305.738 868.51 304.721 867.493 303.755C866.476 302.789 865.053 302.306 863.223 302.306C861.444 302.306 860.02 302.611 858.953 303.222C857.885 303.832 857.224 304.442 856.97 305.052L856.512 305.967C855.343 308.508 853.666 309.779 851.48 309.779C850.209 309.779 848.811 309.322 847.286 308.407C844.744 306.933 843.473 305.23 843.473 303.298C843.473 302.484 844.058 300.756 845.227 298.112C845.43 297.655 845.989 296.867 846.904 295.749C847.819 294.579 848.862 293.563 850.031 292.698C851.251 291.834 852.929 291.046 855.064 290.335C857.25 289.623 859.664 289.267 862.308 289.267Z" fill="#5CC879" fill-opacity="0.9"/>
<path d="M737.585 332.579C739.669 332.579 741.143 332.833 742.007 333.342C742.922 333.799 743.532 334.536 743.837 335.553C744.142 336.519 744.295 337.815 744.295 339.442C744.295 341.018 744.117 342.289 743.761 343.255C743.456 344.221 742.922 344.882 742.16 345.237C741.041 345.847 739.465 346.153 737.432 346.153H707.617C705.787 346.153 704.211 345.466 702.889 344.094C701.567 342.721 700.906 341.12 700.906 339.29C700.906 336.545 701.847 334.028 703.728 331.741C705.66 329.402 707.973 327.419 710.667 325.793C713.361 324.115 716.055 322.488 718.75 320.912C721.444 319.286 723.732 317.456 725.613 315.422C727.544 313.389 728.51 311.228 728.51 308.941C728.51 308.483 728.332 307.848 727.977 307.034C727.621 306.17 727.214 305.484 726.756 304.975C726.35 304.416 725.689 303.908 724.774 303.45C723.859 302.993 722.588 302.764 720.961 302.764C719.334 302.764 717.911 303.374 716.691 304.594C715.522 305.763 714.861 306.933 714.708 308.102L714.403 309.856V310.313C714.403 311.432 714.352 312.27 714.251 312.83C714.2 313.389 713.971 314.024 713.565 314.736C712.802 315.956 710.819 316.566 707.617 316.566C704.058 316.566 701.948 315.6 701.288 313.668C701.033 312.855 700.906 311.559 700.906 309.779C700.906 304.492 702.787 299.765 706.549 295.596C710.362 291.377 715.318 289.267 721.419 289.267C727.57 289.267 732.552 291.402 736.364 295.672C740.177 299.892 742.084 304.721 742.084 310.161C742.084 313.058 741.448 315.803 740.177 318.396C738.906 320.989 737.381 323.073 735.602 324.649C731.84 328.004 728.485 330.266 725.536 331.435L723.63 332.198V332.579H737.585ZM753.169 296.587C754.643 294.503 756.702 292.775 759.346 291.402C762.04 289.979 765.141 289.267 768.648 289.267C772.156 289.267 775.206 289.953 777.799 291.326C780.442 292.698 782.501 294.401 783.976 296.435C785.501 298.468 786.721 300.858 787.636 303.603C789.161 308.178 789.923 313.033 789.923 318.167C789.923 327.369 787.941 334.664 783.976 340.052C782.501 342.086 780.442 343.763 777.799 345.085C775.206 346.407 772.182 347.068 768.725 347.068C765.268 347.068 762.192 346.407 759.498 345.085C756.855 343.712 754.77 342.035 753.245 340.052C751.771 338.07 750.551 335.706 749.585 332.961C748.111 328.589 747.374 323.632 747.374 318.091C747.374 313.007 747.958 308.661 749.127 305.052C750.348 301.442 751.695 298.621 753.169 296.587ZM768.572 333.494C773.808 333.494 776.426 328.512 776.426 318.549V318.091C776.426 307.873 773.834 302.764 768.648 302.764C763.463 302.764 760.871 307.898 760.871 318.167C760.871 328.385 763.438 333.494 768.572 333.494Z" fill="#4285F4" fill-opacity="0.7"/>
<defs>
<linearGradient id="paint0_linear_342_955" x1="798.681" y1="178.395" x2="768.722" y2="186.938" gradientUnits="userSpaceOnUse">
<stop stop-color="#4285F4"/>
<stop offset="1" stop-color="#4285F4" stop-opacity="0.7"/>
</linearGradient>
<linearGradient id="paint1_linear_342_955" x1="762.254" y1="202.33" x2="770.798" y2="232.29" gradientUnits="userSpaceOnUse">
<stop stop-color="#0F9D58"/>
<stop offset="1" stop-color="#0F9D58" stop-opacity="0.7"/>
</linearGradient>
<linearGradient id="paint2_linear_342_955" x1="786.193" y1="238.756" x2="816.153" y2="230.212" gradientUnits="userSpaceOnUse">
<stop stop-color="#F4B400"/>
<stop offset="1" stop-color="#F4B400" stop-opacity="0.7"/>
</linearGradient>
<linearGradient id="paint3_linear_342_955" x1="822.618" y1="214.82" x2="814.074" y2="184.861" gradientUnits="userSpaceOnUse">
<stop stop-color="#DB4437"/>
<stop offset="1" stop-color="#DB4437" stop-opacity="0.7"/>
</linearGradient>
</defs>
</svg>
