<svg width="2000" height="2000" viewBox="0 0 2000 2000" fill="none" xmlns="http://www.w3.org/2000/svg">
<path fill-rule="evenodd" clip-rule="evenodd" d="M181.01 934.753C130.783 963.752 130.783 1036.25 181.01 1065.25L541.345 1273.29C493.57 1193.38 466.115 1099.93 466.115 1000.07C466.115 900.117 493.617 806.591 541.467 726.643L181.01 934.753ZM991.263 466.953C993.933 466.914 996.607 466.894 999.286 466.894C1200.17 466.894 1375.1 577.985 1466 742.082V323.357C1466 265.36 1403.22 229.112 1352.99 258.111L991.263 466.953ZM1466 1258.05C1375.1 1422.15 1200.17 1533.24 999.286 1533.24C996.686 1533.24 994.09 1533.22 991.499 1533.18L1352.99 1741.89C1403.22 1770.89 1466 1734.64 1466 1676.64V1258.05Z" fill="#34A853" fill-opacity="0.9"/>
<path fill-rule="evenodd" clip-rule="evenodd" d="M1532.37 1009.91C1532.43 1006.64 1532.46 1003.35 1532.46 1000.07C1532.46 799.664 1421.89 625.085 1258.44 534.002H1676.64C1734.64 534.002 1770.89 596.785 1741.89 647.012L1532.37 1009.91ZM1274.27 1456.95C1193.98 1505.38 1099.89 1533.24 999.286 1533.24C899.594 1533.24 806.293 1505.88 726.481 1458.26L934.752 1818.99C963.751 1869.22 1036.25 1869.22 1065.25 1818.99L1274.27 1456.95ZM466.163 1007.37L258.11 647.012C229.112 596.785 265.36 534.002 323.357 534.002H740.135C576.678 625.085 466.114 799.664 466.114 1000.07C466.114 1002.5 466.131 1004.94 466.163 1007.37Z" fill="#FBBC04" fill-opacity="0.9"/>
<path fill-rule="evenodd" clip-rule="evenodd" d="M1818.99 1065.25C1869.22 1036.25 1869.22 963.751 1818.99 934.753L1456.35 725.381C1504.67 805.606 1532.46 899.59 1532.46 1000.07C1532.46 1100.46 1504.71 1194.37 1456.47 1274.55L1818.99 1065.25ZM1008.54 1533.16C1005.46 1533.21 1002.38 1533.24 999.286 1533.24C799.454 1533.24 625.299 1423.3 534.001 1260.61V1676.64C534.001 1734.64 596.785 1770.89 647.011 1741.89L1008.54 1533.16ZM1008.78 466.977L647.011 258.11C596.785 229.112 534.001 265.36 534.001 323.357V739.521C625.299 576.83 799.454 466.894 999.286 466.894C1002.46 466.894 1005.62 466.922 1008.78 466.977Z" fill="#EA4335" fill-opacity="0.9"/>
<path fill-rule="evenodd" clip-rule="evenodd" d="M1065.25 181.01C1036.25 130.784 963.751 130.784 934.753 181.01L726.366 541.946C806.203 494.282 899.546 466.895 999.286 466.895C1099.94 466.895 1194.07 494.784 1274.39 543.256L1065.25 181.01ZM1532.37 990.087C1532.43 993.406 1532.46 996.733 1532.46 1000.07C1532.46 1200.37 1422 1374.88 1258.67 1466H1676.64C1734.64 1466 1770.89 1403.22 1741.89 1352.99L1532.37 990.087ZM739.899 1466C576.572 1374.88 466.114 1200.37 466.114 1000.07C466.114 997.583 466.131 995.103 466.165 992.628L258.11 1352.99C229.112 1403.22 265.36 1466 323.357 1466H739.899Z" fill="#4285F4" fill-opacity="0.9"/>
<path fill-rule="evenodd" clip-rule="evenodd" d="M1303.76 641.198C1106.28 473.653 810.594 497.467 642.433 694.124C676.225 655.837 734.601 651.488 773.716 684.673C813.306 718.261 818.174 777.582 784.59 817.175L784.603 817.186L784.604 817.184C885.09 698.741 1062.35 683.891 1181.12 783.728C1181.45 784.011 1181.78 784.293 1182.11 784.572C1221.7 818.162 1281.02 813.296 1314.61 773.703C1348.2 734.115 1343.34 674.798 1303.76 641.206L1303.76 641.198Z" fill="url(#paint0_linear_319_898)"/>
<path fill-rule="evenodd" clip-rule="evenodd" d="M695.061 1357.67L695.54 1358.08L695.54 1358.08L695.539 1358.08C655.946 1324.49 651.08 1265.16 684.67 1225.57C718.184 1186.07 777.32 1181.13 816.911 1214.47C698.57 1113.83 683.927 936.434 784.091 817.747C784.254 817.558 784.417 817.368 784.579 817.177C818.169 777.584 813.303 718.258 773.71 684.668C734.118 651.078 674.792 655.944 641.202 695.537C641.201 695.538 641.2 695.539 641.199 695.54L641.195 695.536L640.809 695.992C473.418 893.795 497.689 1189.78 695.061 1357.67Z" fill="url(#paint1_linear_319_898)"/>
<path fill-rule="evenodd" clip-rule="evenodd" d="M817.195 1214.7C777.602 1181.11 718.276 1185.98 684.686 1225.57C651.096 1265.17 655.962 1324.49 695.555 1358.08C695.652 1358.16 695.748 1358.25 695.845 1358.33C893.681 1525.9 1189.85 1501.63 1357.77 1304.12C1324.13 1343.36 1265.05 1348.09 1225.59 1314.61C1185.99 1281.02 1181.13 1221.69 1214.72 1182.1L1214.72 1182.1L1214.72 1182.09L1214.72 1182.1C1114.04 1300.77 936.28 1315.45 817.503 1214.97C817.4 1214.88 817.298 1214.79 817.195 1214.7Z" fill="url(#paint2_linear_319_898)"/>
<path fill-rule="evenodd" clip-rule="evenodd" d="M1358.09 1303.74L1358.09 1303.74C1525.92 1105.91 1501.75 809.569 1304.18 641.555C1343.38 675.209 1348.09 734.25 1314.62 773.7C1281.03 813.293 1221.7 818.159 1182.11 784.569L1182.11 784.569L1182.11 784.57C1300.74 885.22 1315.45 1062.89 1215.08 1181.67C1214.95 1181.81 1214.83 1181.95 1214.71 1182.09C1181.12 1221.69 1185.99 1281.01 1225.58 1314.6C1265.17 1348.19 1324.5 1343.33 1358.09 1303.73C1358.09 1303.73 1358.09 1303.73 1358.09 1303.73L1358.09 1303.74Z" fill="url(#paint3_linear_319_898)"/>
<defs>
<linearGradient id="paint0_linear_319_898" x1="1073.22" y1="644.097" x2="720.294" y2="744.739" gradientUnits="userSpaceOnUse">
<stop stop-color="#4285F4"/>
<stop offset="1" stop-color="#4285F4" stop-opacity="0.7"/>
</linearGradient>
<linearGradient id="paint1_linear_319_898" x1="644.099" y1="926.079" x2="744.751" y2="1279" gradientUnits="userSpaceOnUse">
<stop stop-color="#0F9D58"/>
<stop offset="1" stop-color="#0F9D58" stop-opacity="0.7"/>
</linearGradient>
<linearGradient id="paint2_linear_319_898" x1="926.099" y1="1355.18" x2="1279.02" y2="1254.53" gradientUnits="userSpaceOnUse">
<stop stop-color="#F4B400"/>
<stop offset="1" stop-color="#F4B400" stop-opacity="0.7"/>
</linearGradient>
<linearGradient id="paint3_linear_319_898" x1="1355.19" y1="1073.19" x2="1254.54" y2="720.267" gradientUnits="userSpaceOnUse">
<stop stop-color="#DB4437"/>
<stop offset="1" stop-color="#DB4437" stop-opacity="0.7"/>
</linearGradient>
</defs>
</svg>
