<svg width="954" height="432" viewBox="0 0 954 432" fill="none" xmlns="http://www.w3.org/2000/svg">
<mask id="mask0_257_3248" style="mask-type:alpha" maskUnits="userSpaceOnUse" x="5" y="106" width="324" height="247">
<path d="M306.028 109.352C320.934 114.692 328.387 121.811 328.387 130.711C328.387 133.603 327.053 139.054 324.383 147.063L260.307 332.282C259.862 333.839 259.084 335.73 257.971 337.955C256.859 340.18 253.855 343.183 248.96 346.966C244.288 350.525 238.615 352.305 231.94 352.305C225.488 352.305 219.815 350.525 214.92 346.966C210.248 343.183 207.133 339.512 205.576 335.953L166.53 220.817C141.834 293.792 129.264 330.947 128.819 332.282C128.374 333.617 127.373 335.508 125.815 337.955C124.258 340.402 122.478 342.627 120.475 344.63C115.358 349.747 109.24 352.305 102.121 352.305C95.001 352.305 89.1051 350.637 84.433 347.299C79.9833 343.962 76.9797 340.625 75.4223 337.288L73.0862 332.282L8.67691 147.063C6.22957 139.721 5.00591 134.27 5.00591 130.711C5.00591 121.811 12.4591 114.803 27.3656 109.686C33.8177 107.461 39.6023 106.348 44.7194 106.348C50.0591 106.348 54.0638 108.128 56.7336 111.688C59.6259 115.248 62.1845 120.699 64.4093 128.041L101.119 239.506L137.496 129.709C140.61 120.365 146.284 113.913 154.516 110.353C158.075 108.796 162.636 108.017 168.198 108.017C173.983 108.017 179.323 109.908 184.217 113.69C189.112 117.25 192.227 120.81 193.562 124.37L231.94 240.173L268.65 128.041C270.43 122.924 271.876 119.141 272.989 116.694C274.101 114.247 276.104 111.911 278.996 109.686C282.111 107.238 285.893 106.015 290.343 106.015C294.792 106.015 300.021 107.127 306.028 109.352Z" fill="black"/>
</mask>
<g mask="url(#mask0_257_3248)">
<rect width="66.7119" height="324.44" rx="33.356" transform="matrix(0.949225 0.314598 0.31484 -0.949145 185.63 379.969)" fill="#0F9D58" fill-opacity="0.95"/>
<rect width="56.0614" height="282.52" rx="28.0307" transform="matrix(-0.949627 0.313384 -0.313626 -0.949547 270.716 357.698)" fill="#F4B400" fill-opacity="0.95"/>
<rect width="55.5271" height="293.655" rx="27.7636" transform="matrix(0.949225 0.314598 0.31484 -0.949145 62.8884 355.36)" fill="#DB4437" fill-opacity="0.95"/>
<rect width="66.4021" height="324.44" rx="33.2011" transform="matrix(-0.949225 0.314598 -0.31484 -0.949145 151.1 390.359)" fill="#4285F4" fill-opacity="0.95"/>
</g>
<mask id="mask1_257_3248" style="mask-type:alpha" maskUnits="userSpaceOnUse" x="625" y="106" width="324" height="247">
<path d="M647.972 109.352C633.066 114.692 625.613 121.811 625.613 130.711C625.613 133.603 626.947 139.054 629.617 147.063L693.693 332.282C694.138 333.839 694.916 335.73 696.029 337.955C697.141 340.18 700.145 343.183 705.04 346.966C709.712 350.525 715.385 352.305 722.06 352.305C728.512 352.305 734.185 350.525 739.08 346.966C743.752 343.183 746.867 339.512 748.424 335.953L787.47 220.817C812.166 293.792 824.736 330.947 825.181 332.282C825.626 333.617 826.627 335.508 828.185 337.955C829.742 340.402 831.522 342.627 833.525 344.63C838.642 349.747 844.76 352.305 851.879 352.305C858.999 352.305 864.895 350.637 869.567 347.299C874.017 343.962 877.02 340.625 878.578 337.288L880.914 332.282L945.323 147.063C947.77 139.721 948.994 134.27 948.994 130.711C948.994 121.811 941.541 114.803 926.634 109.686C920.182 107.461 914.398 106.348 909.281 106.348C903.941 106.348 899.936 108.128 897.266 111.688C894.374 115.248 891.816 120.699 889.591 128.041L852.881 239.506L816.504 129.709C813.39 120.365 807.716 113.913 799.484 110.353C795.925 108.796 791.364 108.017 785.802 108.017C780.017 108.017 774.677 109.908 769.783 113.69C764.888 117.25 761.773 120.81 760.438 124.37L722.06 240.173L685.35 128.041C683.57 122.924 682.124 119.141 681.011 116.694C679.899 114.247 677.896 111.911 675.004 109.686C671.889 107.238 668.107 106.015 663.657 106.015C659.208 106.015 653.979 107.127 647.972 109.352Z" fill="black"/>
</mask>
<g mask="url(#mask1_257_3248)">
<rect width="66.7119" height="324.44" rx="33.356" transform="matrix(-0.949225 0.314598 -0.31484 -0.949145 768.372 379.969)" fill="#0F9D58" fill-opacity="0.95"/>
<rect width="56.0614" height="282.52" rx="28.0307" transform="matrix(0.949627 0.313384 0.313626 -0.949547 683.286 357.698)" fill="#F4B400" fill-opacity="0.95"/>
<rect width="55.5271" height="293.655" rx="27.7636" transform="matrix(-0.949225 0.314598 -0.31484 -0.949145 891.113 355.36)" fill="#DB4437" fill-opacity="0.95"/>
<rect width="66.4021" height="324.44" rx="33.2011" transform="matrix(0.949225 0.314598 0.31484 -0.949145 802.9 390.359)" fill="#4285F4" fill-opacity="0.95"/>
</g>
<path d="M111.98 22.0264H125.971V41.4393C123.872 42.1512 121.709 42.6806 119.482 43.0274C117.273 43.3742 114.8 43.5476 112.062 43.5476C107.9 43.5476 104.386 42.7171 101.52 41.056C98.6728 39.3949 96.5097 37.031 95.0312 33.9644C93.5526 30.8795 92.8133 27.2196 92.8133 22.9847C92.8133 18.8411 93.6256 15.2269 95.2502 12.142C96.8931 9.05709 99.2569 6.66585 102.342 4.96825C105.445 3.25239 109.169 2.39446 113.513 2.39446C115.74 2.39446 117.848 2.60438 119.838 3.02422C121.846 3.4258 123.708 4.0008 125.424 4.7492L123.644 8.80154C122.165 8.16266 120.532 7.61505 118.743 7.1587C116.972 6.70236 115.138 6.47418 113.239 6.47418C109.972 6.47418 107.17 7.14957 104.833 8.50035C102.515 9.85113 100.735 11.7587 99.4942 14.2229C98.2712 16.6872 97.6597 19.6078 97.6597 22.9847C97.6597 26.3252 98.1982 29.2366 99.2752 31.7192C100.352 34.1834 102.031 36.1001 104.313 37.4691C106.595 38.8381 109.534 39.5227 113.13 39.5227C114.937 39.5227 116.488 39.4223 117.785 39.2215C119.081 39.0024 120.258 38.7469 121.317 38.4548V26.1883H111.98V22.0264ZM160.854 27.9406C160.854 30.4049 160.535 32.6045 159.896 34.5394C159.257 36.4743 158.335 38.108 157.131 39.4405C155.926 40.773 154.465 41.7953 152.75 42.5071C151.052 43.2008 149.126 43.5476 146.972 43.5476C144.964 43.5476 143.121 43.2008 141.441 42.5071C139.78 41.7953 138.338 40.773 137.115 39.4405C135.911 38.108 134.97 36.4743 134.295 34.5394C133.638 32.6045 133.309 30.4049 133.309 27.9406C133.309 24.655 133.866 21.8621 134.98 19.5621C136.093 17.2439 137.681 15.4824 139.744 14.2777C141.825 13.0547 144.298 12.4432 147.164 12.4432C149.902 12.4432 152.293 13.0547 154.338 14.2777C156.4 15.5007 157.998 17.2713 159.129 19.5895C160.279 21.8895 160.854 24.6732 160.854 27.9406ZM138.019 27.9406C138.019 30.3501 138.338 32.4402 138.977 34.2108C139.616 35.9814 140.602 37.3505 141.934 38.3179C143.267 39.2854 144.983 39.7691 147.082 39.7691C149.163 39.7691 150.869 39.2854 152.202 38.3179C153.553 37.3505 154.548 35.9814 155.186 34.2108C155.825 32.4402 156.145 30.3501 156.145 27.9406C156.145 25.5494 155.825 23.4867 155.186 21.7526C154.548 20.0002 153.562 18.6495 152.229 17.7003C150.897 16.7511 149.172 16.2765 147.054 16.2765C143.933 16.2765 141.642 17.3078 140.182 19.3705C138.74 21.4332 138.019 24.2899 138.019 27.9406ZM194.587 27.9406C194.587 30.4049 194.268 32.6045 193.629 34.5394C192.99 36.4743 192.068 38.108 190.864 39.4405C189.659 40.773 188.198 41.7953 186.483 42.5071C184.785 43.2008 182.859 43.5476 180.705 43.5476C178.697 43.5476 176.854 43.2008 175.174 42.5071C173.513 41.7953 172.071 40.773 170.848 39.4405C169.643 38.108 168.703 36.4743 168.028 34.5394C167.371 32.6045 167.042 30.4049 167.042 27.9406C167.042 24.655 167.599 21.8621 168.713 19.5621C169.826 17.2439 171.414 15.4824 173.477 14.2777C175.558 13.0547 178.031 12.4432 180.897 12.4432C183.635 12.4432 186.026 13.0547 188.071 14.2777C190.133 15.5007 191.731 17.2713 192.862 19.5895C194.012 21.8895 194.587 24.6732 194.587 27.9406ZM171.752 27.9406C171.752 30.3501 172.071 32.4402 172.71 34.2108C173.349 35.9814 174.335 37.3505 175.667 38.3179C177 39.2854 178.716 39.7691 180.815 39.7691C182.896 39.7691 184.602 39.2854 185.935 38.3179C187.286 37.3505 188.281 35.9814 188.919 34.2108C189.558 32.4402 189.878 30.3501 189.878 27.9406C189.878 25.5494 189.558 23.4867 188.919 21.7526C188.281 20.0002 187.295 18.6495 185.962 17.7003C184.63 16.7511 182.905 16.2765 180.787 16.2765C177.666 16.2765 175.375 17.3078 173.915 19.3705C172.473 21.4332 171.752 24.2899 171.752 27.9406ZM210.824 56.4713C206.881 56.4713 203.842 55.732 201.706 54.2535C199.571 52.7932 198.503 50.7396 198.503 48.0928C198.503 46.2127 199.096 44.6063 200.282 43.2738C201.487 41.9413 203.148 41.056 205.266 40.6179C204.481 40.2528 203.805 39.7052 203.24 38.975C202.692 38.2449 202.418 37.4052 202.418 36.456C202.418 35.3608 202.719 34.4025 203.322 33.581C203.942 32.7414 204.882 31.9382 206.142 31.1715C204.572 30.5327 203.294 29.4557 202.309 27.9406C201.341 26.4073 200.857 24.6276 200.857 22.6014C200.857 20.4475 201.305 18.6129 202.199 17.0979C203.094 15.5646 204.39 14.3963 206.087 13.5932C207.785 12.79 209.838 12.3884 212.248 12.3884C212.777 12.3884 213.307 12.4158 213.836 12.4706C214.384 12.5071 214.904 12.5709 215.397 12.6622C215.889 12.7352 216.318 12.8265 216.683 12.936H226.979V15.8658L221.448 16.5503C221.995 17.2622 222.452 18.1201 222.817 19.1241C223.182 20.128 223.364 21.2415 223.364 22.4645C223.364 25.4581 222.351 27.8402 220.325 29.6109C218.299 31.3632 215.515 32.2394 211.974 32.2394C211.134 32.2394 210.276 32.1664 209.4 32.0204C208.506 32.5132 207.821 33.0608 207.347 33.6632C206.89 34.2656 206.662 34.9592 206.662 35.7441C206.662 36.3282 206.836 36.7937 207.182 37.1405C207.547 37.4874 208.068 37.7429 208.743 37.9072C209.418 38.0532 210.231 38.1262 211.18 38.1262H216.464C219.732 38.1262 222.233 38.8108 223.967 40.1798C225.719 41.5488 226.595 43.5476 226.595 46.1762C226.595 49.4983 225.245 52.0447 222.543 53.8154C219.841 55.586 215.935 56.4713 210.824 56.4713ZM210.961 52.9118C213.443 52.9118 215.497 52.6563 217.122 52.1451C218.764 51.6523 219.987 50.9313 220.791 49.9821C221.612 49.0511 222.023 47.9376 222.023 46.6416C222.023 45.4369 221.749 44.5242 221.201 43.9036C220.654 43.3012 219.851 42.8996 218.792 42.6988C217.733 42.4798 216.437 42.3702 214.904 42.3702H209.701C208.351 42.3702 207.173 42.5802 206.169 43C205.165 43.4198 204.39 44.0405 203.842 44.8619C203.313 45.6833 203.048 46.7055 203.048 47.9285C203.048 49.5531 203.732 50.7852 205.101 51.6249C206.47 52.4828 208.424 52.9118 210.961 52.9118ZM212.138 28.9263C214.31 28.9263 215.944 28.3787 217.039 27.2835C218.135 26.1883 218.682 24.5911 218.682 22.4919C218.682 20.2467 218.126 18.5673 217.012 17.4538C215.899 16.3221 214.256 15.7562 212.084 15.7562C210.003 15.7562 208.396 16.3404 207.265 17.5086C206.151 18.6586 205.594 20.3471 205.594 22.574C205.594 24.6184 206.16 26.1883 207.292 27.2835C208.424 28.3787 210.039 28.9263 212.138 28.9263ZM237.465 43H232.893V0.395675H237.465V43ZM258.631 12.4432C261.186 12.4432 263.377 13.009 265.202 14.1408C267.027 15.2725 268.424 16.8606 269.391 18.905C270.359 20.9312 270.842 23.3042 270.842 26.024V28.8442H250.115C250.17 32.3672 251.046 35.0505 252.744 36.8941C254.441 38.7377 256.833 39.6596 259.918 39.6596C261.816 39.6596 263.495 39.4861 264.956 39.1393C266.416 38.7925 267.931 38.2814 269.501 37.606V41.6036C267.986 42.279 266.48 42.7718 264.983 43.0821C263.504 43.3925 261.752 43.5476 259.726 43.5476C256.842 43.5476 254.323 42.9635 252.169 41.7953C250.033 40.6088 248.372 38.8746 247.186 36.5929C245.999 34.3112 245.406 31.5184 245.406 28.2144C245.406 24.9835 245.944 22.1907 247.021 19.836C248.116 17.463 249.65 15.6376 251.621 14.3598C253.611 13.0821 255.947 12.4432 258.631 12.4432ZM258.576 16.1669C256.148 16.1669 254.213 16.961 252.771 18.5491C251.329 20.1371 250.471 22.355 250.197 25.2026H266.078C266.06 23.4137 265.777 21.8439 265.229 20.4931C264.7 19.1241 263.888 18.0653 262.793 17.3169C261.697 16.5503 260.292 16.1669 258.576 16.1669ZM325.604 22.6014C325.604 27.1101 324.782 30.8795 323.14 33.9096C321.497 36.9215 319.115 39.1941 315.993 40.7274C312.89 42.2425 309.121 43 304.685 43H293.815V2.96946H305.89C309.96 2.96946 313.465 3.71786 316.404 5.21467C319.343 6.69323 321.606 8.89281 323.194 11.8134C324.801 14.7158 325.604 18.3118 325.604 22.6014ZM320.703 22.7657C320.703 19.1697 320.1 16.2034 318.896 13.867C317.709 11.5305 315.957 9.79637 313.638 8.66464C311.338 7.51465 308.518 6.93966 305.178 6.93966H298.47V39.0024H304.137C309.65 39.0024 313.784 37.6425 316.541 34.9227C319.315 32.2029 320.703 28.1505 320.703 22.7657ZM345.373 12.4432C347.928 12.4432 350.119 13.009 351.944 14.1408C353.769 15.2725 355.166 16.8606 356.133 18.905C357.101 20.9312 357.584 23.3042 357.584 26.024V28.8442H336.857C336.912 32.3672 337.788 35.0505 339.486 36.8941C341.183 38.7377 343.575 39.6596 346.66 39.6596C348.558 39.6596 350.237 39.4861 351.698 39.1393C353.158 38.7925 354.673 38.2814 356.243 37.606V41.6036C354.728 42.279 353.222 42.7718 351.725 43.0821C350.246 43.3925 348.494 43.5476 346.468 43.5476C343.584 43.5476 341.065 42.9635 338.911 41.7953C336.775 40.6088 335.114 38.8746 333.928 36.5929C332.741 34.3112 332.148 31.5184 332.148 28.2144C332.148 24.9835 332.686 22.1907 333.763 19.836C334.858 17.463 336.392 15.6376 338.363 14.3598C340.353 13.0821 342.689 12.4432 345.373 12.4432ZM345.318 16.1669C342.89 16.1669 340.955 16.961 339.513 18.5491C338.071 20.1371 337.213 22.355 336.939 25.2026H352.82C352.802 23.4137 352.519 21.8439 351.971 20.4931C351.442 19.1241 350.63 18.0653 349.535 17.3169C348.439 16.5503 347.034 16.1669 345.318 16.1669ZM371.905 43L360.514 12.9908H365.388L371.987 31.1442C372.443 32.3854 372.908 33.7545 373.383 35.2513C373.858 36.7481 374.186 37.9528 374.369 38.8655H374.56C374.779 37.9528 375.145 36.7481 375.656 35.2513C376.167 33.7362 376.632 32.3672 377.052 31.1442L383.651 12.9908H388.525L377.107 43H371.905ZM404.898 12.4432C407.454 12.4432 409.644 13.009 411.47 14.1408C413.295 15.2725 414.691 16.8606 415.659 18.905C416.626 20.9312 417.11 23.3042 417.11 26.024V28.8442H396.383C396.438 32.3672 397.314 35.0505 399.011 36.8941C400.709 38.7377 403.1 39.6596 406.185 39.6596C408.084 39.6596 409.763 39.4861 411.223 39.1393C412.683 38.7925 414.199 38.2814 415.768 37.606V41.6036C414.253 42.279 412.747 42.7718 411.251 43.0821C409.772 43.3925 408.02 43.5476 405.993 43.5476C403.109 43.5476 400.59 42.9635 398.436 41.7953C396.301 40.6088 394.64 38.8746 393.453 36.5929C392.267 34.3112 391.673 31.5184 391.673 28.2144C391.673 24.9835 392.212 22.1907 393.289 19.836C394.384 17.463 395.917 15.6376 397.889 14.3598C399.878 13.0821 402.215 12.4432 404.898 12.4432ZM404.843 16.1669C402.416 16.1669 400.481 16.961 399.039 18.5491C397.597 20.1371 396.739 22.355 396.465 25.2026H412.346C412.328 23.4137 412.045 21.8439 411.497 20.4931C410.968 19.1241 410.155 18.0653 409.06 17.3169C407.965 16.5503 406.559 16.1669 404.843 16.1669ZM429.404 43H424.831V0.395675H429.404V43ZM464.889 27.9406C464.889 30.4049 464.57 32.6045 463.931 34.5394C463.292 36.4743 462.37 38.108 461.166 39.4405C459.961 40.773 458.5 41.7953 456.785 42.5071C455.087 43.2008 453.161 43.5476 451.007 43.5476C448.999 43.5476 447.156 43.2008 445.476 42.5071C443.815 41.7953 442.373 40.773 441.15 39.4405C439.945 38.108 439.005 36.4743 438.33 34.5394C437.673 32.6045 437.344 30.4049 437.344 27.9406C437.344 24.655 437.901 21.8621 439.015 19.5621C440.128 17.2439 441.716 15.4824 443.779 14.2777C445.86 13.0547 448.333 12.4432 451.199 12.4432C453.937 12.4432 456.328 13.0547 458.373 14.2777C460.435 15.5007 462.033 17.2713 463.164 19.5895C464.314 21.8895 464.889 24.6732 464.889 27.9406ZM442.054 27.9406C442.054 30.3501 442.373 32.4402 443.012 34.2108C443.651 35.9814 444.637 37.3505 445.969 38.3179C447.302 39.2854 449.018 39.7691 451.117 39.7691C453.198 39.7691 454.904 39.2854 456.237 38.3179C457.588 37.3505 458.583 35.9814 459.221 34.2108C459.86 32.4402 460.18 30.3501 460.18 27.9406C460.18 25.5494 459.86 23.4867 459.221 21.7526C458.583 20.0002 457.597 18.6495 456.264 17.7003C454.932 16.7511 453.207 16.2765 451.089 16.2765C447.968 16.2765 445.677 17.3078 444.217 19.3705C442.775 21.4332 442.054 24.2899 442.054 27.9406ZM486.849 12.4432C490.591 12.4432 493.575 13.7301 495.802 16.3038C498.029 18.8776 499.142 22.7474 499.142 27.9133C499.142 31.3267 498.631 34.1926 497.609 36.5108C496.587 38.829 495.145 40.5814 493.283 41.7679C491.439 42.9544 489.258 43.5476 486.739 43.5476C485.151 43.5476 483.755 43.3377 482.55 42.9179C481.345 42.498 480.314 41.9322 479.456 41.2203C478.598 40.5084 477.886 39.7326 477.32 38.8929H476.992C477.046 39.6048 477.11 40.4627 477.183 41.4667C477.274 42.4706 477.32 43.3468 477.32 44.0952V56.4165H472.748V12.9908H476.499L477.101 17.4265H477.32C477.904 16.5138 478.616 15.6832 479.456 14.9348C480.295 14.1682 481.318 13.5658 482.522 13.1277C483.745 12.6713 485.187 12.4432 486.849 12.4432ZM486.055 16.2765C483.974 16.2765 482.294 16.678 481.016 17.4812C479.757 18.2844 478.835 19.4891 478.251 21.0955C477.667 22.6835 477.357 24.6823 477.32 27.0918V27.968C477.32 30.5053 477.594 32.6501 478.142 34.4025C478.707 36.1548 479.629 37.4874 480.907 38.4C482.203 39.3127 483.937 39.7691 486.109 39.7691C487.971 39.7691 489.523 39.2671 490.764 38.2631C492.005 37.2592 492.927 35.8628 493.529 34.0739C494.15 32.2668 494.46 30.195 494.46 27.8585C494.46 24.3173 493.767 21.5062 492.379 19.4252C491.01 17.3261 488.902 16.2765 486.055 16.2765ZM518.638 12.4432C521.193 12.4432 523.384 13.009 525.209 14.1408C527.034 15.2725 528.431 16.8606 529.398 18.905C530.366 20.9312 530.849 23.3042 530.849 26.024V28.8442H510.122C510.177 32.3672 511.053 35.0505 512.751 36.8941C514.448 38.7377 516.84 39.6596 519.924 39.6596C521.823 39.6596 523.502 39.4861 524.962 39.1393C526.423 38.7925 527.938 38.2814 529.508 37.606V41.6036C527.993 42.279 526.487 42.7718 524.99 43.0821C523.511 43.3925 521.759 43.5476 519.733 43.5476C516.849 43.5476 514.33 42.9635 512.176 41.7953C510.04 40.6088 508.379 38.8746 507.192 36.5929C506.006 34.3112 505.413 31.5184 505.413 28.2144C505.413 24.9835 505.951 22.1907 507.028 19.836C508.123 17.463 509.657 15.6376 511.628 14.3598C513.618 13.0821 515.954 12.4432 518.638 12.4432ZM518.583 16.1669C516.155 16.1669 514.22 16.961 512.778 18.5491C511.336 20.1371 510.478 22.355 510.204 25.2026H526.085C526.067 23.4137 525.784 21.8439 525.236 20.4931C524.707 19.1241 523.895 18.0653 522.799 17.3169C521.704 16.5503 520.299 16.1669 518.583 16.1669ZM552.206 12.4432C552.809 12.4432 553.438 12.4797 554.096 12.5527C554.753 12.6075 555.337 12.6896 555.848 12.7991L555.273 17.0157C554.78 16.888 554.232 16.7876 553.63 16.7146C553.028 16.6415 552.462 16.605 551.932 16.605C550.728 16.605 549.587 16.8515 548.51 17.3443C547.451 17.8189 546.52 18.5126 545.717 19.4252C544.914 20.3197 544.284 21.4058 543.828 22.6835C543.371 23.9431 543.143 25.3486 543.143 26.9002V43H538.571V12.9908H542.349L542.842 18.5217H543.034C543.654 17.4082 544.403 16.3951 545.279 15.4824C546.155 14.5515 547.168 13.8122 548.318 13.2646C549.486 12.717 550.782 12.4432 552.206 12.4432ZM599.356 32.3489C599.356 34.7219 598.762 36.7481 597.576 38.4274C596.408 40.0885 594.765 41.3572 592.647 42.2333C590.53 43.1095 588.038 43.5476 585.173 43.5476C583.657 43.5476 582.225 43.4746 580.874 43.3286C579.523 43.1825 578.282 42.9726 577.15 42.6988C576.018 42.425 575.023 42.0873 574.166 41.6857V37.2227C575.535 37.7885 577.205 38.3179 579.176 38.8108C581.148 39.2854 583.21 39.5227 585.364 39.5227C587.372 39.5227 589.07 39.258 590.457 38.7286C591.844 38.181 592.894 37.4052 593.606 36.4013C594.336 35.379 594.701 34.156 594.701 32.7322C594.701 31.3632 594.4 30.2224 593.797 29.3097C593.195 28.3787 592.191 27.539 590.786 26.7906C589.398 26.024 587.5 25.2117 585.09 24.3538C583.393 23.7514 581.896 23.0943 580.6 22.3824C579.304 21.6522 578.218 20.8308 577.342 19.9181C576.466 19.0054 575.799 17.9467 575.343 16.7419C574.905 15.5372 574.686 14.159 574.686 12.6075C574.686 10.4718 575.224 8.64638 576.301 7.13132C577.396 5.598 578.902 4.42976 580.819 3.62659C582.754 2.80517 584.972 2.39446 587.473 2.39446C589.608 2.39446 591.58 2.59526 593.387 2.99684C595.212 3.39842 596.882 3.93691 598.397 4.6123L596.946 8.60988C595.504 8.0075 593.971 7.50552 592.346 7.10394C590.74 6.70236 589.079 6.50157 587.363 6.50157C585.647 6.50157 584.196 6.75712 583.009 7.26822C581.841 7.76108 580.947 8.46385 580.326 9.37654C579.706 10.2892 579.395 11.3753 579.395 12.6348C579.395 14.0404 579.687 15.2086 580.271 16.1396C580.874 17.0705 581.823 17.9011 583.119 18.6312C584.433 19.3431 586.167 20.0915 588.321 20.8764C590.676 21.7343 592.675 22.647 594.318 23.6145C595.961 24.5637 597.211 25.7319 598.069 27.1192C598.927 28.4882 599.356 30.2315 599.356 32.3489ZM616.551 39.8238C617.299 39.8238 618.066 39.76 618.851 39.6322C619.636 39.5044 620.275 39.3492 620.767 39.1667V42.6988C620.238 42.9361 619.499 43.1369 618.55 43.3012C617.619 43.4655 616.706 43.5476 615.812 43.5476C614.223 43.5476 612.781 43.2738 611.485 42.7262C610.189 42.1603 609.149 41.2111 608.364 39.8786C607.597 38.5461 607.214 36.7024 607.214 34.3477V16.5503H602.943V14.3324L607.241 12.5527L609.048 6.03609H611.787V12.9908H620.576V16.5503H611.787V34.2108C611.787 36.0909 612.216 37.4965 613.073 38.4274C613.95 39.3584 615.109 39.8238 616.551 39.8238ZM651.625 12.9908V43H647.902L647.245 38.7834H646.998C646.377 39.8238 645.574 40.7 644.589 41.4119C643.603 42.1238 642.489 42.6532 641.248 43C640.025 43.3651 638.72 43.5476 637.333 43.5476C634.96 43.5476 632.97 43.1643 631.364 42.3976C629.757 41.631 628.544 40.4445 627.722 38.8381C626.919 37.2318 626.517 35.1691 626.517 32.6501V12.9908H631.117V32.3215C631.117 34.8223 631.683 36.6933 632.815 37.9346C633.947 39.1576 635.672 39.7691 637.99 39.7691C640.217 39.7691 641.987 39.3492 643.302 38.5096C644.634 37.6699 645.593 36.4378 646.177 34.8132C646.761 33.1703 647.053 31.1624 647.053 28.7894V12.9908H651.625ZM671.915 43.5476C668.118 43.5476 665.106 42.2516 662.879 39.6596C660.67 37.0675 659.566 33.216 659.566 28.1049C659.566 22.9391 660.698 19.0419 662.961 16.4134C665.225 13.7666 668.236 12.4432 671.997 12.4432C673.585 12.4432 674.972 12.6531 676.159 13.0729C677.345 13.4928 678.367 14.0586 679.225 14.7705C680.083 15.4642 680.804 16.2582 681.388 17.1526H681.717C681.644 16.5868 681.571 15.811 681.498 14.8253C681.425 13.8396 681.388 13.0364 681.388 12.4158V0.395675H685.933V43H682.264L681.58 38.7286H681.388C680.822 39.6231 680.101 40.4353 679.225 41.1655C678.367 41.8956 677.336 42.4798 676.131 42.9179C674.945 43.3377 673.539 43.5476 671.915 43.5476ZM672.626 39.7691C675.839 39.7691 678.112 38.8564 679.444 37.031C680.777 35.2056 681.443 32.4949 681.443 28.899V28.0775C681.443 24.2625 680.804 21.3328 679.526 19.2883C678.267 17.2439 675.967 16.2217 672.626 16.2217C669.834 16.2217 667.744 17.2987 666.356 19.4526C664.969 21.5883 664.275 24.5089 664.275 28.2144C664.275 31.9017 664.96 34.7493 666.329 36.7572C667.716 38.7651 669.815 39.7691 672.626 39.7691ZM707.126 12.4432C709.682 12.4432 711.872 13.009 713.697 14.1408C715.523 15.2725 716.919 16.8606 717.887 18.905C718.854 20.9312 719.338 23.3042 719.338 26.024V28.8442H698.611C698.665 32.3672 699.542 35.0505 701.239 36.8941C702.937 38.7377 705.328 39.6596 708.413 39.6596C710.311 39.6596 711.991 39.4861 713.451 39.1393C714.911 38.7925 716.426 38.2814 717.996 37.606V41.6036C716.481 42.279 714.975 42.7718 713.478 43.0821C712 43.3925 710.247 43.5476 708.221 43.5476C705.337 43.5476 702.818 42.9635 700.664 41.7953C698.529 40.6088 696.867 38.8746 695.681 36.5929C694.494 34.3112 693.901 31.5184 693.901 28.2144C693.901 24.9835 694.44 22.1907 695.517 19.836C696.612 17.463 698.145 15.6376 700.117 14.3598C702.106 13.0821 704.443 12.4432 707.126 12.4432ZM707.071 16.1669C704.644 16.1669 702.709 16.961 701.267 18.5491C699.825 20.1371 698.967 22.355 698.693 25.2026H714.574C714.555 23.4137 714.272 21.8439 713.725 20.4931C713.195 19.1241 712.383 18.0653 711.288 17.3169C710.193 16.5503 708.787 16.1669 707.071 16.1669ZM741.27 12.4432C744.829 12.4432 747.522 13.3194 749.347 15.0717C751.172 16.8058 752.085 19.5987 752.085 23.4502V43H747.595V23.7514C747.595 21.2506 747.02 19.3796 745.87 18.1384C744.738 16.8971 742.995 16.2765 740.64 16.2765C737.318 16.2765 734.981 17.2165 733.631 19.0967C732.28 20.9768 731.604 23.7058 731.604 27.2835V43H727.059V12.9908H730.728L731.413 17.3169H731.659C732.298 16.2582 733.11 15.3729 734.096 14.661C735.082 13.9309 736.186 13.3832 737.409 13.0182C738.632 12.6348 739.919 12.4432 741.27 12.4432ZM771.142 39.8238C771.89 39.8238 772.657 39.76 773.442 39.6322C774.227 39.5044 774.866 39.3492 775.359 39.1667V42.6988C774.829 42.9361 774.09 43.1369 773.141 43.3012C772.21 43.4655 771.297 43.5476 770.403 43.5476C768.815 43.5476 767.373 43.2738 766.077 42.7262C764.781 42.1603 763.74 41.2111 762.955 39.8786C762.189 38.5461 761.805 36.7024 761.805 34.3477V16.5503H757.534V14.3324L761.833 12.5527L763.64 6.03609H766.378V12.9908H775.167V16.5503H766.378V34.2108C766.378 36.0909 766.807 37.4965 767.665 38.4274C768.541 39.3584 769.7 39.8238 771.142 39.8238ZM813.801 6.50157C811.592 6.50157 809.603 6.88489 807.832 7.65155C806.08 8.39996 804.583 9.49519 803.342 10.9372C802.119 12.361 801.179 14.086 800.522 16.1122C799.864 18.1384 799.536 20.4201 799.536 22.9573C799.536 26.316 800.056 29.2366 801.097 31.7192C802.155 34.1834 803.725 36.0909 805.806 37.4417C807.905 38.7925 810.525 39.4679 813.664 39.4679C815.453 39.4679 817.132 39.3219 818.702 39.0298C820.29 38.7195 821.833 38.3362 823.33 37.8798V41.9322C821.869 42.4798 820.336 42.8814 818.73 43.1369C817.123 43.4107 815.216 43.5476 813.007 43.5476C808.937 43.5476 805.532 42.7079 802.794 41.0286C800.074 39.331 798.03 36.9397 796.661 33.8549C795.31 30.77 794.635 27.1283 794.635 22.93C794.635 19.8998 795.055 17.1344 795.894 14.6336C796.752 12.1146 797.993 9.9424 799.618 8.11702C801.261 6.29165 803.269 4.88611 805.642 3.9004C808.033 2.89644 810.771 2.39446 813.856 2.39446C815.882 2.39446 817.835 2.59526 819.715 2.99684C821.596 3.39842 823.293 3.97342 824.808 4.72182L822.946 8.66464C821.669 8.08052 820.263 7.57854 818.73 7.1587C817.215 6.72061 815.572 6.50157 813.801 6.50157ZM835.897 43H831.325V0.395675H835.897V43ZM870.287 12.9908V43H866.564L865.907 38.7834H865.66C865.04 39.8238 864.236 40.7 863.251 41.4119C862.265 42.1238 861.151 42.6532 859.91 43C858.687 43.3651 857.382 43.5476 855.995 43.5476C853.622 43.5476 851.632 43.1643 850.026 42.3976C848.419 41.631 847.206 40.4445 846.384 38.8381C845.581 37.2318 845.179 35.1691 845.179 32.6501V12.9908H849.779V32.3215C849.779 34.8223 850.345 36.6933 851.477 37.9346C852.609 39.1576 854.334 39.7691 856.652 39.7691C858.879 39.7691 860.649 39.3492 861.964 38.5096C863.296 37.6699 864.255 36.4378 864.839 34.8132C865.423 33.1703 865.715 31.1624 865.715 28.7894V12.9908H870.287ZM884.443 0.395675V11.0468C884.443 12.2698 884.407 13.4563 884.334 14.6062C884.279 15.7562 884.233 16.6507 884.197 17.2895H884.443C885.265 15.9388 886.451 14.7979 888.003 13.867C889.554 12.936 891.535 12.4706 893.944 12.4706C897.705 12.4706 900.698 13.7757 902.925 16.386C905.17 18.978 906.293 22.8387 906.293 27.968C906.293 31.345 905.782 34.1926 904.76 36.5108C903.738 38.829 902.296 40.5814 900.434 41.7679C898.572 42.9544 896.372 43.5476 893.835 43.5476C891.462 43.5476 889.509 43.1095 887.975 42.2333C886.46 41.3389 885.292 40.2528 884.471 38.975H884.115L883.184 43H879.898V0.395675H884.443ZM893.205 16.2765C891.033 16.2765 889.308 16.7054 888.03 17.5634C886.752 18.403 885.831 19.6808 885.265 21.3967C884.717 23.0943 884.443 25.2482 884.443 27.8585V28.1049C884.443 31.8834 885.073 34.7767 886.333 36.7846C887.592 38.7742 889.883 39.7691 893.205 39.7691C895.998 39.7691 898.088 38.7469 899.475 36.7024C900.881 34.658 901.584 31.7374 901.584 27.9406C901.584 24.0708 900.89 21.1594 899.503 19.2062C898.134 17.253 896.034 16.2765 893.205 16.2765ZM933.646 34.7858C933.646 36.7024 933.163 38.3179 932.195 39.6322C931.246 40.9282 929.877 41.9048 928.088 42.5619C926.317 43.219 924.2 43.5476 921.736 43.5476C919.637 43.5476 917.82 43.3833 916.287 43.0548C914.754 42.7262 913.412 42.2607 912.262 41.6583V37.4691C913.485 38.0715 914.945 38.6191 916.643 39.1119C918.341 39.6048 920.075 39.8512 921.845 39.8512C924.437 39.8512 926.317 39.4314 927.486 38.5917C928.654 37.752 929.238 36.6112 929.238 35.1691C929.238 34.3477 929.001 33.6267 928.526 33.0061C928.07 32.3672 927.294 31.7557 926.199 31.1715C925.104 30.5692 923.589 29.912 921.654 29.2001C919.737 28.47 918.076 27.749 916.67 27.0371C915.283 26.3069 914.206 25.4216 913.439 24.3811C912.691 23.3407 912.317 21.9899 912.317 20.3288C912.317 17.7915 913.339 15.8475 915.383 14.4967C917.446 13.1277 920.148 12.4432 923.488 12.4432C925.295 12.4432 926.984 12.6257 928.554 12.9908C930.142 13.3376 931.62 13.8122 932.989 14.4146L931.456 18.0562C930.215 17.5268 928.891 17.0796 927.486 16.7146C926.08 16.3495 924.647 16.1669 923.187 16.1669C921.088 16.1669 919.472 16.5138 918.341 17.2074C917.227 17.9011 916.67 18.8502 916.67 20.055C916.67 20.9859 916.926 21.7526 917.437 22.355C917.966 22.9573 918.806 23.5232 919.956 24.0526C921.106 24.5819 922.621 25.2026 924.501 25.9145C926.381 26.6081 928.006 27.3291 929.375 28.0775C930.744 28.8077 931.794 29.7021 932.524 30.7608C933.272 31.8013 933.646 33.143 933.646 34.7858Z" fill="#6A6A6A"/>
</svg>
